<svg width="577" height="519" viewBox="0 0 577 519" fill="none" xmlns="http://www.w3.org/2000/svg">
<path d="M478.184 498.932L79.78 519C-54.1495 414.436 4.99873 274.84 79.7801 228.543C82.8423 193.512 120.878 107.08 298.322 66.9437C497.759 21.8336 483.019 127.148 437.57 183.655C645.959 262.342 553.127 432.919 478.184 498.932Z" fill="url(#paint0_linear_99_1022)"/>
<path d="M560.962 130.187V242.308C560.962 245.711 558.142 248.495 554.666 248.495H354.278C350.82 248.495 348 245.711 348 242.308V130.187C348 126.784 350.82 124 354.278 124H554.666C558.142 124 560.962 126.784 560.962 130.187Z" fill="#3E3789"/>
<path d="M560.962 131.387V139.212H348V131.387C348 127.312 350.82 124 354.278 124H554.666C558.142 124 560.962 127.312 560.962 131.387Z" fill="white"/>
<path d="M382.935 135.227C384.935 135.227 386.556 133.606 386.556 131.606C386.556 129.606 384.935 127.985 382.935 127.985C380.936 127.985 379.314 129.606 379.314 131.606C379.314 133.606 380.936 135.227 382.935 135.227Z" fill="#FFB700"/>
<path d="M371.345 135.227C373.344 135.227 374.966 133.606 374.966 131.606C374.966 129.606 373.344 127.985 371.345 127.985C369.345 127.985 367.724 129.606 367.724 131.606C367.724 133.606 369.345 135.227 371.345 135.227Z" fill="#E2209E"/>
<path d="M359.772 135.227C361.772 135.227 363.393 133.606 363.393 131.606C363.393 129.606 361.772 127.985 359.772 127.985C357.772 127.985 356.151 129.606 356.151 131.606C356.151 133.606 357.772 135.227 359.772 135.227Z" fill="#5E1DBB"/>
<path d="M537.126 185.702H432.41V194.363H537.126V185.702Z" fill="#9364ED"/>
<path d="M537.126 167.396H432.41V176.058H537.126V167.396Z" fill="#9364ED"/>
<path d="M537.126 203.424H432.41V212.085H537.126V203.424Z" fill="#9364ED"/>
<path d="M422.109 166H374V214.109H422.109V166Z" fill="#302E69"/>
<path d="M174.842 447.922V479.544H134.66V438.017L174.842 447.922Z" fill="#FD8753"/>
<path d="M279.466 436.11L287.895 466.574L249.115 477.302L238.051 437.288L279.466 436.11Z" fill="#FD8753"/>
<path d="M163.854 109.216C163.854 109.216 153.537 91.872 137.072 100.32C120.607 108.767 122.401 126.223 109.898 130.241C97.3944 134.259 87.1527 145.024 94.4228 158.929C100.497 170.554 116.962 166.872 116.962 166.872C116.962 166.872 127.204 184.309 145.295 178.347C163.386 172.386 171.647 162.985 169.741 147.996C167.853 132.97 163.854 109.216 163.854 109.216Z" fill="#5E1DBB"/>
<path d="M193.271 134.409C193.271 134.409 203.045 120.13 183.253 108.86C163.461 97.6095 149.033 113.047 148.865 121.326C148.697 129.624 153.425 133.456 153.425 133.456C153.425 133.456 151.575 151.435 168.844 150.183C186.113 148.986 193.271 134.409 193.271 134.409Z" fill="#5E1DBB"/>
<path d="M167.199 147.342L166.844 161.863C166.844 161.863 169.367 166.106 177.833 167.003C184.15 167.676 186.411 166.293 186.411 166.293L185.72 158.91L185.028 151.715L169.778 147.959L167.199 147.342Z" fill="#FD8753"/>
<path d="M167.236 146.65C167.255 147.043 167.405 147.529 167.629 148.071C170.694 155.397 182.057 158.518 185.701 158.929L185.01 151.734L167.236 146.65Z" fill="black"/>
<path d="M189.065 118.71C189.065 118.71 196.223 137.1 192.971 147.136C189.719 157.172 180.524 155.21 175.067 153.005C169.61 150.818 167.18 147.323 167.18 147.323C167.18 147.323 161.947 148.874 158.676 143.922C155.406 138.969 157.761 133.53 160.769 132.39C163.778 131.25 167.199 133.512 167.199 133.512L164.657 128.148C164.676 128.166 177.328 101.945 189.065 118.71Z" fill="#FD8753"/>
<path d="M190.224 142.445C190.187 142.445 190.149 142.445 190.112 142.445C189.738 142.389 189.495 142.034 189.551 141.66C190.467 136.11 188.337 133.157 188.299 133.119C188.075 132.82 188.131 132.39 188.43 132.166C188.729 131.942 189.159 131.998 189.383 132.297C189.477 132.428 191.906 135.698 190.878 141.885C190.841 142.202 190.542 142.445 190.224 142.445Z" fill="black"/>
<path d="M166.806 140.988C166.694 140.988 166.582 140.969 166.488 140.913L159.424 137.156C159.087 136.988 158.956 136.558 159.143 136.24C159.311 135.904 159.741 135.792 160.059 135.96L167.124 139.717C167.46 139.885 167.591 140.315 167.404 140.632C167.292 140.857 167.049 140.988 166.806 140.988Z" fill="black"/>
<path d="M160.228 142.258C160.041 142.258 159.854 142.184 159.704 142.015C159.462 141.735 159.48 141.305 159.779 141.062L163.181 138.091C163.461 137.848 163.891 137.866 164.153 138.165C164.396 138.446 164.377 138.876 164.078 139.119L160.676 142.09C160.546 142.202 160.377 142.258 160.228 142.258Z" fill="black"/>
<path d="M191.925 127.83C191.925 127.83 191.589 123.345 188.168 119.513C184.524 115.439 181.44 116.112 181.44 116.112C181.44 116.112 186.823 127.886 177.777 132.035C171.348 134.988 167.218 133.549 167.218 133.549L158.004 124.41L176.319 109.533C176.319 109.515 193.028 107.16 191.925 127.83Z" fill="#5E1DBB"/>
<path d="M185.683 146.164C185.609 146.164 185.534 146.146 185.459 146.127C185.366 146.09 183.179 145.323 181.759 142.931C181.572 142.613 181.684 142.184 182.002 141.997C182.319 141.81 182.749 141.922 182.936 142.24C184.095 144.202 185.889 144.837 185.908 144.837C186.263 144.968 186.45 145.342 186.338 145.697C186.225 145.996 185.964 146.164 185.683 146.164Z" fill="black"/>
<path d="M183.813 134.764C183.496 134.764 183.215 134.558 183.141 134.24L182.412 131.007C182.374 130.839 182.412 130.652 182.505 130.484L183.533 128.839C183.739 128.522 184.169 128.428 184.468 128.634C184.785 128.839 184.879 129.25 184.673 129.568L183.795 130.97L184.468 133.923C184.542 134.297 184.318 134.652 183.963 134.745C183.926 134.764 183.87 134.764 183.813 134.764Z" fill="black"/>
<path d="M192.859 134.689C192.542 134.689 192.261 134.483 192.187 134.166L191.458 130.933C191.42 130.764 191.458 130.577 191.551 130.409L192.579 128.765C192.785 128.447 193.196 128.353 193.514 128.559C193.831 128.765 193.925 129.176 193.719 129.493L192.841 130.895L193.514 133.848C193.588 134.222 193.364 134.577 193.009 134.67C192.953 134.689 192.897 134.689 192.859 134.689Z" fill="black"/>
<path d="M191.327 126.298C191.289 126.298 191.233 126.298 191.177 126.279L189.177 125.849C188.804 125.774 188.579 125.401 188.654 125.045C188.729 124.672 189.084 124.447 189.458 124.522L191.457 124.952C191.831 125.027 192.055 125.401 191.981 125.756C191.925 126.073 191.644 126.298 191.327 126.298Z" fill="black"/>
<path d="M262.29 155.715L294.959 175.75L331.571 126.746L298.902 106.693L262.29 155.715Z" fill="#9364ED"/>
<path d="M258.048 153.378L290.735 173.413L327.348 124.391L294.679 104.356L258.048 153.378Z" fill="white"/>
<path d="M318.171 128.391C318.041 128.391 317.929 128.353 317.816 128.297L293.838 113.589C293.52 113.383 293.408 112.972 293.614 112.654C293.801 112.337 294.23 112.225 294.548 112.43L318.527 127.139C318.844 127.344 318.956 127.755 318.751 128.073C318.62 128.279 318.396 128.391 318.171 128.391Z" fill="#5E1DBB"/>
<path d="M314.284 133.456C314.153 133.456 314.041 133.418 313.929 133.362L289.95 118.654C289.633 118.448 289.52 118.037 289.726 117.719C289.913 117.402 290.343 117.289 290.66 117.495L314.639 132.204C314.957 132.409 315.069 132.82 314.863 133.138C314.751 133.344 314.508 133.456 314.284 133.456Z" fill="#5E1DBB"/>
<path d="M310.49 138.558C310.359 138.558 310.247 138.52 310.135 138.464L286.156 123.756C285.839 123.55 285.726 123.139 285.932 122.821C286.119 122.504 286.549 122.392 286.867 122.597L310.845 137.306C311.163 137.511 311.275 137.922 311.069 138.24C310.938 138.446 310.714 138.558 310.49 138.558Z" fill="#5E1DBB"/>
<path d="M306.677 143.679C306.546 143.679 306.434 143.641 306.322 143.585L282.344 128.877C282.026 128.671 281.914 128.26 282.12 127.942C282.306 127.624 282.736 127.512 283.054 127.718L307.032 142.426C307.35 142.632 307.462 143.043 307.257 143.361C307.145 143.566 306.92 143.679 306.677 143.679Z" fill="#5E1DBB"/>
<path d="M223.173 130.26L187.757 177.45L221.771 197.317L243.787 139.006L223.173 130.26Z" fill="#FD8753"/>
<path d="M180.992 127.12C180.711 127.12 180.45 126.952 180.356 126.671C180.225 126.316 180.412 125.924 180.767 125.812L184.973 124.354C185.328 124.242 185.72 124.41 185.832 124.765C185.963 125.12 185.776 125.513 185.421 125.625L181.216 127.083C181.141 127.101 181.066 127.12 180.992 127.12Z" fill="black"/>
<path d="M274.475 177.058C274.475 177.058 275.241 163.601 279.297 158.275C283.353 152.949 290.473 148.8 291.987 151.883C293.52 154.967 288.679 159.434 289.445 161.265C290.212 163.097 295.276 162.181 302.902 159.452C310.527 156.742 315.592 147.921 315.592 147.921C315.592 147.921 317.124 151.416 316.601 154.593C316.096 157.752 315.068 159.452 315.068 159.452C315.068 159.452 316.694 155.789 316.694 162.48C316.694 165.844 313.798 168.18 313.798 168.18C313.798 168.18 316.078 170.946 311.256 177.039C306.434 183.132 292.978 188.72 292.978 188.72C292.978 188.72 278.007 225.276 253.375 234.92C228.742 244.564 209.455 231.612 209.455 231.612L217.062 191.505C217.099 191.523 243.507 200.905 274.475 177.058Z" fill="#FD8753"/>
<path d="M303.071 167.096C302.753 167.096 302.473 166.872 302.398 166.554C302.324 166.18 302.567 165.825 302.922 165.751C308.547 164.573 315.107 157.808 315.163 157.733C315.425 157.471 315.855 157.453 316.135 157.714C316.415 157.976 316.415 158.406 316.154 158.686C315.873 158.985 309.239 165.825 303.202 167.096C303.146 167.096 303.108 167.096 303.071 167.096Z" fill="black"/>
<path d="M304.21 173.731C303.892 173.731 303.593 173.488 303.537 173.17C303.481 172.797 303.724 172.441 304.098 172.385C310.49 171.301 313.256 167.825 313.293 167.788C313.517 167.489 313.947 167.433 314.246 167.676C314.545 167.9 314.601 168.33 314.377 168.629C314.246 168.797 311.275 172.572 304.341 173.731C304.285 173.731 304.248 173.731 304.21 173.731Z" fill="black"/>
<path d="M195.738 251.18C195.738 251.18 228.463 295.286 255.357 344.271C282.251 393.256 297.184 454.519 297.184 454.519L228.332 458.78L178.264 337.749L192.991 457.173L126.401 454.837C126.401 454.837 111.991 343.972 119.673 291.679C127.354 239.387 136.362 228.379 136.362 228.379L195.738 251.18Z" fill="#FFB700"/>
<path d="M156.116 135.829C155.911 135.829 155.724 135.736 155.574 135.567C143.968 120.952 159.593 107.889 159.742 107.758C160.041 107.515 160.471 107.571 160.695 107.851C160.938 108.15 160.882 108.58 160.602 108.804C159.985 109.309 145.856 121.139 156.64 134.708C156.883 135.007 156.826 135.437 156.527 135.661C156.415 135.773 156.266 135.829 156.116 135.829Z" fill="white"/>
<path d="M233.471 192.028C233.471 192.028 207.269 162.704 175.628 160.798C143.987 158.892 133.334 174.124 131.801 181.356C130.269 188.589 127.615 240.377 129.521 243.816C131.427 247.236 144.416 253.329 165.517 254.861C186.636 256.394 197.681 253.721 199.195 252.581C200.709 251.441 202.615 235.443 202.615 235.443L220.519 240.022L233.471 192.028Z" fill="#9364ED"/>
<path d="M167.199 147.342C167.199 147.342 176.113 167.395 166.844 175.338C157.574 183.281 143.781 178.142 143.781 178.142C143.781 178.142 139.127 181.113 130.231 178.104C121.335 175.095 116.98 166.853 116.98 166.853L167.199 147.342Z" fill="#5E1DBB"/>
<path d="M223.174 130.26C223.174 130.26 232.07 116.299 236.537 113.234C241.003 110.169 265.935 100.357 268.402 102.749C270.869 105.141 256.291 115.14 256.291 115.14C256.291 115.14 258.796 115.682 259.412 117.701C260.029 119.719 258.926 121.364 258.926 121.364C258.926 121.364 262.029 121.252 262.907 123.363C263.786 125.475 262.347 127.793 262.347 127.793C262.347 127.793 256.609 138.259 253.357 138.464C250.105 138.689 250.535 132.895 250.535 132.895C250.535 132.895 249.358 138.165 246.517 141.081C243.676 143.978 237.845 144.295 231.827 141.118C225.79 137.941 223.174 130.26 223.174 130.26Z" fill="#FD8753"/>
<path d="M230.125 139.399C229.789 139.399 229.49 139.137 229.453 138.782C229.415 138.408 229.696 138.072 230.069 138.035C236.928 137.306 238.61 128.447 238.629 128.372C238.666 128.185 238.76 128.036 238.928 127.924C239.078 127.83 239.283 127.793 239.451 127.83C242.703 128.54 246.609 128.802 247.245 127.98C247.376 127.812 247.263 127.494 247.133 127.251C245.338 123.681 237.059 120.037 236.984 119.999C236.648 119.85 236.48 119.439 236.629 119.102C236.779 118.766 237.19 118.598 237.526 118.747C237.881 118.897 246.348 122.616 248.347 126.634C248.889 127.699 248.628 128.41 248.31 128.821C247.002 130.503 242.105 129.755 239.825 129.307C239.264 131.587 236.984 138.689 230.219 139.399C230.181 139.399 230.144 139.399 230.125 139.399Z" fill="black"/>
<path d="M246.946 126.466C246.666 126.466 246.386 126.279 246.292 125.999C246.18 125.644 246.367 125.251 246.722 125.139C250.647 123.849 255.637 114.897 255.693 114.804C255.88 114.467 256.291 114.355 256.627 114.542C256.964 114.729 257.076 115.14 256.889 115.477C256.665 115.869 251.581 124.99 247.152 126.447C247.096 126.466 247.021 126.466 246.946 126.466Z" fill="black"/>
<path d="M248.591 134.11C248.553 134.11 248.516 134.11 248.46 134.11C247.133 134.035 246.124 133.568 245.47 132.708C244.33 131.194 244.778 129.082 244.797 128.989C244.872 128.615 245.245 128.391 245.6 128.466C245.974 128.54 246.198 128.914 246.124 129.269C246.124 129.288 245.787 130.877 246.554 131.867C246.946 132.39 247.619 132.671 248.516 132.727C251.039 132.839 255.88 125.625 258.309 121.027C258.477 120.691 258.889 120.56 259.225 120.747C259.561 120.915 259.692 121.326 259.505 121.663C258.851 122.971 252.833 134.11 248.591 134.11Z" fill="black"/>
<path d="M202.634 236.116C202.373 236.116 202.111 235.948 201.999 235.705C201.12 233.63 196.878 223.146 200.223 220.903C200.915 220.436 201.475 220.623 201.756 220.791C203.98 222.081 203.513 232.36 203.307 235.481C203.288 235.798 203.045 236.06 202.746 236.116C202.709 236.116 202.672 236.116 202.634 236.116ZM201.064 221.968C199.569 222.978 200.578 227.818 202.092 232.135C202.223 226.79 201.812 222.361 201.064 221.968Z" fill="white"/>
<path d="M174.227 263.571C160.097 263.571 141.128 261.197 129.727 250.077C129.466 249.815 129.447 249.385 129.709 249.105C129.97 248.843 130.4 248.825 130.68 249.086C149.688 267.607 191.963 260.954 192.374 260.879C192.748 260.823 193.103 261.066 193.159 261.44C193.215 261.814 192.972 262.169 192.598 262.225C191.869 262.374 184.263 263.571 174.227 263.571Z" fill="white"/>
<path d="M178.581 338.421C178.338 338.421 178.114 338.291 177.983 338.085C177.89 337.917 168.302 321.844 143.445 312.387C143.09 312.256 142.922 311.864 143.053 311.509C143.184 311.154 143.576 310.967 143.931 311.116C169.274 320.76 179.067 337.244 179.161 337.393C179.348 337.711 179.235 338.141 178.918 338.328C178.824 338.403 178.693 338.421 178.581 338.421Z" fill="white"/>
<path d="M120.512 301.379C119.877 301.379 119.242 301.36 118.587 301.323C118.214 301.304 117.933 300.968 117.952 300.594C117.971 300.22 118.27 299.959 118.681 299.959C124.568 300.351 129.296 298.893 132.754 295.604C138.323 290.315 138.921 281.737 138.996 279.7L122.643 273.196C122.288 273.065 122.12 272.654 122.269 272.317C122.419 271.981 122.811 271.794 123.148 271.943L139.949 278.616C140.211 278.709 140.379 278.971 140.379 279.232C140.379 279.681 140.491 290.166 133.726 296.595C130.343 299.772 125.914 301.379 120.512 301.379Z" fill="white"/>
<path d="M190.299 307.64C175.908 307.64 170.993 284.671 170.956 284.409C170.881 284.073 171.087 283.718 171.423 283.624L196.84 275.737C197.177 275.644 197.551 275.812 197.681 276.13C197.98 276.859 204.727 293.922 199.793 302.65C198.298 305.304 195.887 306.911 192.617 307.434C191.813 307.584 191.047 307.64 190.299 307.64ZM172.432 284.746C173.348 288.483 178.861 308.313 192.392 306.108C195.233 305.64 197.326 304.276 198.597 301.996C202.728 294.688 197.775 280.316 196.635 277.233L172.432 284.746Z" fill="white"/>
<path d="M248.068 506.401C248.068 506.401 238.312 460.649 245.676 460.5C253.058 460.35 264.963 465.116 264.963 465.116C264.963 465.116 280.139 453.865 288.1 457.584C296.081 461.322 301.856 471.34 301.856 471.34L346.112 491.3C346.112 491.3 352.167 498.308 351.364 502.401C350.728 505.597 289.278 513.316 262.29 516.549C255.357 517.409 249.058 512.905 248.068 506.401Z" fill="#E2209E"/>
<path d="M306.341 485.394C306.154 485.394 305.949 485.319 305.818 485.151C305.631 484.946 305.594 484.647 305.725 484.404L308.565 478.46L291.876 482.778C291.577 482.852 291.278 482.722 291.11 482.46C290.96 482.198 290.997 481.862 291.203 481.638L301.37 470.854C301.632 470.573 302.061 470.574 302.342 470.816C302.622 471.078 302.622 471.508 302.379 471.788L293.838 480.853L309.668 476.76C309.93 476.704 310.191 476.778 310.359 476.984C310.528 477.19 310.565 477.47 310.453 477.713L307.65 483.563L319.91 479.657C320.265 479.544 320.657 479.731 320.769 480.105C320.882 480.46 320.695 480.853 320.321 480.965L306.566 485.338C306.491 485.375 306.416 485.394 306.341 485.394Z" fill="#5E1DBB"/>
<path d="M179.104 465.808C179.104 465.808 205.363 508.7 200.84 513.989C196.317 519.278 164.321 520.025 149.706 517.689C135.11 515.353 129.503 513.596 128.4 510.026C127.297 506.457 134.231 462.387 134.231 462.387C134.231 462.387 140.66 455.136 149.482 457.005C158.303 458.874 172.114 465.695 172.114 465.695C172.114 465.695 175.535 459.808 179.104 465.808Z" fill="#E2209E"/>
<path d="M178.095 469.919C177.983 469.919 177.852 469.882 177.74 469.826L171.759 466.293C171.442 466.107 171.33 465.677 171.516 465.359C171.703 465.041 172.133 464.929 172.451 465.116L178.432 468.648C178.749 468.835 178.861 469.265 178.674 469.583C178.562 469.807 178.319 469.919 178.095 469.919Z" fill="#5E1DBB"/>
<path d="M358.749 94.8254H283.639C281.632 94.8254 280 93.1935 280 91.1863V3.63919C280 1.63201 281.632 0 283.639 0H358.749C360.756 0 362.388 1.63201 362.388 3.63919V91.1863C362.37 93.1935 360.756 94.8254 358.749 94.8254Z" fill="#5E1DBB"/>
<path d="M326.072 16.8828H294.782V53.725H326.072V16.8828Z" fill="#FFB700"/>
<path d="M347.606 43.2952H312.959V77.9426H347.606V43.2952Z" fill="#9364ED"/>
<path d="M571.656 172.388H476.62C474.072 172.388 471.998 170.313 471.998 167.766V121.622C471.998 119.074 474.072 117 476.62 117H571.656C574.203 117 576.277 119.074 576.277 121.622V167.766C576.277 170.313 574.203 172.388 571.656 172.388ZM476.62 118.328C474.8 118.328 473.345 119.802 473.345 121.622V167.766C473.345 169.585 474.818 171.059 476.62 171.059H571.656C573.475 171.059 574.931 169.585 574.931 167.766V121.622C574.931 119.802 573.457 118.328 571.656 118.328H476.62Z" fill="#E2209E"/>
<path d="M575.604 128.554H472.671C472.307 128.554 471.998 128.263 471.998 127.899C471.998 127.535 472.289 127.244 472.671 127.244H575.604C575.968 127.244 576.277 127.535 576.277 127.899C576.277 128.245 575.968 128.554 575.604 128.554Z" fill="#E2209E"/>
<path d="M568.362 126.061C566.597 126.061 565.142 124.624 565.142 122.841C565.142 121.076 566.579 119.62 568.362 119.62C570.145 119.62 571.583 121.058 571.583 122.841C571.583 124.624 570.127 126.061 568.362 126.061ZM568.362 120.967C567.325 120.967 566.47 121.804 566.47 122.859C566.47 123.896 567.307 124.751 568.362 124.751C569.399 124.751 570.255 123.914 570.255 122.859C570.255 121.822 569.399 120.967 568.362 120.967Z" fill="#E2209E"/>
<path d="M559.828 126.061C558.063 126.061 556.607 124.624 556.607 122.841C556.607 121.076 558.045 119.62 559.828 119.62C561.611 119.62 563.049 121.058 563.049 122.841C563.049 124.624 561.611 126.061 559.828 126.061ZM559.828 120.967C558.791 120.967 557.936 121.804 557.936 122.859C557.936 123.896 558.773 124.751 559.828 124.751C560.883 124.751 561.72 123.914 561.72 122.859C561.72 121.822 560.865 120.967 559.828 120.967Z" fill="#E2209E"/>
<path d="M551.312 126.061C549.547 126.061 548.092 124.624 548.092 122.841C548.092 121.076 549.529 119.62 551.312 119.62C553.096 119.62 554.533 121.058 554.533 122.841C554.515 124.624 553.077 126.061 551.312 126.061ZM551.312 120.967C550.275 120.967 549.42 121.804 549.42 122.859C549.42 123.896 550.257 124.751 551.312 124.751C552.35 124.751 553.205 123.914 553.205 122.859C553.187 121.822 552.35 120.967 551.312 120.967Z" fill="#E2209E"/>
<path d="M392.574 196L387.84 183.292H385.896L381.144 196H382.98L384.114 192.922H389.604L390.738 196H392.574ZM389.028 191.32H384.69L386.85 185.254L389.028 191.32ZM398.431 196C402.679 196 404.713 193.318 404.713 189.646C404.713 185.956 402.553 183.292 398.287 183.292H394.291V196H398.431ZM396.019 184.876H398.323C401.509 184.876 402.931 186.892 402.931 189.646C402.931 192.382 401.635 194.416 398.467 194.416H396.019V184.876ZM410.269 196.198C412.483 196.198 413.725 195.262 413.725 193.372C413.725 191.536 412.483 190.96 410.341 190.636C408.937 190.42 408.307 190.078 408.307 189.43C408.307 188.602 408.991 188.242 410.089 188.242C411.223 188.242 411.745 188.656 412.069 189.304L413.545 188.62C412.951 187.45 411.727 186.766 410.089 186.766C408.271 186.766 406.669 187.594 406.669 189.52C406.669 191.086 407.875 191.752 409.927 192.094C411.655 192.382 412.087 192.724 412.087 193.426C412.087 194.344 411.529 194.722 410.305 194.722C408.811 194.722 408.055 194.002 407.713 193.21L406.219 193.858C406.777 195.244 408.181 196.198 410.269 196.198Z" fill="white"/>
<defs>
<linearGradient id="paint0_linear_99_1022" x1="291.551" y1="-41.6991" x2="328.442" y2="527.211" gradientUnits="userSpaceOnUse">
<stop stop-color="#E0E0E0" stop-opacity="0.39"/>
<stop offset="1" stop-color="#D9D9D9" stop-opacity="0"/>
</linearGradient>
</defs>
</svg>
