<svg width="738" height="689" viewBox="0 0 738 689" fill="none" xmlns="http://www.w3.org/2000/svg">
<g clip-path="url(#clip0_101_1529)">
<path d="M627.287 14.6007V122.791C627.287 132.506 619.393 140.392 609.667 140.392H405.826C396.1 140.392 388.206 132.527 388.206 122.791V14.6007C388.206 4.8856 396.079 -3 405.826 -3H609.667C619.393 -3 627.287 4.8856 627.287 14.6007Z" fill="#E4E4ED"/>
<path d="M627.286 20.2783H388.226V21.4769H627.286V20.2783Z" fill="#F5F5F7"/>
<path d="M627.286 44.9656V46.1642H388.626C388.478 46.1642 388.331 46.1011 388.226 46.017V45.1338C388.331 45.0287 388.457 44.9866 388.626 44.9866H627.286V44.9656Z" fill="#F5F5F7"/>
<path d="M627.286 68.2227V69.3372C627.223 69.3583 627.159 69.3793 627.075 69.3793H388.226V68.1807H627.096C627.159 68.1807 627.223 68.2017 627.286 68.2227Z" fill="#F5F5F7"/>
<path d="M627.286 92.8679V94.0665H388.415C388.352 94.0665 388.289 94.0455 388.226 94.0245V92.91C388.289 92.8889 388.352 92.8679 388.415 92.8679H627.286Z" fill="#F5F5F7"/>
<path d="M627.286 117.576V118.69C627.223 118.712 627.159 118.733 627.075 118.733H388.226V117.534H627.096C627.159 117.534 627.223 117.555 627.286 117.576Z" fill="#F5F5F7"/>
<path d="M413.217 -3H412.018V140.371H413.217V-3Z" fill="#F5F5F7"/>
<path d="M437.913 -3H436.713V140.371H437.913V-3Z" fill="#F5F5F7"/>
<path d="M461.171 -3H459.971V140.371H461.171V-3Z" fill="#F5F5F7"/>
<path d="M485.866 -3H484.666V140.371H485.866V-3Z" fill="#F5F5F7"/>
<path d="M510.578 -3H509.378V140.371H510.578V-3Z" fill="#F5F5F7"/>
<path d="M534.621 -3H533.421V140.371H534.621V-3Z" fill="#F5F5F7"/>
<path d="M559.338 -3H558.138V140.371H559.338V-3Z" fill="#F5F5F7"/>
<path d="M582.574 -3H581.374V140.371H582.574V-3Z" fill="#F5F5F7"/>
<path d="M607.288 -3H606.088V140.371H607.288V-3Z" fill="#F5F5F7"/>
<path d="M436.709 51.358C439.906 51.358 442.498 48.769 442.498 45.5753C442.498 42.3815 439.906 39.7925 436.709 39.7925C433.512 39.7925 430.92 42.3815 430.92 45.5753C430.92 48.769 433.512 51.358 436.709 51.358Z" fill="#80BAFF"/>
<path d="M460.562 99.8492C463.759 99.8492 466.351 97.2602 466.351 94.0665C466.351 90.8727 463.759 88.2837 460.562 88.2837C457.364 88.2837 454.772 90.8727 454.772 94.0665C454.772 97.2602 457.364 99.8492 460.562 99.8492Z" fill="#5C69A5"/>
<path d="M558.725 51.9469C561.922 51.9469 564.514 49.3579 564.514 46.1641C564.514 42.9704 561.922 40.3813 558.725 40.3813C555.527 40.3813 552.936 42.9704 552.936 46.1641C552.936 49.3579 555.527 51.9469 558.725 51.9469Z" fill="#80BAFF"/>
<path d="M488.624 239.792H169.168C163.821 239.792 159.506 235.46 159.506 230.14V69.5055C159.506 64.1643 163.842 59.8535 169.168 59.8535H488.624C493.971 59.8535 498.286 64.1853 498.286 69.5055V230.14C498.307 235.46 493.971 239.792 488.624 239.792Z" fill="#511E84"/>
<path d="M367.011 199.607C366.632 199.586 366.358 199.355 366.274 199.039L348.549 130.761L319.603 150.422C319.435 150.527 319.224 150.569 319.035 150.527C318.845 150.485 318.656 150.359 318.551 150.191L289.563 104.559L218.409 156.163C218.093 156.394 217.672 156.352 217.419 156.079L181.59 117.975C181.316 117.681 181.316 117.197 181.632 116.924C181.927 116.651 182.411 116.651 182.685 116.966L218.072 154.607L289.331 102.94C289.5 102.814 289.71 102.772 289.921 102.814C290.131 102.856 290.299 102.982 290.405 103.151L319.414 148.803L348.591 128.973C348.801 128.826 349.054 128.805 349.286 128.889C349.517 128.973 349.686 129.163 349.749 129.394L367.221 196.642L388.083 150.906C388.189 150.695 388.378 150.548 388.589 150.485C388.82 150.443 389.052 150.485 389.241 150.632L444.059 195.149C444.375 195.402 444.438 195.885 444.164 196.201C443.891 196.516 443.428 196.579 443.112 196.306L389.052 152.399L367.706 199.187C367.579 199.439 367.306 199.607 367.011 199.607Z" fill="#FFAF45"/>
<path d="M379.179 208.145C378.8 208.124 378.526 207.893 378.442 207.577L355.538 111.793L297.226 156.184C297.057 156.31 296.847 156.373 296.636 156.331C296.426 156.289 296.257 156.184 296.131 155.995L257.944 97.5783L211.42 127.27C211.083 127.481 210.62 127.396 210.389 127.06L182.516 86.938C182.285 86.6016 182.369 86.139 182.706 85.8866C183.043 85.6553 183.506 85.7394 183.758 86.0759L211.231 125.609L257.775 95.9171C258.112 95.7068 258.575 95.7909 258.807 96.1484L296.952 154.502L355.538 109.901C355.749 109.754 356.001 109.712 356.254 109.796C356.485 109.88 356.675 110.09 356.738 110.321L379.368 204.907L406.777 135.513C406.862 135.282 407.072 135.114 407.325 135.051C407.577 134.988 407.83 135.072 407.998 135.24L467.49 192.899C467.784 193.194 467.784 193.656 467.511 193.951C467.216 194.245 466.753 194.245 466.458 193.972L407.767 137.09L379.895 207.64C379.768 207.956 379.474 208.145 379.179 208.145Z" fill="white"/>
<path d="M217.986 126.639C217.986 130.487 214.87 133.6 211.018 133.6C207.165 133.6 204.05 130.487 204.05 126.639C204.05 122.791 207.165 119.679 211.018 119.679C214.849 119.679 217.986 122.791 217.986 126.639Z" fill="#8758E7"/>
<path d="M265.143 96.5478C265.143 100.396 262.027 103.508 258.175 103.508C254.323 103.508 251.207 100.396 251.207 96.5478C251.207 92.6996 254.323 89.5874 258.175 89.5874C262.006 89.5874 265.143 92.6996 265.143 96.5478Z" fill="#8758E7"/>
<path d="M362.969 110.49C362.969 114.338 359.854 117.45 356.001 117.45C352.149 117.45 349.033 114.338 349.033 110.49C349.033 106.641 352.149 103.529 356.001 103.529C359.854 103.529 362.969 106.641 362.969 110.49Z" fill="#8758E7"/>
<path d="M414.439 135.787C414.439 139.635 411.323 142.747 407.471 142.747C403.619 142.747 400.503 139.635 400.503 135.787C400.503 131.938 403.619 128.826 407.471 128.826C411.302 128.826 414.439 131.938 414.439 135.787Z" fill="#8758E7"/>
<path d="M473.932 193.446C473.932 197.294 470.817 200.406 466.964 200.406C463.112 200.406 459.996 197.294 459.996 193.446C459.996 189.598 463.112 186.486 466.964 186.486C470.817 186.486 473.932 189.598 473.932 193.446Z" fill="#8758E7"/>
<path d="M303.729 155.595C303.729 159.443 300.613 162.556 296.761 162.556C292.909 162.556 289.793 159.443 289.793 155.595C289.793 151.747 292.909 148.635 296.761 148.635C300.613 148.614 303.729 151.747 303.729 155.595Z" fill="#8758E7"/>
<path d="M386.145 207.388C386.145 211.236 383.029 214.348 379.177 214.348C375.325 214.348 372.209 211.236 372.209 207.388C372.209 203.54 375.325 200.427 379.177 200.427C383.029 200.427 386.145 203.54 386.145 207.388Z" fill="#8758E7"/>
<path d="M215.987 70.9985H108.941C106.141 70.9985 103.867 68.7275 103.867 65.9307V13.6755C103.867 10.8787 106.141 8.60767 108.941 8.60767H215.987C218.787 8.60767 221.06 10.8787 221.06 13.6755V65.9307C221.06 68.7275 218.787 70.9985 215.987 70.9985ZM108.941 10.1007C106.962 10.1007 105.362 11.6988 105.362 13.6755V65.9307C105.362 67.9074 106.962 69.5055 108.941 69.5055H215.987C217.966 69.5055 219.566 67.9074 219.566 65.9307V13.6755C219.566 11.6988 217.966 10.1007 215.987 10.1007H108.941Z" fill="#8758E7"/>
<path d="M220.324 20.4467H104.625C104.204 20.4467 103.867 20.1102 103.867 19.6896C103.867 19.2691 104.204 18.9326 104.625 18.9326H220.324C220.745 18.9326 221.082 19.2691 221.082 19.6896C221.06 20.1102 220.724 20.4467 220.324 20.4467Z" fill="#8758E7"/>
<path d="M208.598 17.0819C208.346 17.0819 208.093 16.9558 207.946 16.7034C207.735 16.3459 207.862 15.8833 208.22 15.673L214.367 12.0351C214.724 11.8249 215.188 11.951 215.398 12.3085C215.609 12.666 215.482 13.1286 215.124 13.3389L208.977 16.9768C208.851 17.0609 208.725 17.0819 208.598 17.0819Z" fill="#8758E7"/>
<path d="M214.745 17.0819C214.619 17.0819 214.471 17.0399 214.366 16.9768L208.198 13.3389C207.84 13.1286 207.714 12.666 207.924 12.3085C208.135 11.951 208.598 11.8249 208.956 12.0351L215.103 15.673C215.461 15.8833 215.587 16.3459 215.377 16.7034C215.25 16.9558 214.998 17.0819 214.745 17.0819Z" fill="#8758E7"/>
<path d="M358.737 504.223H257.5C253.206 504.223 249.732 500.732 249.732 496.463V348.277C249.732 343.987 253.227 340.518 257.5 340.518H358.737C363.031 340.518 366.505 343.987 366.505 348.277V496.463C366.505 500.753 363.031 504.223 358.737 504.223ZM257.5 342.032C254.048 342.032 251.227 344.828 251.227 348.298V496.484C251.227 499.933 254.027 502.751 257.5 502.751H358.737C362.189 502.751 365.01 499.954 365.01 496.484V348.298C365.01 344.849 362.189 342.032 358.737 342.032H257.5Z" fill="white"/>
<path d="M244.134 515.515H345.371C349.244 515.515 352.381 512.381 352.381 508.512V360.326C352.381 356.457 349.244 353.324 345.371 353.324H244.134C240.261 353.324 237.124 356.457 237.124 360.326V508.512C237.103 512.36 240.261 515.515 244.134 515.515Z" fill="#AA216C"/>
<path d="M319.268 426.86C319.731 424.841 319.962 422.738 319.962 420.572C319.962 418.301 319.689 416.072 319.183 413.948L315.141 413.906L312.742 408.144L315.626 405.411C313.352 401.773 310.279 398.682 306.637 396.39L303.479 399.376L297.753 396.936L297.921 392.731C295.795 392.226 293.564 391.953 291.29 391.953C289.206 391.953 287.185 392.184 285.227 392.605V397.168L279.501 399.628L276.196 396.221C272.554 398.471 269.481 401.499 267.165 405.074L270.386 408.144L267.986 413.906L263.397 413.948C262.892 416.072 262.618 418.301 262.618 420.593C262.618 422.759 262.85 424.862 263.313 426.902L267.986 426.944L270.386 432.705L267.039 435.902C269.313 439.498 272.386 442.568 276.007 444.839L279.522 441.222L285.248 443.682V448.582C287.206 449.002 289.227 449.234 291.311 449.234C293.606 449.234 295.816 448.96 297.963 448.456L297.774 443.892L303.5 441.453L306.868 444.649C310.468 442.315 313.521 439.203 315.773 435.544L312.763 432.684L315.163 426.923L319.268 426.86ZM291.29 434.472C283.606 434.472 277.375 428.247 277.375 420.572C277.375 412.897 283.606 406.672 291.29 406.672C298.974 406.672 305.205 412.897 305.205 420.572C305.205 428.247 298.974 434.472 291.29 434.472Z" fill="white"/>
<path d="M324.594 468.201C325.184 467.129 325.668 465.993 326.026 464.774C326.405 463.491 326.615 462.187 326.7 460.904L324.426 460.21L324.026 456.551L326.11 455.479C325.436 453.04 324.194 450.79 322.531 448.876L320.258 450.033L317.416 447.699L318.216 445.343C317.1 444.713 315.879 444.187 314.595 443.808C313.416 443.472 312.237 443.262 311.058 443.177L310.3 445.764L306.659 446.206L305.353 443.745C302.932 444.418 300.68 445.617 298.764 447.257L300.069 449.528L297.754 452.388L295.143 451.652C294.512 452.766 293.986 453.986 293.607 455.269C293.249 456.488 293.038 457.729 292.954 458.949L295.586 459.748L295.986 463.407L293.565 464.647C294.259 467.066 295.48 469.295 297.143 471.187L299.733 469.715L302.554 472.07L301.733 474.846C302.764 475.414 303.88 475.876 305.059 476.213C306.343 476.591 307.648 476.802 308.953 476.886L309.606 474.278L313.248 473.858L314.616 476.213C317.037 475.498 319.289 474.236 321.163 472.533L319.942 470.409L322.258 467.549L324.594 468.201ZM307.501 467.865C303.143 466.582 300.659 462.04 301.943 457.687C303.227 453.355 307.774 450.853 312.132 452.136C316.469 453.418 318.974 457.96 317.69 462.313C316.426 466.666 311.858 469.147 307.501 467.865Z" fill="#8758E7"/>
<path d="M646.681 590.775V625.598H690.994V579.882L646.681 590.775Z" fill="#FC8165"/>
<path d="M531.339 577.759L522.034 611.32L564.79 623.138L576.978 579.062L531.339 577.759Z" fill="#FC8165"/>
<path d="M658.803 217.755C658.803 217.755 670.171 198.661 688.317 207.956C706.484 217.25 704.485 236.491 718.273 240.907C732.062 245.323 743.345 257.204 735.325 272.512C728.631 285.319 710.484 281.26 710.484 281.26C710.484 281.26 699.201 300.459 679.244 293.898C659.287 287.337 650.193 276.991 652.277 260.463C654.361 243.935 658.803 217.755 658.803 217.755Z" fill="black"/>
<path d="M626.366 245.512C626.366 245.512 615.587 229.783 637.418 217.376C659.248 204.991 675.142 221.981 675.331 231.108C675.521 240.234 670.3 244.482 670.3 244.482C670.3 244.482 672.342 264.269 653.291 262.902C634.26 261.557 626.366 245.512 626.366 245.512Z" fill="black"/>
<path d="M655.122 259.748L655.522 275.73C655.522 275.73 652.743 280.398 643.396 281.386C636.428 282.122 633.944 280.608 633.944 280.608L634.723 272.491L635.481 264.564L652.301 260.421L655.122 259.748Z" fill="#FC8165"/>
<path d="M655.056 258.991C655.035 259.433 654.867 259.959 654.635 260.547C651.246 268.622 638.742 272.05 634.721 272.512L635.479 264.585L655.056 258.991Z" fill="black"/>
<path d="M630.996 228.227C630.996 228.227 623.102 248.477 626.681 259.538C630.281 270.599 640.406 268.412 646.406 266.015C652.427 263.596 655.1 259.748 655.1 259.748C655.1 259.748 660.889 261.451 664.468 256.005C668.068 250.559 665.479 244.566 662.153 243.304C658.847 242.042 655.058 244.545 655.058 244.545L657.858 238.636C657.9 238.636 643.943 209.764 630.996 228.227Z" fill="#FC8165"/>
<path d="M629.734 254.365C629.376 254.365 629.06 254.113 628.997 253.734C627.881 246.942 630.534 243.325 630.66 243.178C630.913 242.841 631.376 242.778 631.713 243.031C632.049 243.283 632.113 243.746 631.86 244.082C631.839 244.124 629.481 247.362 630.492 253.482C630.555 253.881 630.281 254.281 629.881 254.344C629.818 254.365 629.776 254.365 629.734 254.365Z" fill="black"/>
<path d="M655.541 252.746C655.267 252.746 655.015 252.599 654.867 252.346C654.678 251.989 654.804 251.526 655.183 251.337L662.972 247.194C663.33 247.005 663.793 247.131 663.983 247.51C664.172 247.867 664.046 248.33 663.667 248.519L655.878 252.662C655.773 252.725 655.646 252.746 655.541 252.746Z" fill="black"/>
<path d="M662.803 254.155C662.634 254.155 662.445 254.092 662.319 253.965L658.572 250.685C658.256 250.412 658.235 249.928 658.487 249.634C658.761 249.318 659.245 249.297 659.54 249.571L663.287 252.851C663.603 253.124 663.624 253.587 663.371 253.902C663.224 254.071 663.013 254.155 662.803 254.155Z" fill="black"/>
<path d="M627.859 238.257C627.859 238.257 628.238 233.316 632.006 229.089C636.027 224.589 639.416 225.346 639.416 225.346C639.416 225.346 633.501 238.299 643.458 242.884C650.552 246.122 655.099 244.545 655.099 244.545L665.246 234.472L645.037 218.091C645.058 218.091 626.638 215.505 627.859 238.257Z" fill="black"/>
<path d="M634.72 258.465C634.405 258.465 634.11 258.276 634.005 257.961C633.878 257.561 634.068 257.141 634.468 257.014C634.489 257.014 636.468 256.3 637.731 254.155C637.941 253.797 638.404 253.692 638.762 253.881C639.12 254.092 639.246 254.554 639.036 254.912C637.478 257.54 635.057 258.402 634.952 258.444C634.889 258.444 634.805 258.465 634.72 258.465Z" fill="black"/>
<path d="M636.784 245.912C636.721 245.912 636.679 245.912 636.615 245.891C636.215 245.806 635.963 245.407 636.047 244.986L636.784 241.727L635.815 240.192C635.584 239.834 635.689 239.372 636.047 239.161C636.405 238.951 636.868 239.035 637.079 239.393L638.215 241.201C638.321 241.369 638.363 241.58 638.321 241.769L637.521 245.323C637.436 245.659 637.142 245.912 636.784 245.912Z" fill="black"/>
<path d="M626.829 245.827C626.766 245.827 626.723 245.827 626.66 245.806C626.26 245.722 626.008 245.323 626.092 244.902L626.829 241.643L625.86 240.108C625.629 239.75 625.734 239.288 626.092 239.077C626.45 238.846 626.913 238.951 627.123 239.309L628.26 241.117C628.366 241.285 628.408 241.496 628.365 241.685L627.566 245.239C627.481 245.575 627.166 245.827 626.829 245.827Z" fill="black"/>
<path d="M628.513 236.575C628.155 236.575 627.86 236.323 627.776 235.986C627.692 235.587 627.944 235.187 628.365 235.103L630.576 234.64C630.976 234.556 631.376 234.809 631.46 235.208C631.544 235.608 631.291 236.007 630.87 236.091L628.66 236.554C628.618 236.575 628.555 236.575 628.513 236.575Z" fill="black"/>
<path d="M550.285 268.959L514.266 291.038L474.374 237.269L510.961 214.622L550.285 268.959Z" fill="#8758E7"/>
<path d="M554.937 266.393L518.918 288.473L478.541 234.493L514.56 212.414L554.937 266.393Z" fill="#80BAFF"/>
<path d="M488.668 238.888C488.415 238.888 488.163 238.762 488.036 238.531C487.826 238.173 487.931 237.711 488.289 237.5L514.73 221.309C515.066 221.098 515.551 221.203 515.761 221.561C515.972 221.918 515.866 222.381 515.509 222.591L489.068 238.783C488.942 238.846 488.794 238.888 488.668 238.888Z" fill="white"/>
<path d="M492.943 244.461C492.691 244.461 492.438 244.335 492.312 244.103C492.101 243.746 492.207 243.283 492.564 243.073L519.005 226.881C519.342 226.671 519.826 226.776 520.037 227.133C520.247 227.491 520.142 227.953 519.784 228.164L493.343 244.356C493.217 244.419 493.091 244.461 492.943 244.461Z" fill="white"/>
<path d="M497.129 250.096C496.876 250.096 496.624 249.97 496.497 249.739C496.287 249.381 496.392 248.919 496.75 248.708L523.191 232.517C523.527 232.306 524.012 232.411 524.222 232.769C524.433 233.126 524.327 233.589 523.969 233.799L497.529 249.991C497.403 250.054 497.255 250.096 497.129 250.096Z" fill="white"/>
<path d="M501.318 255.711C501.066 255.711 500.813 255.585 500.687 255.353C500.476 254.996 500.582 254.533 500.939 254.323L527.38 238.131C527.717 237.921 528.201 238.026 528.412 238.383C528.622 238.741 528.517 239.203 528.159 239.414L501.718 255.606C501.592 255.69 501.466 255.711 501.318 255.711Z" fill="white"/>
<path d="M593.399 240.928L632.449 292.91L594.956 314.8L570.663 250.58L593.399 240.928Z" fill="#FC8165"/>
<path d="M639.902 237.479C639.817 237.479 639.733 237.458 639.649 237.437L634.997 235.818C634.597 235.692 634.386 235.25 634.533 234.851C634.66 234.451 635.102 234.262 635.481 234.388L640.133 236.007C640.533 236.133 640.744 236.575 640.596 236.975C640.491 237.29 640.217 237.479 639.902 237.479Z" fill="black"/>
<path d="M536.833 292.468C536.833 292.468 535.991 277.643 531.507 271.776C527.023 265.909 519.192 261.346 517.508 264.753C515.824 268.159 521.15 273.059 520.308 275.078C519.466 277.096 513.866 276.087 505.466 273.101C497.067 270.115 491.467 260.4 491.467 260.4C491.467 260.4 489.783 264.248 490.352 267.739C490.92 271.229 492.036 273.101 492.036 273.101C492.036 273.101 490.246 269.064 490.246 276.444C490.246 280.145 493.446 282.732 493.446 282.732C493.446 282.732 490.92 285.76 496.246 292.489C501.572 299.197 516.392 305.358 516.392 305.358C516.392 305.358 532.897 345.627 560.053 356.247C587.209 366.866 608.471 352.609 608.471 352.609L600.072 308.428C600.093 308.407 571 318.753 536.833 292.468Z" fill="#FC8165"/>
<path d="M505.319 281.512C505.277 281.512 505.214 281.512 505.172 281.491C498.52 280.103 491.194 272.554 490.899 272.239C490.605 271.944 490.626 271.461 490.92 271.187C491.215 270.893 491.699 270.914 491.973 271.208C492.036 271.293 499.278 278.737 505.467 280.04C505.867 280.124 506.141 280.524 506.056 280.923C505.993 281.281 505.677 281.512 505.319 281.512Z" fill="black"/>
<path d="M504.054 288.809C504.012 288.809 503.97 288.809 503.928 288.809C496.265 287.527 493.002 283.363 492.855 283.174C492.602 282.837 492.666 282.375 492.981 282.122C493.318 281.87 493.781 281.933 494.034 282.248C494.055 282.29 497.129 286.118 504.16 287.316C504.56 287.379 504.854 287.779 504.77 288.178C504.728 288.557 504.412 288.809 504.054 288.809Z" fill="black"/>
<path d="M709.6 483.846C709.516 486.622 709.39 489.377 709.285 492.153C707.032 544.997 700.085 598.408 700.085 598.408L626.679 600.974L642.931 469.442L587.734 602.74L511.822 598.051C511.822 598.051 528.306 530.571 557.967 476.634C587.607 422.696 623.69 374.121 623.69 374.121L689.117 349.013C689.117 349.013 699.054 361.125 707.516 418.722C708.779 427.364 709.495 437.416 709.811 448.33C709.832 448.834 709.832 449.381 709.853 449.907C710.106 460.673 709.979 472.155 709.6 483.846Z" fill="#FFAF45"/>
<path d="M667.33 247.068C667.162 247.068 666.993 247.026 666.867 246.9C666.53 246.648 666.488 246.164 666.741 245.848C678.614 230.918 663.036 217.881 662.362 217.334C662.046 217.061 662.004 216.598 662.257 216.283C662.509 215.967 662.994 215.925 663.309 216.178C663.478 216.325 680.719 230.708 667.92 246.795C667.772 246.984 667.562 247.068 667.33 247.068Z" fill="#EA366E"/>
<path d="M582.05 308.975C582.05 308.975 610.953 276.676 645.836 274.594C680.718 272.491 692.465 289.272 694.149 297.241C695.833 305.211 698.759 362.24 696.675 366.025C694.57 369.789 680.255 376.518 656.972 378.179C633.689 379.862 621.521 376.918 619.837 375.656C618.153 374.394 616.069 356.794 616.069 356.794L596.344 361.819L582.05 308.975Z" fill="#EA366E"/>
<path d="M655.119 261.683C655.119 261.683 645.309 283.763 655.519 292.51C665.729 301.258 680.949 295.601 680.949 295.601C680.949 295.601 686.085 298.882 695.895 295.559C705.705 292.237 710.505 283.153 710.505 283.153L655.119 261.683Z" fill="black"/>
<path d="M593.398 240.928C593.398 240.928 583.588 225.556 578.662 222.171C573.736 218.785 546.243 207.998 543.527 210.626C540.811 213.255 556.874 224.274 556.874 224.274C556.874 224.274 554.116 224.862 553.442 227.091C552.769 229.32 553.99 231.129 553.99 231.129C553.99 231.129 550.558 231.024 549.59 233.337C548.621 235.65 550.221 238.215 550.221 238.215C550.221 238.215 556.537 249.739 560.116 249.97C563.694 250.222 563.231 243.851 563.231 243.851C563.231 243.851 564.536 249.655 567.673 252.851C570.81 256.047 577.23 256.384 583.862 252.893C590.514 249.402 593.398 240.928 593.398 240.928Z" fill="#FC8165"/>
<path d="M585.734 251C578.197 250.201 575.692 242.379 575.061 239.876C572.556 240.381 567.145 241.201 565.693 239.351C565.356 238.909 565.061 238.131 565.651 236.953C567.861 232.538 577.187 228.437 577.587 228.269C577.966 228.101 578.408 228.269 578.576 228.647C578.745 229.026 578.576 229.467 578.197 229.636C578.113 229.678 568.977 233.694 566.998 237.626C566.872 237.9 566.745 238.257 566.872 238.425C567.587 239.33 571.882 239.056 575.461 238.257C575.671 238.215 575.861 238.257 576.05 238.362C576.219 238.468 576.345 238.657 576.366 238.846C576.387 238.951 578.218 248.687 585.797 249.486C586.218 249.528 586.513 249.907 586.471 250.306C586.428 250.727 586.113 251 585.734 251Z" fill="black"/>
<path d="M567.188 236.764C567.104 236.764 567.041 236.743 566.956 236.722C562.072 235.124 556.473 225.072 556.22 224.652C556.01 224.294 556.157 223.832 556.515 223.622C556.873 223.432 557.336 223.558 557.546 223.916C557.609 224.021 563.104 233.883 567.419 235.292C567.819 235.418 568.03 235.839 567.904 236.238C567.798 236.575 567.504 236.764 567.188 236.764Z" fill="black"/>
<path d="M565.379 245.176C560.706 245.176 554.053 232.916 553.317 231.486C553.127 231.129 553.253 230.666 553.632 230.477C553.99 230.288 554.453 230.414 554.643 230.792C557.316 235.86 562.705 243.788 565.442 243.683C566.453 243.641 567.168 243.304 567.61 242.736C568.453 241.643 568.074 239.898 568.074 239.876C567.989 239.477 568.242 239.077 568.642 238.972C569.042 238.888 569.442 239.14 569.547 239.54C569.568 239.645 570.074 241.979 568.81 243.62C568.095 244.566 566.979 245.091 565.526 245.155C565.463 245.176 565.421 245.176 565.379 245.176Z" fill="black"/>
<path d="M616.05 357.53C616.008 357.53 615.965 357.53 615.923 357.509C615.586 357.445 615.313 357.172 615.292 356.815C615.081 353.387 614.555 342.053 616.997 340.644C617.292 340.476 617.923 340.265 618.681 340.77C622.365 343.23 617.692 354.775 616.723 357.067C616.618 357.34 616.344 357.53 616.05 357.53ZM617.881 342.011C616.976 342.368 616.513 347.247 616.66 353.135C618.302 348.382 619.439 343.062 617.881 342.011Z" fill="#FFAF45"/>
<path d="M647.353 387.768C636.28 387.768 627.901 386.443 627.102 386.317C626.702 386.254 626.407 385.855 626.491 385.455C626.554 385.055 626.933 384.782 627.354 384.845C627.817 384.929 674.425 392.247 695.371 371.85C695.666 371.555 696.15 371.576 696.424 371.871C696.719 372.165 696.697 372.649 696.403 372.922C683.835 385.14 662.931 387.768 647.353 387.768Z" fill="white"/>
<path d="M642.554 470.199C642.427 470.199 642.301 470.157 642.175 470.094C641.817 469.884 641.69 469.421 641.901 469.063C642.006 468.874 652.806 450.727 680.741 440.108C681.141 439.96 681.562 440.15 681.709 440.549C681.857 440.928 681.667 441.369 681.267 441.516C653.858 451.925 643.29 469.631 643.185 469.821C643.08 470.052 642.827 470.199 642.554 470.199Z" fill="white"/>
<path d="M706.592 429.404C700.635 429.404 695.751 427.638 692.067 424.126C684.615 417.039 684.72 405.495 684.72 405.011C684.72 404.717 684.909 404.443 685.204 404.317L703.729 396.957C704.108 396.81 704.55 396.999 704.698 397.378C704.845 397.757 704.655 398.198 704.277 398.345L686.236 405.495C686.299 407.745 686.972 417.187 693.098 423.011C696.887 426.607 702.087 428.226 708.613 427.806C709.013 427.806 709.392 428.1 709.413 428.5C709.434 428.92 709.118 429.278 708.718 429.299C707.982 429.383 707.266 429.404 706.592 429.404Z" fill="white"/>
<path d="M629.627 436.28C628.806 436.28 627.964 436.217 627.101 436.07C623.501 435.481 620.828 433.715 619.186 430.813C613.755 421.203 621.186 402.404 621.502 401.605C621.649 401.247 622.049 401.058 622.428 401.163L650.447 409.848C650.826 409.953 651.037 410.332 650.953 410.71C650.91 410.983 645.5 436.28 629.627 436.28ZM622.659 402.803C621.396 406.189 615.944 422.023 620.491 430.056C621.902 432.558 624.217 434.072 627.333 434.577C642.321 436.974 648.342 415.168 649.332 411.046L622.659 402.803Z" fill="white"/>
<path d="M565.947 655.185C565.947 655.185 576.704 604.801 568.578 604.654C560.453 604.507 547.316 609.743 547.316 609.743C547.316 609.743 530.581 597.336 521.802 601.457C513.024 605.558 506.624 616.598 506.624 616.598L457.827 638.593C457.827 638.593 451.154 646.311 452.038 650.811C452.732 654.322 520.476 662.818 550.243 666.393C557.905 667.297 564.852 662.355 565.947 655.185Z" fill="#8758E7"/>
<path d="M501.697 632.032C501.613 632.032 501.55 632.011 501.465 631.99L486.287 627.175C485.887 627.049 485.677 626.628 485.803 626.229C485.929 625.829 486.35 625.619 486.75 625.745L500.265 630.035L497.171 623.6C497.045 623.327 497.087 623.032 497.276 622.801C497.466 622.57 497.76 622.465 498.055 622.549L515.507 627.049L506.097 617.06C505.802 616.766 505.823 616.282 506.118 616.009C506.412 615.714 506.897 615.736 507.17 616.03L518.37 627.911C518.601 628.163 518.643 628.521 518.475 628.815C518.307 629.109 517.97 629.236 517.633 629.152L499.234 624.399L502.371 630.939C502.497 631.212 502.455 631.528 502.265 631.759C502.118 631.948 501.908 632.032 501.697 632.032Z" fill="#50447E"/>
<path d="M641.985 610.457C641.985 610.457 613.039 657.687 618.028 663.533C623.017 669.358 658.3 670.178 674.404 667.591C690.508 665.026 696.676 663.091 697.897 659.159C699.118 655.227 691.477 606.693 691.477 606.693C691.477 606.693 684.382 598.724 674.657 600.763C664.931 602.824 649.711 610.331 649.711 610.331C649.711 610.331 645.921 603.876 641.985 610.457Z" fill="#8758E7"/>
<path d="M643.098 615C642.846 615 642.593 614.873 642.446 614.621C642.235 614.264 642.362 613.801 642.72 613.591L649.309 609.7C649.667 609.49 650.13 609.616 650.34 609.974C650.551 610.331 650.424 610.794 650.067 611.004L643.477 614.894C643.351 614.979 643.225 615 643.098 615Z" fill="#50447E"/>
<path d="M472.668 357.572H397.661C394.42 357.572 391.788 354.943 391.788 351.705V317.597C391.788 314.359 394.42 311.73 397.661 311.73H472.668C475.91 311.73 478.541 314.359 478.541 317.597V351.705C478.541 354.943 475.91 357.572 472.668 357.572Z" fill="white"/>
<path d="M439.912 315.073L467.342 295.496L460.627 315.073H439.912Z" fill="white"/>
<path d="M417.031 320.667H407.516V348.635H417.031V320.667Z" fill="#ADA4F7"/>
<path d="M432.289 325.693H422.773V348.613H432.289V325.693Z" fill="#FFAF45"/>
<path d="M462.794 325.693H453.278V348.613H462.794V325.693Z" fill="#80BAFF"/>
<path d="M447.554 334.63H438.039V348.613H447.554V334.63Z" fill="#8758E7"/>
<path d="M661.142 260.4C661.142 262.166 659.71 263.596 657.942 263.596C656.174 263.596 654.742 262.166 654.742 260.4C654.742 258.634 656.174 257.204 657.942 257.204C659.71 257.204 661.142 258.634 661.142 260.4Z" fill="white"/>
<path d="M596.324 362.555C596.114 362.555 595.882 362.471 595.735 362.282C595.461 361.966 595.524 361.483 595.84 361.23C595.882 361.209 599.271 358.371 598.934 354.754C598.871 353.997 598.556 353.408 598.008 352.966C596.471 351.705 593.545 351.978 593.524 351.999C593.208 352.02 592.914 351.873 592.766 351.578C592.619 351.305 592.682 350.969 592.893 350.737C592.935 350.695 596.787 346.511 596.787 341.653C596.787 337.09 588.893 335.408 588.809 335.408C588.556 335.366 588.346 335.176 588.261 334.945C588.177 334.714 588.198 334.44 588.367 334.23C588.409 334.188 591.651 329.793 592.661 325.566C593.524 321.866 586.072 319.006 586.009 318.985C585.756 318.879 585.567 318.669 585.525 318.396C585.483 318.122 585.588 317.849 585.819 317.681C586.998 316.798 590.261 313.833 589.777 311.961C589.356 310.426 584.977 309.816 582.072 309.774C581.63 309.795 581.314 309.438 581.314 309.038C581.314 308.597 581.609 308.281 582.178 308.281C583.798 308.281 590.409 308.471 591.23 311.583C591.882 314.022 589.251 316.735 587.714 318.08C590.072 319.174 595.061 321.971 594.135 325.924C593.335 329.31 591.272 332.674 590.219 334.23C592.661 334.924 598.303 337.048 598.303 341.674C598.303 345.48 596.324 348.782 595.04 350.527C596.24 350.611 597.819 350.906 598.977 351.852C599.84 352.567 600.324 353.513 600.45 354.67C600.85 359.107 596.956 362.303 596.808 362.45C596.661 362.492 596.492 362.555 596.324 362.555Z" fill="#FFAF45"/>
<path d="M619.018 527.038C616.955 527.038 607.524 526.576 605.777 518.122C604.135 510.258 608.451 503.36 609.882 501.342C607.251 499.008 596.199 488.304 600.872 476.592C605.293 465.51 617.082 467.381 621.06 468.369C620.176 464.795 618.597 454.848 626.008 448.645C627.755 447.173 629.776 446.605 632.007 446.984C640.112 448.288 648.343 461.472 648.701 462.04C648.911 462.397 648.806 462.86 648.448 463.07C648.09 463.281 647.627 463.176 647.417 462.818C647.333 462.692 639.186 449.654 631.755 448.456C629.965 448.161 628.386 448.603 626.955 449.802C618.619 456.762 622.787 469.084 622.829 469.211C622.913 469.484 622.85 469.778 622.66 469.989C622.45 470.199 622.155 470.262 621.881 470.157C621.271 469.947 607.04 465.152 602.262 477.159C597.42 489.314 611.208 500.543 611.356 500.648C611.672 500.9 611.735 501.384 611.482 501.699C611.419 501.783 605.482 509.354 607.251 517.807C608.956 525.987 618.934 525.545 619.334 525.524C619.776 525.545 620.113 525.819 620.134 526.239C620.155 526.66 619.839 527.017 619.418 527.038C619.397 527.017 619.25 527.038 619.018 527.038Z" fill="white"/>
<path d="M580.492 570.273C573.503 570.273 565.061 561.525 562.767 559.001C560.893 561.146 554.767 567.623 548.81 568.022C546.599 568.17 544.599 567.455 542.936 565.899C541.273 564.322 540.494 562.45 540.6 560.284C540.894 554.754 547.105 549.013 549.526 546.994C546.22 545.291 536.81 539.529 538.537 530.151C539.042 527.396 540.41 525.314 542.558 523.968C546.936 521.256 553.273 522.37 555.378 522.854C556.494 519.868 561.356 507.692 567.693 505.085C569.44 504.37 571.166 504.391 572.829 505.211C581.082 509.206 579.524 520.225 578.934 523.211C582.324 524.137 596.197 528.426 594.639 536.733C593.249 544.261 583.355 546.195 579.545 546.658C581.945 549.581 587.986 557.571 587.523 563.733C587.376 565.773 586.534 567.434 585.018 568.674C583.671 569.81 582.134 570.273 580.492 570.273ZM562.767 557.109C562.977 557.109 563.188 557.214 563.335 557.382C563.462 557.55 577.124 573.301 584.092 567.539C585.292 566.551 585.945 565.268 586.05 563.628C586.555 556.751 577.587 546.658 577.503 546.553C577.313 546.342 577.25 546.027 577.377 545.754C577.482 545.48 577.734 545.312 578.029 545.291C578.155 545.291 591.713 544.429 593.186 536.459C594.639 528.595 578.05 524.515 577.882 524.473C577.692 524.431 577.524 524.305 577.419 524.137C577.313 523.968 577.292 523.758 577.334 523.569C577.377 523.443 580.471 510.573 572.198 506.557C570.914 505.947 569.651 505.905 568.282 506.473C561.799 509.143 556.62 523.842 556.578 523.989C556.451 524.368 556.03 524.578 555.673 524.473C555.588 524.452 547.989 522.391 543.378 525.251C541.589 526.366 540.473 528.111 540.052 530.424C538.2 540.349 551.125 546.09 551.252 546.132C551.504 546.237 551.673 546.469 551.694 546.721C551.736 546.994 551.61 547.247 551.399 547.415C551.315 547.478 542.431 554.312 542.115 560.347C542.031 562.072 542.642 563.501 543.968 564.784C545.336 566.067 546.873 566.635 548.704 566.508C555.041 566.088 562.093 557.466 562.177 557.382C562.304 557.214 562.514 557.109 562.767 557.109C562.746 557.109 562.746 557.109 562.767 557.109Z" fill="white"/>
<path d="M685.015 454.659C691.962 452.788 697.814 463.323 697.877 463.428C698.003 463.68 698.277 463.806 698.572 463.806C698.867 463.785 699.098 463.596 699.224 463.365C699.288 463.239 703.961 452.157 709.687 449.949C709.729 449.928 709.792 449.907 709.834 449.907C709.813 449.381 709.813 448.834 709.792 448.33C709.561 448.393 709.35 448.456 709.119 448.561C704.024 450.538 699.94 458.318 698.446 461.451C696.53 458.486 691.183 451.463 684.615 453.208C677.31 455.164 679.099 467.844 679.668 471.061C676.952 471.776 667.563 474.783 667.521 482.963C667.5 484.645 668.153 486.075 669.416 487.211C673.942 491.311 685.52 490.575 688.467 490.344C688.909 492.258 690.488 497.725 694.319 500.206C695.583 501.005 696.972 501.405 698.467 501.405C699.246 501.405 700.066 501.3 700.93 501.068C705.771 499.744 708.129 495.853 709.266 492.173C709.371 489.398 709.498 486.643 709.582 483.867C709.455 483.867 709.308 483.909 709.203 483.972C708.971 484.099 708.845 484.372 708.845 484.624C708.845 484.751 709.182 497.304 700.53 499.618C698.509 500.143 696.719 499.933 695.14 498.924C691.078 496.337 689.814 489.461 689.793 489.377C689.751 489.019 689.415 488.767 689.057 488.767C688.825 488.767 675.036 490.26 670.405 486.096C669.437 485.255 668.995 484.225 668.995 482.984C669.037 474.846 680.573 472.407 680.678 472.386C680.889 472.344 681.036 472.239 681.141 472.049C681.247 471.902 681.289 471.671 681.247 471.482C681.268 471.334 678.173 456.489 685.015 454.659Z" fill="white"/>
<path d="M574.956 465.383C569.714 465.383 565.736 462.839 565.652 462.797C565.294 462.566 565.209 462.103 565.441 461.767C565.673 461.43 566.136 461.325 566.473 461.556C566.873 461.83 576.577 467.949 585.187 459.474C592.366 452.43 585.103 437.353 585.04 437.206C584.935 436.974 584.935 436.722 585.061 436.512C585.187 436.301 585.398 436.154 585.65 436.133C586.114 436.091 597.166 434.808 596.45 413.17C596.429 412.75 596.766 412.413 597.166 412.392C597.587 412.308 597.923 412.708 597.944 413.107C598.576 432.642 589.84 436.617 586.787 437.416C588.324 440.928 593.208 453.692 586.24 460.526C582.472 464.269 578.43 465.383 574.956 465.383Z" fill="white"/>
<path d="M642.046 562.366C637.289 562.366 632.299 558.938 632.005 558.749C631.668 558.518 631.584 558.055 631.815 557.698C632.047 557.361 632.51 557.277 632.868 557.508C632.952 557.571 641.036 563.102 645.541 559.821C648.256 557.845 647.73 550.485 647.309 547.814C647.267 547.604 647.33 547.373 647.477 547.204C647.625 547.036 647.814 546.931 648.067 546.952C648.825 546.994 666.108 547.141 666.634 534.293C667.161 521.319 649.519 517.239 649.351 517.197C649.098 517.134 648.888 516.966 648.804 516.713C648.72 516.482 648.762 516.209 648.909 515.999C650.151 514.4 653.246 509.69 652.656 507.209C652.53 506.641 652.214 506.241 651.667 505.989C647.709 504.055 640.552 510.447 638.131 513.076C637.857 513.37 637.373 513.391 637.078 513.118C636.783 512.844 636.762 512.361 637.036 512.066C637.415 511.646 646.572 501.826 652.34 504.643C653.288 505.106 653.919 505.884 654.151 506.872C654.824 509.795 652.13 514.127 650.783 516.02C654.824 517.197 668.655 522.139 668.15 534.335C667.624 546.889 652.74 548.277 648.93 548.424C649.246 550.99 649.835 558.56 646.446 561.02C645.12 562.008 643.604 562.366 642.046 562.366Z" fill="white"/>
<path d="M688.675 598.682C688.486 598.682 688.275 598.598 688.128 598.45C687.939 598.261 683.581 593.719 682.697 586.359C681.897 579.798 690.865 573.679 693.644 571.955C691.033 568.906 681.286 556.646 685.497 547.646C690.254 537.489 705.622 538.499 706.274 538.541C706.695 538.562 706.99 538.94 706.969 539.34C706.948 539.761 706.59 540.055 706.169 540.034C706.022 540.034 691.181 539.067 686.865 548.277C682.528 557.508 695.222 571.492 695.349 571.618C695.496 571.787 695.58 572.018 695.538 572.249C695.496 572.48 695.37 572.67 695.159 572.775C695.033 572.838 683.392 579.546 684.191 586.17C685.012 593.004 689.181 597.357 689.223 597.399C689.517 597.693 689.496 598.177 689.202 598.45C689.054 598.619 688.865 598.682 688.675 598.682Z" fill="white"/>
<path d="M148.033 598.009V620.004L190.283 618.448V598.009H148.033Z" fill="#FC8165"/>
<path d="M44.165 595.548V617.523L83.2575 615.967V595.548H44.165Z" fill="#FC8165"/>
<path d="M92.9625 653.86C92.9625 657.729 91.6363 662.187 88.8996 663.301C86.184 664.416 64.1221 666.75 44.839 665.11C26.3768 663.533 22.5455 662.187 21.1771 660.547C20.5035 659.706 21.8087 655.836 23.3033 652.072C23.4086 651.883 23.4718 651.673 23.556 651.484C24.3138 649.591 25.1138 647.762 25.6822 646.458C26.2505 645.217 26.9452 644.04 27.7662 642.883C29.7661 640.191 33.7238 634.598 34.7343 631.717C36.0605 627.869 38.1025 619.542 39.4498 615.651C40.8181 611.803 44.1443 611.004 44.1443 611.004C44.1443 611.004 82.121 608.46 84.8577 610.689C87.5523 612.897 88.9207 631.212 88.9207 633.967V636.722C88.9207 639.287 90.7311 644.397 91.8889 648.603C92.2047 649.654 92.4573 650.642 92.6468 651.547C92.8362 652.43 92.9625 653.208 92.9625 653.86Z" fill="#EA366E"/>
<path d="M261.415 661.767C258.889 662.797 151.064 665.678 148.579 661.767C147.822 660.589 147.274 656.594 146.937 651.547C146.053 639.687 146.053 622.065 146.053 622.065C146.053 622.065 145.253 616.051 145.422 613.254C145.548 610.5 197.419 611.551 197.419 611.551L230.785 633.126C230.785 633.126 240.385 635.965 250.489 637.584C255.836 638.425 259.289 644.839 261.015 650.895C262.489 656.278 262.615 661.283 261.415 661.767Z" fill="#EA366E"/>
<path d="M120.834 352.714C120.834 352.714 167.231 401.437 190.114 475.582C207.608 532.211 207.861 604.885 207.861 604.885H136.012C136.012 604.885 134.118 559.359 126.223 522.139C118.329 484.919 106.814 457.498 106.814 457.498L99.0669 604.906H27.3447C27.3447 604.906 40.5019 390.964 53.2801 359.023C63.6584 333.011 120.834 352.714 120.834 352.714Z" fill="#8758E7"/>
<path d="M74.0793 627.553C74.0372 627.553 74.0162 627.553 73.9741 627.553C73.8478 627.532 61.238 625.808 48.165 627.553C47.744 627.637 47.3651 627.322 47.323 626.901C47.2598 626.481 47.5545 626.102 47.9756 626.06C61.259 624.273 74.0583 626.039 74.2056 626.06C74.6267 626.123 74.9003 626.502 74.8372 626.901C74.774 627.28 74.4583 627.553 74.0793 627.553Z" fill="#FFAF45"/>
<path d="M48.0598 636.827C47.6809 636.827 47.3651 636.553 47.323 636.175C47.2598 635.754 47.5545 635.376 47.9756 635.334C61.259 633.546 74.0583 635.313 74.2056 635.334C74.6267 635.397 74.9003 635.775 74.8372 636.175C74.774 636.595 74.3951 636.89 73.9951 636.806C73.8688 636.785 61.259 635.06 48.1861 636.806C48.144 636.827 48.1019 636.827 48.0598 636.827Z" fill="#FFAF45"/>
<path d="M106.815 458.234C106.394 458.234 106.058 457.876 106.058 457.477L106.689 406.504C106.689 406.189 106.879 405.915 107.173 405.81L125.93 398.598C126.309 398.45 126.751 398.64 126.899 399.039C127.046 399.418 126.856 399.859 126.456 400.006L108.184 407.03L107.573 457.498C107.552 457.897 107.215 458.234 106.815 458.234Z" fill="#50447E"/>
<path d="M203.124 624.21C202.703 624.21 202.387 623.873 202.366 623.474C202.366 623.053 202.703 622.717 203.103 622.717L214.366 622.549C214.787 622.549 215.123 622.885 215.123 623.285C215.123 623.705 214.787 624.042 214.387 624.042L203.124 624.21Z" fill="#FFAF45"/>
<path d="M210.955 630.266C210.534 630.266 210.218 629.93 210.197 629.53C210.197 629.109 210.534 628.773 210.934 628.773L222.197 628.605C222.618 628.605 222.954 628.941 222.954 629.341C222.954 629.761 222.618 630.098 222.218 630.098L210.955 630.266Z" fill="#FFAF45"/>
<path d="M203.166 287.211C204.176 281.702 206.303 276.424 209.545 271.818C214.071 265.363 220.997 257.099 227.249 256.279C237.648 254.891 253.5 259.496 254.426 266.73C255.352 273.963 251.458 275.604 251.458 275.604C251.458 275.604 252.321 280.188 250.448 282.206C248.574 284.225 248.574 284.225 248.574 284.225C248.574 284.225 249.732 290.05 242.974 290.744C236.217 291.438 232.491 290.092 231.333 289.125C230.175 288.178 229.543 287.232 229.543 287.232C229.543 287.232 233.206 294.171 225.27 297.221C217.376 300.27 203.166 287.211 203.166 287.211Z" fill="#FC8165"/>
<path d="M248.512 276.487C245.334 276.487 240.176 276.066 235.482 273.858C231.019 271.755 228.766 269.61 228.998 267.676C229.103 266.751 229.819 265.51 232.619 264.921C234.471 264.522 235.987 264.606 237.313 264.69C239.544 264.816 241.292 264.921 243.986 263.029C244.323 262.797 244.786 262.86 245.039 263.218C245.27 263.554 245.186 264.017 244.849 264.269C241.713 266.456 239.544 266.33 237.229 266.204C235.924 266.12 234.576 266.057 232.934 266.393C231.482 266.709 230.555 267.255 230.492 267.865C230.387 268.748 231.798 270.473 236.113 272.512C243.039 275.772 251.312 274.868 251.396 274.868C251.796 274.825 252.175 275.12 252.238 275.519C252.281 275.94 251.986 276.297 251.586 276.361C251.438 276.361 250.281 276.487 248.512 276.487Z" fill="black"/>
<path d="M220.64 263.638C220.64 263.638 235.081 267.886 233.692 271.167C232.302 274.426 223.671 274.3 223.671 274.3C223.671 274.3 231.586 286.538 222.745 292.805L220.64 263.638Z" fill="#FC8165"/>
<path d="M222.745 293.562C222.514 293.562 222.282 293.456 222.135 293.246C221.903 292.91 221.966 292.447 222.303 292.195C230.471 286.391 223.124 274.825 223.04 274.699C222.892 274.468 222.871 274.174 223.019 273.921C223.145 273.69 223.398 273.543 223.671 273.543C226.808 273.543 232.134 272.891 232.997 270.872C233.039 270.788 233.06 270.662 232.955 270.43C232.008 268.433 224.766 265.657 220.429 264.374C220.029 264.248 219.798 263.849 219.924 263.449C220.051 263.05 220.472 262.818 220.85 262.944C222.071 263.302 232.787 266.54 234.323 269.8C234.597 270.367 234.618 270.935 234.387 271.482C233.144 274.384 227.587 274.952 224.955 275.057C226.703 278.358 230.871 287.989 223.166 293.456C223.04 293.52 222.892 293.562 222.745 293.562Z" fill="black"/>
<path d="M200.999 591.511C200.62 591.511 200.304 591.238 200.262 590.838C200.178 590.123 192.115 518.774 182.326 479.304C172.558 439.939 118.435 372.439 117.888 371.766C117.635 371.45 117.677 370.967 117.993 370.714C118.309 370.462 118.793 370.504 119.046 370.819C119.593 371.492 173.906 439.245 183.758 478.926C193.589 518.501 201.651 589.934 201.736 590.649C201.778 591.069 201.483 591.427 201.083 591.469C201.062 591.511 201.041 591.511 200.999 591.511Z" fill="#50447E"/>
<path d="M116.499 403.771C116.162 403.771 115.846 403.539 115.762 403.182L108.141 370.462C108.057 370.062 108.289 369.663 108.71 369.558C109.11 369.453 109.51 369.705 109.615 370.126L117.214 402.846C117.299 403.245 117.067 403.645 116.646 403.75C116.604 403.771 116.541 403.771 116.499 403.771Z" fill="#50447E"/>
<path d="M88.8154 591.511C88.3733 591.49 88.0365 591.132 88.0576 590.733L97.4886 371.261C97.5097 370.84 97.8886 370.462 98.2675 370.546C98.6885 370.567 99.0043 370.903 98.9833 371.324L89.5522 590.796C89.5312 591.195 89.2154 591.511 88.8154 591.511Z" fill="#50447E"/>
<path d="M71.9747 591.511C71.5115 591.49 71.1958 591.132 71.2168 590.712L84.3319 371.24C84.3529 370.819 84.7108 370.546 85.1318 370.546C85.5528 370.567 85.8686 370.924 85.8476 371.345L72.7325 590.817C72.7115 591.195 72.3746 591.511 71.9747 591.511Z" fill="#50447E"/>
<path d="M248.598 284.961C248.156 284.961 237.798 284.877 231.799 282.627C225.315 280.187 226.473 274.236 226.473 274.173C226.557 273.774 226.957 273.522 227.357 273.585C227.757 273.669 228.031 274.068 227.946 274.468C227.904 274.657 227.062 279.241 232.325 281.218C238.072 283.384 248.493 283.468 248.598 283.468C249.019 283.468 249.356 283.804 249.356 284.225C249.356 284.624 249.019 284.961 248.598 284.961Z" fill="black"/>
<path d="M233.782 265.469H239.739V242.296H233.782V265.469Z" fill="#8758E7"/>
<path d="M226.303 219.584C226.303 232.264 229.903 242.547 234.344 242.547C238.786 242.547 242.386 232.264 242.386 219.584C242.386 206.904 238.786 196.621 234.344 196.621C229.903 196.621 226.303 206.904 226.303 219.584Z" fill="white"/>
<path d="M152.284 591.511C151.884 591.511 151.547 591.195 151.526 590.796C151.484 589.744 146.811 485.613 106.518 439.498C106.245 439.182 106.287 438.72 106.582 438.446C106.897 438.173 107.381 438.215 107.634 438.53C148.263 485.066 152.958 589.702 153 590.754C153.021 591.174 152.705 591.511 152.284 591.532C152.305 591.511 152.305 591.511 152.284 591.511Z" fill="#50447E"/>
<path d="M56.9857 591.511C56.5226 591.49 56.2068 591.132 56.2279 590.712L70.2271 384.004C67.6378 386.906 61.9539 391.932 54.2069 391.196C53.7859 391.154 53.4912 390.796 53.5333 390.376C53.5754 389.955 53.9333 389.661 54.3543 389.703C63.9959 390.649 70.4376 381.333 70.5008 381.249C70.6902 380.976 71.0481 380.85 71.3639 380.955C71.6796 381.06 71.8901 381.375 71.8691 381.712L57.7225 590.796C57.7015 591.195 57.3857 591.511 56.9857 591.511Z" fill="#50447E"/>
<path d="M41.1124 591.511C40.6282 591.469 40.3335 591.111 40.3546 590.691L56.2273 390.46C56.2695 390.039 56.6063 389.766 57.0273 389.766C57.4483 389.808 57.7431 390.165 57.722 390.565L41.8492 590.796C41.8282 591.217 41.4914 591.511 41.1124 591.511Z" fill="#50447E"/>
<path d="M203.925 266.793L232.976 302.162C232.976 302.162 212.325 327.606 189.084 335.997C165.843 344.366 140.013 335.997 140.013 335.997V373.553H48.334C48.334 373.553 52.418 270.304 55.4283 269.295C77.0902 262.019 106.815 259.264 120.625 262.461C126.287 263.786 160.643 281.702 165.822 282.311C171.001 282.921 203.925 266.793 203.925 266.793Z" fill="#ADA4F7"/>
<path d="M81.6157 236.954C81.6157 236.954 87.2365 235.187 89.6995 231.739C92.1625 228.29 92.0993 220.152 92.0993 220.152C92.0993 220.152 102.772 224.862 105.446 224.105C108.119 223.327 112.667 210.857 108.751 205.832C104.835 200.806 97.9937 207.766 97.9937 207.766C97.9937 207.766 96.036 200.364 88.2048 202.614C79.0264 205.264 77.216 214.853 77.216 214.853C77.216 214.853 75.9318 204.654 69.7427 209.554C63.5536 214.453 66.6271 226.061 66.6271 226.061C66.6271 226.061 61.5958 228.626 62.9431 233.442C64.2904 238.257 71.5742 242.505 71.5742 242.505L81.6157 236.954Z" fill="black"/>
<path d="M81.6367 251.715L81.2578 267.255C81.2578 267.255 84.0577 271.776 93.4466 272.681C100.457 273.353 102.962 271.881 102.962 271.881L102.183 263.996L101.404 256.299L84.4787 252.388L81.6367 251.715Z" fill="#FC8165"/>
<path d="M84.4785 252.367C84.4996 252.788 84.668 253.292 84.8995 253.881C88.3099 261.704 98.1198 263.554 102.162 263.996L101.383 256.299L84.4785 252.367Z" fill="black"/>
<path d="M105.846 220.951C105.846 220.951 113.825 240.591 110.225 251.358C106.625 262.124 96.4362 260.064 90.3945 257.772C84.3317 255.458 81.6371 251.736 81.6371 251.736C81.6371 251.736 75.8269 253.419 72.206 248.141C68.5852 242.863 71.1745 237.038 74.5006 235.797C77.8268 234.556 81.6371 236.954 81.6371 236.954L78.8162 231.234C78.7951 231.234 92.7733 203.077 105.846 220.951Z" fill="#FC8165"/>
<path d="M80.8372 245.449C80.6898 245.449 80.5214 245.407 80.3951 245.302L73.2587 240.129C72.9218 239.876 72.8376 239.414 73.0902 239.077C73.3429 238.741 73.806 238.657 74.1428 238.909L81.2792 244.082C81.6161 244.334 81.7003 244.797 81.4477 245.134C81.3003 245.344 81.0687 245.449 80.8372 245.449Z" fill="black"/>
<path d="M90.9627 230.687C90.7943 230.687 90.6259 230.624 90.4786 230.519C90.1628 230.245 90.1207 229.783 90.3944 229.467C93.1942 226.103 96.5624 227.28 96.7098 227.343C97.1098 227.491 97.2992 227.911 97.1519 228.311C97.0045 228.689 96.5835 228.9 96.1835 228.752C96.0782 228.71 93.6363 227.911 91.5311 230.435C91.4048 230.582 91.1943 230.687 90.9627 230.687Z" fill="black"/>
<path d="M107.804 228.584C107.635 228.584 107.467 228.521 107.32 228.416C105.72 227.07 103.951 227.974 103.888 228.016C103.53 228.206 103.067 228.08 102.878 227.701C102.688 227.344 102.815 226.881 103.172 226.692C103.278 226.629 105.888 225.262 108.288 227.259C108.604 227.533 108.646 227.995 108.393 228.311C108.225 228.5 108.014 228.584 107.804 228.584Z" fill="black"/>
<path d="M107.404 236.049C107.067 236.049 106.772 235.818 106.667 235.481L105.741 231.907C105.635 231.507 105.888 231.087 106.288 231.002C106.688 230.897 107.109 231.15 107.193 231.549L108.12 235.124C108.225 235.523 107.972 235.944 107.572 236.028C107.53 236.049 107.467 236.049 107.404 236.049Z" fill="black"/>
<path d="M95.8052 236.785C95.4683 236.785 95.1736 236.554 95.0684 236.218L94.1421 232.643C94.0368 232.243 94.2895 231.823 94.6894 231.739C95.0894 231.633 95.5104 231.886 95.5946 232.285L96.5209 235.86C96.6262 236.26 96.3735 236.68 95.9736 236.764C95.9315 236.785 95.8683 236.785 95.8052 236.785Z" fill="black"/>
<path d="M99.2569 250.622C99.0675 250.622 98.857 250.601 98.6675 250.559C97.1728 250.222 95.9729 248.708 95.0887 246.017C94.9835 245.722 95.0887 245.407 95.3203 245.197C95.5729 245.007 95.9098 244.965 96.1624 245.133L101.657 248.267C101.846 248.372 101.994 248.582 102.036 248.813C102.078 249.045 101.994 249.276 101.846 249.444C101.783 249.486 100.709 250.622 99.2569 250.622ZM97.3623 247.531C97.8675 248.414 98.4149 248.961 98.9833 249.087C99.299 249.15 99.6359 249.087 99.9095 248.982L97.3623 247.531Z" fill="black"/>
<path d="M81.6158 236.953C81.6158 236.953 87.6575 235.502 89.6153 230.351C91.552 225.199 90.9416 220.741 90.9416 220.741C90.9416 220.741 94.2466 223.916 99.5726 223.012C104.899 222.107 106.014 216.514 106.014 216.514L100.73 211.068C100.73 211.068 80.8369 216.598 80.2895 216.009C79.7422 215.42 73.2373 228.942 73.2373 228.942L81.6158 236.953Z" fill="black"/>
<path d="M74.2686 245.743C74.0159 245.743 73.7633 245.617 73.637 245.386C73.4265 245.028 73.5318 244.566 73.8896 244.356L77.6368 242.042C77.9947 241.832 78.4578 241.937 78.6683 242.295C78.8788 242.652 78.7736 243.115 78.4157 243.325L74.6685 245.638C74.5212 245.701 74.3949 245.743 74.2686 245.743Z" fill="black"/>
<path d="M91.5524 241.285C90.4998 241.285 89.5104 240.907 88.7104 240.213C87.8473 239.456 87.3421 238.404 87.2579 237.269L87.0263 233.694C86.9842 233.147 87.1737 232.622 87.5315 232.201C87.8894 231.78 88.3946 231.549 88.942 231.507L96.8573 231.002C97.4046 230.96 97.9309 231.15 98.352 231.507C98.773 231.865 99.0046 232.369 99.0467 232.916L99.2782 236.491C99.3414 237.626 98.9625 238.741 98.2046 239.603C97.4468 240.465 96.3942 240.97 95.2574 241.054L91.805 241.264C91.7418 241.285 91.6366 241.285 91.5524 241.285ZM97.0047 232.495C96.9626 232.495 89.0472 233 89.0472 233C88.7315 233.021 88.4999 233.294 88.5209 233.589L88.7525 237.164C88.7946 237.9 89.1314 238.594 89.6998 239.077C90.2682 239.561 90.984 239.813 91.7208 239.771L95.1732 239.561C95.91 239.519 96.6047 239.182 97.0889 238.615C97.5731 238.047 97.8257 237.332 97.7836 236.596L97.552 233.021C97.552 232.874 97.4678 232.727 97.3625 232.643C97.2783 232.537 97.152 232.495 97.0047 232.495Z" fill="#EA366E"/>
<path d="M130.939 335.408H95.8459C92.9408 335.408 90.583 333.053 90.583 330.151V295.097C90.583 292.195 92.9408 289.84 95.8459 289.84H130.939C133.844 289.84 136.201 292.195 136.201 295.097V330.151C136.201 333.053 133.844 335.408 130.939 335.408Z" fill="white"/>
<path d="M106.035 296.695H97.0039V328.721H106.035V296.695Z" fill="#FFAF45"/>
<path d="M117.909 303.382H108.878V328.742H117.909V303.382Z" fill="#FFAF45"/>
<path d="M129.866 312.718H120.835V328.742H129.866V312.718Z" fill="#FFAF45"/>
<path d="M87.6366 236.449C87.5735 236.449 87.5314 236.449 87.4682 236.428C87.4051 236.407 81.237 235.061 75.7636 236.217C75.3636 236.302 74.9637 236.049 74.8795 235.65C74.7953 235.25 75.0479 234.851 75.4479 234.767C81.258 233.526 87.5524 234.914 87.805 234.977C88.205 235.061 88.4576 235.46 88.3734 235.881C88.2892 236.217 87.9735 236.449 87.6366 236.449Z" fill="#EA366E"/>
<path d="M101.572 243.514C101.488 243.514 101.404 243.493 101.341 243.472C100.941 243.346 100.73 242.904 100.857 242.526C102.667 237.143 100.457 234.998 100.373 234.893C100.078 234.619 100.057 234.136 100.33 233.841C100.604 233.547 101.067 233.505 101.383 233.778C101.509 233.883 104.414 236.596 102.288 242.989C102.183 243.325 101.888 243.514 101.572 243.514Z" fill="black"/>
<path d="M106.647 240.507C104.626 240.507 102.921 238.93 102.773 236.89L102.5 232.727C102.436 231.675 103.236 230.771 104.289 230.708L110.141 230.33C110.646 230.288 111.131 230.456 111.531 230.792C111.91 231.129 112.141 231.591 112.183 232.096L112.457 236.26C112.52 237.29 112.183 238.278 111.489 239.056C110.794 239.834 109.868 240.297 108.815 240.36L106.899 240.486C106.815 240.507 106.731 240.507 106.647 240.507ZM110.268 231.823C110.247 231.823 104.394 232.201 104.394 232.201C104.289 232.201 104.184 232.264 104.121 232.327C104.057 232.411 104.015 232.517 104.015 232.622L104.289 236.785C104.373 238.089 105.51 239.077 106.815 238.993L108.731 238.867C109.362 238.825 109.931 238.552 110.352 238.068C110.773 237.584 110.983 236.975 110.941 236.344L110.668 232.18C110.668 232.075 110.604 231.97 110.541 231.907C110.457 231.865 110.373 231.823 110.268 231.823Z" fill="#EA366E"/>
<path d="M98.0367 236.701C97.7841 236.701 97.5314 236.575 97.3841 236.344C97.1736 235.986 97.2788 235.524 97.6367 235.313C97.8051 235.208 101.594 232.937 103.889 234.746C104.205 234.998 104.268 235.482 104.015 235.797C103.763 236.133 103.278 236.176 102.963 235.923C101.742 234.956 99.2787 236.091 98.4156 236.596C98.3104 236.68 98.184 236.701 98.0367 236.701Z" fill="#EA366E"/>
<path d="M82.5208 329.331C82.5208 329.331 93.1097 323.884 100.036 323.106C106.983 322.328 110.267 329.331 110.267 329.331C110.267 329.331 116.477 331.286 123.424 332.064C130.371 332.842 135.844 333.62 135.844 335.955C135.844 338.289 130.371 339.845 130.371 339.845C130.371 339.845 139.128 341.022 135.844 344.513C132.56 348.025 126.708 349.181 126.708 349.181C126.708 349.181 134.013 351.137 124.161 354.628C114.287 358.139 92.6466 358.917 81.7419 350.737C70.8162 342.578 82.5208 329.331 82.5208 329.331Z" fill="#FC8165"/>
<path d="M55.4487 269.274C55.4487 269.274 -6.52668 297.83 0.567651 332.569C7.66198 367.329 89.6573 362.366 89.6573 362.366V317.996L60.1221 315.957L55.4487 269.274Z" fill="#ADA4F7"/>
<path d="M89.6574 318.753C89.5943 318.753 89.5521 318.753 89.489 318.732C89.3206 318.69 71.5532 314.716 54.3121 315.179C53.9331 315.179 53.5542 314.863 53.5332 314.443C53.5121 314.022 53.8489 313.686 54.27 313.664C71.7216 313.202 89.6364 317.197 89.8258 317.239C90.2258 317.323 90.4784 317.723 90.3942 318.144C90.31 318.501 89.9942 318.753 89.6574 318.753Z" fill="#8758E7"/>
<path d="M47.3235 316.041C44.1447 316.041 41.0291 315.641 39.4503 314.316C38.7135 313.686 38.3135 312.865 38.3135 311.94C38.3135 311.015 38.6924 310.279 39.4292 309.816C43.0921 307.44 55.8493 313.055 57.3019 313.686C57.5966 313.812 57.786 314.127 57.7439 314.464C57.7018 314.8 57.4492 315.052 57.1334 315.115C56.2914 315.263 51.7443 316.041 47.3235 316.041ZM41.9975 310.721C41.2396 310.721 40.6291 310.826 40.2292 311.099C40.0397 311.225 39.8081 311.436 39.8081 311.961C39.8081 312.445 39.9976 312.844 40.4186 313.181C42.629 315.031 49.7023 314.611 54.2284 314.043C50.1233 312.382 44.9236 310.721 41.9975 310.721Z" fill="#8758E7"/>
<path d="M89.9513 281.512C89.825 281.512 89.7198 281.512 89.5935 281.512C83.4885 281.218 79.8466 267.865 79.6993 267.297C79.6151 266.961 79.7624 266.624 80.0572 266.456C80.3519 266.288 80.7308 266.33 80.9624 266.582C84.2043 269.926 88.4356 271.797 93.488 272.134C98.4561 272.47 102.435 271.145 102.477 271.145C102.814 271.04 103.172 271.167 103.361 271.461C103.719 272.05 105.445 275.036 104.814 276.613C104.624 277.096 104.245 277.433 103.719 277.58C102.014 278.043 98.9824 276.403 97.4246 275.456C96.4773 277.98 94.0774 281.512 89.9513 281.512ZM81.9518 269.484C83.4254 273.711 86.2884 279.851 89.6566 280.019C94.6037 280.293 96.2036 274.363 96.2668 274.11C96.3089 273.921 96.4562 273.753 96.6246 273.648C95.6142 273.711 94.5195 273.711 93.3827 273.627C88.9619 273.332 85.1095 271.945 81.9518 269.484ZM97.2772 273.606C97.3193 273.627 97.3614 273.648 97.4035 273.669C99.214 274.867 102.245 276.424 103.319 276.108C103.593 275.54 103.066 274.026 102.351 272.723C101.466 272.996 99.635 273.417 97.2772 273.606Z" fill="#8758E7"/>
<path d="M163.317 295.181C162.833 295.181 162.412 294.97 162.117 294.613C160.601 292.615 164.054 284.456 165.148 282.017C165.296 281.702 165.632 281.533 165.969 281.575C166.306 281.639 166.559 281.912 166.601 282.248C166.832 285.15 167.274 294.634 163.59 295.16C163.506 295.16 163.401 295.181 163.317 295.181ZM165.211 285.76C163.675 289.734 162.833 293.12 163.317 293.688C164.58 293.498 165.211 289.882 165.211 285.76Z" fill="#8758E7"/>
<path d="M110.268 330.088C110.204 330.088 110.162 330.088 110.099 330.067L101.742 328.195C101.342 328.111 101.089 327.712 101.173 327.291C101.258 326.891 101.658 326.639 102.079 326.723L110.436 328.595C110.836 328.679 111.089 329.078 111.004 329.499C110.92 329.835 110.604 330.088 110.268 330.088Z" fill="black"/>
<path d="M124.329 341.043C120.939 341.043 116.329 340.686 110.961 339.361C110.561 339.256 110.308 338.856 110.414 338.457C110.519 338.057 110.94 337.805 111.319 337.91C122.266 340.623 130.139 339.13 130.202 339.109C130.602 339.025 131.002 339.298 131.086 339.698C131.17 340.097 130.897 340.497 130.497 340.581C130.328 340.623 128.076 341.043 124.329 341.043Z" fill="black"/>
<path d="M119.529 350.674C116.372 350.674 112.751 350.212 109.867 348.614C109.509 348.403 109.383 347.962 109.572 347.583C109.783 347.226 110.225 347.1 110.604 347.289C116.54 350.611 126.434 348.487 126.54 348.466C126.961 348.382 127.339 348.635 127.445 349.034C127.529 349.434 127.276 349.833 126.876 349.938C126.624 349.98 123.424 350.674 119.529 350.674Z" fill="black"/>
<path d="M237.881 243.304C232.955 243.304 229.081 232.895 229.081 219.584C229.081 206.294 232.933 195.864 237.881 195.864C242.807 195.864 246.68 206.273 246.68 219.584C246.68 232.895 242.828 243.304 237.881 243.304ZM237.881 197.378C234.365 197.378 230.597 206.315 230.597 219.584C230.597 232.874 234.365 241.79 237.881 241.79C241.396 241.79 245.164 232.853 245.164 219.584C245.185 206.294 241.417 197.378 237.881 197.378Z" fill="#80BAFF"/>
<path d="M235.312 236.386C235.123 236.386 234.933 236.323 234.786 236.175C234.575 235.965 232.723 233.925 231.923 226.734C231.881 226.313 232.176 225.956 232.597 225.914C233.018 225.85 233.375 226.166 233.418 226.586C234.133 233.252 235.839 235.124 235.86 235.145C236.133 235.439 236.133 235.923 235.839 236.196C235.691 236.323 235.502 236.386 235.312 236.386Z" fill="#8758E7"/>
<path d="M80.8157 363.333C64.6061 363.333 48.986 361.42 48.7965 361.399C48.3755 361.357 48.1018 360.978 48.1439 360.558C48.186 360.137 48.586 359.843 48.986 359.906C49.1965 359.927 70.9216 362.576 89.6363 361.609C90.0363 361.546 90.3941 361.903 90.4362 362.324C90.4573 362.745 90.1415 363.102 89.7205 363.123C86.7733 363.27 83.784 363.333 80.8157 363.333Z" fill="#8758E7"/>
<path d="M99.8038 591.511H28.25C27.829 591.511 27.4922 591.174 27.4922 590.754C27.4922 590.333 27.829 589.997 28.25 589.997H99.8038C100.225 589.997 100.562 590.333 100.562 590.754C100.562 591.174 100.225 591.511 99.8038 591.511Z" fill="#50447E"/>
<path d="M207.63 591.511H135.149C134.728 591.511 134.392 591.174 134.392 590.754C134.392 590.333 134.728 589.997 135.149 589.997H207.608C208.03 589.997 208.366 590.333 208.366 590.754C208.366 591.174 208.029 591.511 207.63 591.511Z" fill="#50447E"/>
<path d="M169.148 591.511C168.769 591.511 168.432 591.217 168.39 590.838C168.327 590.249 162.369 531.58 154.096 496.947C144.581 457.077 107.152 414.369 106.773 413.948C106.499 413.633 106.52 413.17 106.836 412.897C107.152 412.624 107.615 412.645 107.888 412.96C108.267 413.381 145.928 456.362 155.549 496.61C163.843 531.349 169.822 590.123 169.885 590.712C169.927 591.132 169.632 591.49 169.211 591.532C169.211 591.511 169.169 591.511 169.148 591.511Z" fill="#50447E"/>
<path d="M186.114 591.511C185.757 591.511 185.42 591.238 185.378 590.88C185.251 590.081 173.462 512.319 168.41 487.989C162.389 458.907 121.844 401.899 121.444 401.31C121.213 400.974 121.276 400.511 121.613 400.259C121.95 400.028 122.413 400.091 122.665 400.427C123.065 400.995 163.8 458.276 169.884 487.673C174.936 512.045 186.725 589.85 186.851 590.628C186.914 591.048 186.62 591.427 186.22 591.49C186.178 591.511 186.157 591.511 186.114 591.511Z" fill="#50447E"/>
<path d="M65.954 656.888C43.0711 656.888 23.4301 652.85 23.1565 652.787C22.7565 652.703 22.4828 652.304 22.567 651.904C22.6512 651.505 23.0512 651.231 23.4512 651.315C23.8301 651.399 61.2595 659.096 92.8156 653.124C93.2156 653.04 93.6156 653.313 93.6998 653.712C93.784 654.112 93.5103 654.512 93.1104 654.596C84.2056 656.278 74.8377 656.888 65.954 656.888Z" fill="#FFAF45"/>
<path d="M199.904 655.184C168.011 655.184 147.128 652.346 146.812 652.283C146.391 652.219 146.118 651.841 146.181 651.441C146.244 651.042 146.602 650.727 147.023 650.811C147.528 650.874 197.315 657.666 260.869 650.159C261.29 650.096 261.648 650.411 261.711 650.811C261.753 651.231 261.459 651.589 261.059 651.652C238.407 654.322 217.482 655.184 199.904 655.184Z" fill="#FFAF45"/>
</g>
<defs>
<clipPath id="clip0_101_1529">
<rect width="738" height="687.174" fill="white" transform="translate(0 0.996826)"/>
</clipPath>
</defs>
</svg>
