<svg width="92" height="95" viewBox="0 0 92 95" fill="none" xmlns="http://www.w3.org/2000/svg">
<rect y="19.7568" width="43.5903" height="59.8974" rx="3.76319" fill="#8758E7"/>
<path d="M29.0903 48.2499H80.7533C82.2686 48.2499 83.6352 48.8677 84.6281 49.8599V49.8693C85.6203 50.8622 86.2387 52.2288 86.2387 53.7347V88.7518C86.2387 90.2571 85.6203 91.6332 84.6281 92.6254C83.6352 93.6189 82.2686 94.2361 80.7533 94.2361H29.0903C27.5844 94.2361 26.2083 93.6189 25.2161 92.6254C24.2233 91.6332 23.6055 90.2659 23.6055 88.7518V53.7347C23.6055 52.2288 24.2233 50.8528 25.2161 49.8599C26.209 48.8677 27.5844 48.2499 29.0903 48.2499ZM80.7533 50.7574H29.0903C28.2718 50.7574 27.5317 51.0967 26.9923 51.6361C26.4523 52.1761 26.113 52.9162 26.113 53.7347V88.7518C26.113 89.5703 26.4523 90.3186 26.9923 90.8586C27.5311 91.3974 28.2718 91.7285 29.0903 91.7285H80.7533C81.5718 91.7285 82.32 91.398 82.86 90.8586C83.3994 90.3186 83.7312 89.5697 83.7312 88.7518V53.7347C83.7312 52.9162 83.4 52.168 82.86 51.628V51.6367C82.32 51.0974 81.5718 50.7574 80.7533 50.7574Z" fill="white"/>
<path d="M44.4491 37.7938H65.405C66.598 37.7938 67.6943 38.2812 68.4783 39.0733C69.2617 39.8655 69.7584 40.9543 69.7584 42.1466V49.503V50.7568H68.504H63.2111H61.958V49.503V45.4293H47.8968V49.5036V50.7574H46.6424H41.3495H40.0957V49.5036V42.1466C40.0957 40.9543 40.583 39.8567 41.3664 39.0733C42.1586 38.2812 43.248 37.7938 44.4491 37.7938ZM65.4044 40.3014H44.4491C43.9436 40.3014 43.4826 40.5096 43.1426 40.8495C42.8121 41.1807 42.6039 41.6417 42.6039 42.1466V48.2492H45.3893V44.1749V42.9218H46.643H63.2111H64.4655V44.1749V48.2498H67.2509V42.1472C67.2509 41.6417 67.042 41.1807 66.7115 40.8502H66.7021C66.3709 40.5102 65.9099 40.3014 65.4044 40.3014Z" fill="white"/>
<path d="M19.81 82.0044C20.4981 82.0044 21.0638 82.5607 21.0638 83.2576C21.0638 83.945 20.4981 84.5107 19.81 84.5107H9.72029C8.69294 84.5107 7.75277 84.0842 7.06473 83.4056V83.3968C6.38548 82.7175 5.95898 81.778 5.95898 80.7412V17.7172C5.95898 16.6899 6.38548 15.7497 7.06473 15.0623C7.74336 14.383 8.68353 13.9565 9.72029 13.9565H44.9883C45.5283 13.9565 46.0332 14.0613 46.5042 14.2701C46.9658 14.479 47.3835 14.7832 47.758 15.1752V15.184V15.1752L57.2218 25.3007C57.2475 25.327 57.2651 25.3527 57.2914 25.3791C57.595 25.7184 57.8132 26.0935 57.97 26.4848C58.1268 26.9119 58.214 27.3642 58.214 27.8433V33.9899C58.214 34.6861 57.6483 35.2437 56.9602 35.2437C56.264 35.2437 55.6977 34.6861 55.6977 33.9899V27.8433C55.6977 27.669 55.6808 27.5128 55.6281 27.3729C55.576 27.26 55.5152 27.1553 55.4368 27.0506C55.4192 27.0336 55.401 27.0248 55.3841 27.0073L45.9291 16.8818C45.798 16.7426 45.6506 16.6378 45.4938 16.5594C45.3464 16.4986 45.1808 16.4641 44.9889 16.4641H9.72029C9.38098 16.4641 9.06738 16.6033 8.84096 16.8385L8.83218 16.8297C8.60576 17.0555 8.46652 17.3779 8.46652 17.7172V80.7412C8.46652 81.0893 8.60576 81.4029 8.83218 81.6293L8.84096 81.6381C9.06738 81.8564 9.38035 82.0044 9.72029 82.0044H19.81Z" fill="white"/>
<path d="M50.3774 71.1043L28.8645 67.02C27.4107 66.7503 26.0691 66.115 25.1038 65.1485C24.18 64.2259 23.6055 63.016 23.6055 61.5615H26.113C26.113 62.3016 26.4097 62.9113 26.8794 63.3817C27.4803 63.9731 28.3596 64.3827 29.3261 64.5652L50.839 68.6482L50.3774 71.1043ZM86.2381 61.5615C86.2381 63.0154 85.6636 64.2171 84.7404 65.1397V65.1485C83.7739 66.115 82.4335 66.751 80.9885 67.02L59.4749 71.1382L59.0052 68.6834L80.5181 64.5652C81.4934 64.3739 82.3727 63.9737 82.9729 63.3817C83.4433 62.9113 83.7306 62.301 83.7306 61.5615H86.2381Z" fill="white"/>
<path d="M37.9103 25.1608C38.6065 25.1608 39.1641 25.7183 39.1641 26.4145C39.1641 27.1026 38.6065 27.6683 37.9103 27.6683H20.4115C19.7147 27.6683 19.1571 27.1026 19.1571 26.4145C19.1571 25.7183 19.7147 25.1608 20.4115 25.1608H37.9103ZM14.4381 25.1608C15.1349 25.1608 15.7013 25.7183 15.7013 26.4145C15.7013 27.1026 15.1355 27.6683 14.4381 27.6683H13.4985C12.8099 27.6683 12.2441 27.1026 12.2441 26.4145C12.2441 25.7183 12.8099 25.1608 13.4985 25.1608H14.4381Z" fill="white"/>
<path d="M29.6652 36.54C30.3532 36.54 30.919 37.1051 30.919 37.7938C30.919 38.49 30.3532 39.047 29.6652 39.047H20.4109C19.7147 39.047 19.1571 38.49 19.1571 37.7938C19.1571 37.1058 19.7147 36.54 20.4109 36.54H29.6652ZM14.4387 36.54C15.1349 36.54 15.7013 37.1051 15.7013 37.7938C15.7013 38.49 15.1355 39.047 14.4387 39.047H13.4985C12.8105 39.047 12.2441 38.49 12.2441 37.7938C12.2441 37.1058 12.8099 36.54 13.4985 36.54H14.4387Z" fill="white"/>
<path d="M37.9103 30.8545C38.6065 30.8545 39.1641 31.4121 39.1641 32.1083C39.1641 32.7957 38.6065 33.362 37.9103 33.362H20.4115C19.7147 33.362 19.1571 32.7963 19.1571 32.1083C19.1571 31.4121 19.7147 30.8545 20.4115 30.8545H37.9103ZM14.4381 30.8545C15.1349 30.8545 15.7013 31.4121 15.7013 32.1083C15.7013 32.7957 15.1355 33.362 14.4381 33.362H13.4985C12.8099 33.362 12.2441 32.7963 12.2441 32.1083C12.2441 31.4121 12.8099 30.8545 13.4985 30.8545H14.4381Z" fill="white"/>
<path d="M46.2769 14.4175L57.69 26.8066C58.1517 27.3115 58.1259 28.1036 57.6116 28.5734C57.3764 28.791 57.0729 28.9046 56.7674 28.9046H48.9061C47.5658 28.9046 46.3553 28.3558 45.476 27.4771C45.4503 27.4507 45.4233 27.425 45.3976 27.3987C44.5615 26.5275 44.0479 25.344 44.0479 24.0463V15.2103C44.0479 14.5223 44.6054 13.9565 45.3022 13.9565C45.693 13.9565 46.0417 14.1391 46.2769 14.4175ZM53.9124 26.3976L46.5554 18.4222V24.0469C46.5554 24.6735 46.7994 25.2392 47.1914 25.6569C47.2083 25.6745 47.2265 25.692 47.2441 25.7096C47.6705 26.1361 48.262 26.397 48.9061 26.397L53.9124 26.3976Z" fill="white"/>
<path d="M50.7869 61.5973H59.0659C59.7194 61.5973 60.3109 61.867 60.738 62.2929L60.7468 62.3016C61.1739 62.7294 61.443 63.3296 61.443 63.9825V73.1591C61.443 74.9522 60.7123 76.5804 59.5275 77.764C58.3528 78.9487 56.7158 79.68 54.922 79.68C53.1282 79.68 51.5 78.9487 50.3165 77.764C49.1405 76.5804 48.4004 74.9528 48.4004 73.1591V63.9825C48.4004 63.3296 48.6707 62.7281 49.106 62.3016V62.2929C49.5413 61.867 50.134 61.5973 50.7869 61.5973ZM58.9361 64.1048H50.9173V73.1591C50.9173 74.2554 51.3614 75.2658 52.0927 75.989C52.824 76.7203 53.8257 77.1725 54.922 77.1725C56.0284 77.1725 57.0288 76.7203 57.7601 75.989C58.4826 75.2664 58.9361 74.2554 58.9361 73.1591V64.1048Z" fill="white"/>
<path d="M54.9217 74.2466C55.6142 74.2466 56.1755 73.6852 56.1755 72.9928C56.1755 72.3003 55.6142 71.739 54.9217 71.739C54.2293 71.739 53.668 72.3003 53.668 72.9928C53.668 73.6852 54.2293 74.2466 54.9217 74.2466Z" fill="white"/>
<path d="M90.7447 26.5657C85.8952 26.5657 81.9639 30.4969 81.9639 35.3464C81.9639 36.0392 81.4022 36.6008 80.7095 36.6008C80.0168 36.6008 79.4551 36.0392 79.4551 35.3464C79.4551 30.4969 75.5238 26.5657 70.6743 26.5657C69.9816 26.5657 69.4199 26.004 69.4199 25.3113C69.4199 24.6185 69.9816 24.0569 70.6743 24.0569C75.5238 24.0569 79.4551 20.1256 79.4551 15.2761C79.4551 14.5833 80.0168 14.0217 80.7095 14.0217C81.4022 14.0217 81.9639 14.5833 81.9639 15.2761C81.9639 20.1256 85.8952 24.0569 90.7447 24.0569C91.4374 24.0569 91.9991 24.6185 91.9991 25.3113C91.9991 26.004 91.4376 26.5657 90.7447 26.5657ZM80.7095 20.4442C79.628 22.5296 77.928 24.2297 75.8424 25.3113C77.9279 26.3929 79.6279 28.0929 80.7095 30.1783C81.7911 28.0929 83.4911 26.3929 85.5766 25.3113C83.4911 24.2297 81.7911 22.5296 80.7095 20.4442Z" fill="white"/>
<path d="M73.1944 15.8198L69.7754 13.3127L71.2588 11.2897L74.6779 13.7967L73.1944 15.8198Z" fill="white"/>
<path d="M66.4785 11.2248L53.9385 2.02271L55.4227 0.000115999L67.9627 9.20217L66.4785 11.2248Z" fill="white"/>
<path d="M65.6966 17.9234L58.1719 12.9066L59.5635 10.8193L67.0883 15.8361L65.6966 17.9234Z" fill="white"/>
</svg>
