<svg width="92" height="92" viewBox="0 0 92 92" fill="none" xmlns="http://www.w3.org/2000/svg">
<rect x="64.9922" y="51.0275" width="8.77313" height="37.2411" rx="1.16818" fill="#8758E7"/>
<circle cx="40.4635" cy="34.0183" r="24.529" fill="#63F8F2"/>
<path d="M49.4099 72.1755H40.517C38.2736 72.1755 36.4482 74.0007 36.4482 76.2441V90.1665C36.4482 90.9081 37.0493 91.5094 37.7911 91.5094H52.1355C52.8773 91.5094 53.4783 90.9081 53.4783 90.1665V76.2441C53.4783 74.0007 51.6533 72.1755 49.4099 72.1755ZM50.7927 88.8239H39.1339V76.2443C39.1339 75.4818 39.7543 74.8614 40.517 74.8614H49.4099C50.1725 74.8614 50.7928 75.4818 50.7928 76.2443V88.8239H50.7927Z" fill="white"/>
<path d="M69.4461 37.1999C69.7161 35.5167 69.854 33.8025 69.854 32.0846C69.854 25.2638 67.7129 18.9346 64.0698 13.7301L66.2625 9.82269H84.4254C85.1672 9.82269 85.7682 9.22146 85.7682 8.47986C85.7682 7.73826 85.1672 7.13703 84.4254 7.13703H65.4762C64.9906 7.13703 64.5428 7.39915 64.3052 7.82277L62.2886 11.4164C56.3985 4.43974 47.5933 0 37.7692 0C29.8837 0 22.3043 2.88708 16.4268 8.12911C15.8734 8.62274 15.8249 9.47158 16.3185 10.025C16.8125 10.5786 17.6613 10.6271 18.2146 10.1333C23.5993 5.33066 30.5441 2.68565 37.7694 2.68565C47.1342 2.68565 55.4904 7.08726 60.878 13.9303L55.394 23.7025C55.0311 24.3492 55.2612 25.1678 55.9079 25.5307C56.1156 25.6473 56.3412 25.7028 56.5637 25.7028C57.0335 25.7028 57.4897 25.4557 57.7359 25.0169L62.5962 16.356C65.4899 20.9073 67.1683 26.3035 67.1683 32.0846C67.1683 33.7674 67.0233 35.4456 66.7413 37.0889H59.6125C57.3696 37.0889 55.5446 38.9137 55.5446 41.1567V55.5035C50.757 59.1485 45.1134 61.191 39.112 61.4558V32.0846C39.112 31.343 38.5109 30.7418 37.7692 30.7418H8.39977C8.6737 24.5404 10.846 18.7185 14.7236 13.8315C15.1846 13.2505 15.0872 12.4059 14.5064 11.9449C13.9254 11.4839 13.0807 11.5809 12.6198 12.1621C8.08286 17.8804 5.68457 24.7694 5.68457 32.0846C5.68457 32.8262 6.28562 33.4274 7.0274 33.4274H36.4263V62.8282C36.4263 63.5698 37.0274 64.171 37.7692 64.171C44.1913 64.171 50.2836 62.3231 55.5446 58.8029V90.1663C55.5446 90.9079 56.1457 91.5091 56.8874 91.5091H71.2304C71.9722 91.5091 72.5733 90.9079 72.5733 90.1663V80.0844C72.5733 79.3428 71.9722 78.7415 71.2304 78.7415C70.4887 78.7415 69.8876 79.3428 69.8876 80.0844V88.8235H58.2303V41.1567C58.2303 40.3945 58.8503 39.7745 59.6125 39.7745H68.5056C69.2678 39.7745 69.8878 40.3945 69.8878 41.1567V74.7131C69.8878 75.4547 70.4888 76.0559 71.2306 76.0559C71.9724 76.0559 72.5734 75.4547 72.5734 74.7131V41.1567C72.5734 39.2374 71.2369 37.6255 69.4461 37.1999Z" fill="white"/>
<path d="M87.6021 57.412H78.7092C76.4658 57.412 74.6406 59.2372 74.6406 61.4806V90.1664C74.6406 90.908 75.2417 91.5092 75.9835 91.5092H90.3281C91.0698 91.5092 91.6709 90.908 91.6709 90.1664V61.4806C91.6709 59.2372 89.8457 57.412 87.6021 57.412ZM88.9852 88.8237H77.3265V61.4806C77.3265 60.718 77.9468 60.0976 78.7094 60.0976H87.6023C88.365 60.0976 88.9854 60.718 88.9854 61.4806V88.8237H88.9852Z" fill="white"/>
<path d="M32.0846 36.4254H1.34283C0.601049 36.4254 0 37.0266 0 37.7682C0 51.6901 8.91297 63.5677 21.3312 67.9988L17.6152 76.0565H3.16818C2.4264 76.0565 1.82535 76.6577 1.82535 77.3993C1.82535 78.1409 2.4264 78.7422 3.16818 78.7422H18.4744C18.9983 78.7422 19.4744 78.4374 19.6939 77.9617L23.919 68.8004C26.5273 69.4874 29.2636 69.8548 32.0846 69.8548C32.8264 69.8548 33.4274 69.2536 33.4274 68.512V37.7684C33.4274 37.0266 32.8264 36.4254 32.0846 36.4254ZM30.7418 67.1389C28.7938 67.0508 26.895 66.771 25.0629 66.3201L26.6995 62.7713C27.01 62.0977 26.716 61.3001 26.0424 60.9895C25.3692 60.6788 24.5712 60.9732 24.2608 61.6464L22.4607 65.5497C11.3653 61.6944 3.26987 51.3686 2.71591 39.1109H30.7418V67.1389Z" fill="white"/>
<path d="M3.16802 72.961H14.324C15.0658 72.961 15.6669 72.3598 15.6669 71.6182C15.6669 70.8766 15.0658 70.2754 14.324 70.2754H3.16802C2.42624 70.2754 1.8252 70.8766 1.8252 71.6182C1.8252 72.3598 2.42642 72.961 3.16802 72.961Z" fill="white"/>
<path d="M71.1963 4.47594H84.4259C85.1676 4.47594 85.7687 3.87471 85.7687 3.13311C85.7687 2.39151 85.1676 1.79028 84.4259 1.79028H71.1963C70.4546 1.79028 69.8535 2.39151 69.8535 3.13311C69.8535 3.87471 70.4547 4.47594 71.1963 4.47594Z" fill="white"/>
<path d="M76.543 31.5114C76.543 32.253 77.144 32.8542 77.8858 32.8542H87.6419C88.3837 32.8542 88.9847 32.253 88.9847 31.5114C88.9847 30.7698 88.3837 30.1686 87.6419 30.1686H77.8858C77.144 30.1686 76.543 30.7696 76.543 31.5114Z" fill="white"/>
<path d="M87.6419 35.9559H77.8858C77.144 35.9559 76.543 36.5572 76.543 37.2988C76.543 38.0404 77.144 38.6416 77.8858 38.6416H87.6419C88.3837 38.6416 88.9847 38.0404 88.9847 37.2988C88.9847 36.5572 88.3837 35.9559 87.6419 35.9559Z" fill="white"/>
<path d="M87.6419 41.7432H77.8858C77.144 41.7432 76.543 42.3444 76.543 43.086C76.543 43.8276 77.144 44.4288 77.8858 44.4288H87.6419C88.3837 44.4288 88.9847 43.8276 88.9847 43.086C88.9847 42.3444 88.3837 41.7432 87.6419 41.7432Z" fill="white"/>
</svg>
