<svg width="92" height="92" viewBox="0 0 92 92" fill="none" xmlns="http://www.w3.org/2000/svg">
<g clip-path="url(#clip0_84_31952)">
<circle cx="16" cy="78" r="6" fill="#F03A9E"/>
<circle cx="46" cy="46" r="20" fill="#8758E7"/>
<path d="M16.123 70.8919C14.8396 70.8919 13.6059 71.2122 12.5113 71.8137C6.74558 64.4226 3.58086 55.2411 3.58086 45.835C3.58086 22.5356 22.5356 3.58086 45.835 3.58086C48.6675 3.58086 51.4986 3.86271 54.25 4.41872C55.218 4.61455 56.1635 3.9879 56.3594 3.01855C56.5552 2.0492 55.9285 1.10503 54.9592 0.908503C51.9749 0.305632 48.9053 0 45.835 0C33.5922 0 22.0817 4.76772 13.4247 13.4247C4.76772 22.0817 0 33.5922 0 45.835C0 56.1335 3.49693 66.1837 9.86345 74.2406C9.04377 75.4652 8.60315 76.9045 8.60315 78.4117C8.60315 80.4204 9.38577 82.3087 10.8062 83.7285C12.226 85.1489 14.1143 85.9315 16.123 85.9315C18.1316 85.9315 20.0199 85.1489 21.4404 83.7285C22.8608 82.3087 23.6428 80.4197 23.6428 78.411C23.6428 76.4031 22.8608 74.514 21.4404 73.0943C20.0199 71.6738 18.1316 70.8919 16.123 70.8919ZM18.9079 81.1967C18.1645 81.9408 17.1748 82.3507 16.123 82.3507C15.0711 82.3507 14.0821 81.9408 13.338 81.1967C12.5939 80.4525 12.184 79.4636 12.184 78.4117C12.184 77.3591 12.5939 76.3702 13.338 75.6261C14.0814 74.8819 15.0711 74.4728 16.123 74.4728C17.1748 74.4728 18.1638 74.8826 18.9079 75.6261C19.6521 76.3702 20.0619 77.3591 20.0619 78.4117C20.0619 79.4636 19.6521 80.4525 18.9079 81.1967Z" fill="white"/>
<path d="M81.8054 17.4274C83.7518 14.5074 83.4392 10.5153 80.8648 7.94089C79.4443 6.52114 77.556 5.73853 75.5473 5.73853C73.5387 5.73853 71.6504 6.52114 70.2299 7.94089C68.8094 9.36135 68.0275 11.2497 68.0275 13.2583C68.0275 15.267 68.8094 17.1553 70.2299 18.5758C71.6504 19.9962 73.5387 20.7781 75.5473 20.7781C76.8307 20.7781 78.0644 20.4578 79.159 19.8563C84.9247 27.2482 88.0894 36.429 88.0894 45.8351C88.0894 69.1344 69.1347 88.0892 45.8353 88.0892C43.0308 88.0892 40.2262 87.8129 37.5007 87.2674C36.5314 87.0737 35.5879 87.7024 35.3935 88.6718C35.1997 89.6418 35.8285 90.5846 36.7978 90.779C39.7541 91.37 42.7951 91.6701 45.8353 91.6701C58.0781 91.6701 69.5886 86.9023 78.2456 78.2453C86.9026 69.5883 91.6703 58.0778 91.6703 45.8351C91.6703 35.5359 88.1727 25.485 81.8054 17.4274ZM72.7624 16.044C72.0182 15.2998 71.6084 14.3109 71.6084 13.2583C71.6084 12.2065 72.0182 11.2175 72.7624 10.4734C73.5058 9.72923 74.4955 9.31938 75.5473 9.31938C76.5992 9.31938 77.5888 9.72923 78.333 10.4734C79.8681 12.0092 79.8681 14.5081 78.333 16.044C77.5888 16.7874 76.5992 17.1973 75.5473 17.1973C74.4948 17.1973 73.5058 16.7874 72.7624 16.044Z" fill="white"/>
<path d="M38.4464 76.6304C38.4464 77.6193 39.2486 78.4208 40.2368 78.4208H51.4319C52.4208 78.4208 53.2223 77.6193 53.2223 76.6304V73.1593C55.5765 72.5257 57.8271 71.5927 59.942 70.3743L62.3927 72.825C62.7284 73.1607 63.1837 73.3495 63.6593 73.3495C64.1335 73.3495 64.5895 73.1607 64.9252 72.8243L72.838 64.9058C73.5367 64.2065 73.5367 63.0727 72.838 62.3741L70.3902 59.9262C71.6085 57.8113 72.5415 55.5606 73.1751 53.2065H76.6329C77.6218 53.2065 78.4233 52.405 78.4233 51.4161V40.221C78.4233 39.2321 77.6218 38.4306 76.6329 38.4306H73.1744C72.5408 36.0771 71.6085 33.8265 70.3902 31.7116L72.8247 29.277C73.1604 28.9413 73.3493 28.4853 73.3493 28.0104C73.3486 27.5355 73.1597 27.0795 72.824 26.7438L64.9049 18.8309C64.2062 18.1323 63.0725 18.1323 62.3731 18.8316L59.942 21.2634C57.8271 20.0451 55.5765 19.1121 53.2223 18.4785V15.0396C53.2223 14.0506 52.4208 13.2491 51.4319 13.2491H40.2368C39.2486 13.2491 38.4464 14.0506 38.4464 15.0396V18.4792C36.093 19.1121 33.8423 20.0451 31.7274 21.2634L29.2956 18.8316C28.5969 18.133 27.4632 18.1323 26.7638 18.8309L18.8454 26.7445C18.509 27.0802 18.3201 27.5355 18.3201 28.0104C18.3201 28.4853 18.509 28.9413 18.8447 29.277L21.2792 31.7116C20.0609 33.8265 19.1279 36.0764 18.4943 38.4306H15.0428C14.0539 38.4306 13.2524 39.2321 13.2524 40.2203L13.2461 51.4154C13.2454 51.8903 13.4342 52.3463 13.7699 52.682C14.1056 53.0177 14.5609 53.2065 15.0365 53.2065H18.4943C19.1279 55.5606 20.0609 57.8113 21.2792 59.9262L18.8314 62.3741C18.1327 63.0727 18.132 64.2065 18.8314 64.9058L26.7443 72.8243C27.08 73.16 27.5353 73.3495 28.0101 73.3495H28.0108C28.4857 73.3495 28.941 73.1607 29.2767 72.825L31.7267 70.3743C33.8423 71.5927 36.093 72.5257 38.4464 73.1593V76.6304ZM32.4289 66.6088C31.7204 66.1507 30.7881 66.2501 30.1908 66.8466L28.0108 69.0266L22.6291 63.6406L24.807 61.4621C25.4035 60.8655 25.5028 59.9332 25.0447 59.2247C23.4215 56.7125 22.2801 53.959 21.6534 51.0398C21.4758 50.2152 20.747 49.6256 19.9029 49.6256H16.8277L16.8319 42.0114H19.9029C20.747 42.0114 21.4758 41.4225 21.6534 40.5973C22.2801 37.6787 23.4215 34.9252 25.0447 32.413C25.5028 31.7046 25.4035 30.7723 24.807 30.1757L22.6431 28.0111L28.029 22.6293L30.1908 24.7918C30.7881 25.3884 31.7197 25.487 32.4289 25.0296C34.9404 23.4063 37.6939 22.2649 40.6131 21.6383C41.4377 21.4606 42.0273 20.7312 42.0273 19.8877V16.83H49.6415V19.887C49.6415 20.7312 50.2304 21.4606 51.0556 21.6376C53.9742 22.2649 56.7284 23.4056 59.2398 25.0289C59.9483 25.487 60.8806 25.3884 61.4772 24.7911L63.6397 22.6293L69.0257 28.0111L66.8618 30.175C66.2645 30.7723 66.1659 31.7046 66.624 32.413C68.2472 34.9252 69.3879 37.6787 70.0153 40.5973C70.1922 41.4225 70.9217 42.0114 71.7659 42.0114H74.8425V49.6256H71.7659C70.9217 49.6256 70.1929 50.2152 70.0153 51.0398C69.3886 53.9583 68.2472 56.7125 66.624 59.224C66.1659 59.9332 66.2652 60.8655 66.8618 61.4621L69.0397 63.6399L63.6579 69.0259L61.4779 66.8466C60.8806 66.2494 59.9483 66.1507 59.2398 66.6088C56.7277 68.2321 53.9742 69.3728 51.0556 70.0002C50.2304 70.1778 49.6415 70.9066 49.6415 71.7507V74.8399H42.0273V71.7507C42.0273 70.9073 41.4377 70.1778 40.6131 70.0002C37.6946 69.3735 34.9411 68.2321 32.4289 66.6088Z" fill="white"/>
<path d="M60.6293 45.835C60.6293 37.6774 53.9928 31.0409 45.8351 31.0409C37.6775 31.0409 31.041 37.6774 31.041 45.835C31.041 53.9927 37.6775 60.6291 45.8351 60.6291C53.9928 60.6291 60.6293 53.9927 60.6293 45.835ZM34.6219 45.835C34.6219 39.6517 39.6519 34.6218 45.8351 34.6218C52.0184 34.6218 57.0484 39.6524 57.0484 45.835C57.0484 52.0176 52.0184 57.0483 45.8351 57.0483C39.6519 57.0483 34.6219 52.0183 34.6219 45.835Z" fill="white"/>
<path d="M62.3207 6.77143C62.7921 6.77143 63.2537 6.5798 63.5866 6.24689C63.9195 5.91189 64.1111 5.45029 64.1111 4.97891C64.1111 4.51032 63.9202 4.04802 63.5866 3.71302C63.2537 3.38011 62.7921 3.18848 62.3207 3.18848C61.8479 3.18848 61.3884 3.38011 61.0555 3.71302C60.7219 4.04802 60.5303 4.50822 60.5303 4.97891C60.5303 5.45169 60.7219 5.91189 61.0555 6.24689C61.3884 6.5798 61.8479 6.77143 62.3207 6.77143Z" fill="white"/>
<path d="M29.4271 84.9307C28.9565 84.9307 28.4942 85.1223 28.1613 85.4552C27.8284 85.7881 27.6367 86.2504 27.6367 86.7211C27.6367 87.1939 27.8284 87.6541 28.1613 87.987C28.4942 88.3199 28.9565 88.5115 29.4271 88.5115C29.8978 88.5115 30.3601 88.3199 30.693 87.987C31.0259 87.6541 31.2176 87.1918 31.2176 86.7211C31.2176 86.2504 31.0259 85.7881 30.693 85.4552C30.3601 85.1223 29.8978 84.9307 29.4271 84.9307Z" fill="white"/>
<circle cx="76" cy="13" r="6" fill="#F03A9E"/>
</g>
<defs>
<clipPath id="clip0_84_31952">
<rect width="91.67" height="91.67" fill="white"/>
</clipPath>
</defs>
</svg>
