<svg width="96" height="96" viewBox="0 0 96 96" fill="none" xmlns="http://www.w3.org/2000/svg">
<g clip-path="url(#clip0_84_31942)">
<rect x="5" y="15" width="24" height="24" fill="#F03A9E"/>
<circle cx="79" cy="18" r="9" fill="#63F8F2"/>
<path d="M36.6367 49.321C37.1282 49.321 37.5839 49.0636 37.8373 48.6424L40.3656 44.4428L43.7159 49.7667C43.9779 50.1832 44.4357 50.4304 44.9314 50.4214C45.4234 50.4112 45.8739 50.1436 46.1183 49.7164L51.5119 40.2922L58.7559 53.4935C58.9977 53.9341 59.457 54.2116 59.9596 54.2206C59.9679 54.2206 59.9763 54.2208 59.9845 54.2208C60.4776 54.2208 60.9354 53.9612 61.1884 53.5365L65.7015 45.9603H76.5844C77.3583 45.9603 77.9858 45.3328 77.9858 44.5588C77.9858 43.7849 77.3583 43.1574 76.5844 43.1574H64.9052C64.4113 43.1574 63.9539 43.4173 63.7012 43.8417L60.0344 49.9971L52.7663 36.7517C52.5222 36.3071 52.0573 36.0291 51.5502 36.0244C51.5459 36.0244 51.5418 36.0244 51.5375 36.0244C51.0352 36.0244 50.5711 36.2933 50.3213 36.7296L44.8449 46.2985L41.5252 41.0234C41.2685 40.6155 40.8206 40.3684 40.3391 40.3684C40.3346 40.3684 40.3299 40.3684 40.3253 40.3684C39.8387 40.3731 39.3895 40.63 39.1385 41.0469L35.8446 46.5182H27.8799C27.106 46.5182 26.4785 47.1457 26.4785 47.9196C26.4785 48.6936 27.106 49.321 27.8799 49.321H36.6367Z" fill="white"/>
<path d="M79.0575 10.4255C78.2836 10.4255 77.6561 11.053 77.6561 11.827V15.9609H73.5225C72.7486 15.9609 72.1211 16.5884 72.1211 17.3624C72.1211 18.1363 72.7486 18.7638 73.5225 18.7638H77.6561V22.898C77.6561 23.6719 78.2836 24.2994 79.0575 24.2994C79.8315 24.2994 80.459 23.6719 80.459 22.898V18.7638H84.5926C85.3665 18.7638 85.994 18.1363 85.994 17.3624C85.994 16.5884 85.3665 15.9609 84.5926 15.9609H80.459V11.827C80.459 11.053 79.8315 10.4255 79.0575 10.4255Z" fill="white"/>
<path d="M84.0027 58.4409C90.8303 51.1418 92.787 40.1044 89.034 30.642C93.0613 27.6068 95.67 22.7838 95.67 17.3624C95.67 8.20181 88.2178 0.749268 79.0578 0.749268C75.2951 0.749268 71.6105 2.04063 68.6825 4.38547C68.0784 4.86924 67.9808 5.7512 68.4646 6.35531C68.9484 6.95922 69.8303 7.05695 70.4344 6.57318C72.9024 4.59662 75.8842 3.5521 79.0576 3.5521C86.672 3.5521 92.867 9.74748 92.867 17.3624C92.867 24.9805 86.6722 31.1781 79.0576 31.1781C71.9678 31.1781 66.1111 25.8083 65.3335 18.9225C65.332 18.9066 65.3293 18.8905 65.3273 18.8744C65.2729 18.3776 65.2428 17.8734 65.2428 17.3624C65.2428 15.1994 65.7288 13.1309 66.687 11.2141C67.0331 10.5218 66.7524 9.68003 66.0603 9.33378C65.3675 8.98791 64.5262 9.26838 64.18 9.96049C63.0254 12.2698 62.44 14.7603 62.44 17.3622C62.44 17.5977 62.4462 17.8316 62.4559 18.0648C58.9172 19.3296 55.6142 21.4099 52.8461 24.1322L51.2971 25.655C51.2896 25.6476 51.284 25.642 51.2765 25.6345L49.7536 24.134C44.8263 19.2758 38.376 16.5608 32.0547 16.6916C26.7947 16.8 22.1401 18.861 18.5955 22.6504C18.0667 23.2166 18.0966 24.1041 18.6628 24.6329C19.2289 25.1599 20.1146 25.1318 20.6434 24.5657C23.6593 21.3406 27.6243 19.586 32.1126 19.4944C37.6809 19.3804 43.3931 21.8002 47.786 26.1297L49.3108 27.632C50.047 28.357 50.6748 28.7176 51.3008 28.7176C51.9212 28.7176 52.5396 28.3626 53.2628 27.6525L54.8118 26.1297C57.1395 23.8418 59.8849 22.0603 62.8242 20.9177C64.4567 28.3785 71.1146 33.9808 79.0574 33.9808C81.7767 33.9808 84.3454 33.3238 86.6133 32.16C89.7187 40.5127 87.9357 50.1217 81.9656 56.514L61.8473 77.1077L60.1824 77.4329C59.7788 77.5114 59.4219 77.5824 59.0968 77.6478C56.9853 78.0757 56.4808 78.1766 54.0087 77.7954L42.0219 75.6036C40.3888 75.0393 40.5532 73.7387 40.6448 73.3482C40.7887 72.7409 41.353 71.7599 42.5657 71.9431C42.5769 71.9449 42.5881 71.9468 42.5993 71.9487C43.1393 72.0178 43.7186 72.0926 44.324 72.1692C46.5943 72.4625 49.1654 72.7933 51.4488 73.0268C56.1202 73.4996 58.7623 71.048 59.3117 68.4059C59.8704 65.7133 58.3363 62.1332 53.6462 60.6364C53.5901 60.6196 53.5322 60.6047 53.4724 60.5935L45.7534 59.1771C41.5641 58.4091 38.3054 59.0015 33.3724 59.8984C32.0681 60.1357 30.5882 60.4029 28.9402 60.6738L25.2815 61.2755L24.1548 60.1226L20.6326 56.5163C14.0497 49.4587 12.5903 38.4044 17.0898 29.6278C17.443 28.9402 17.1701 28.0956 16.4825 27.7424C15.793 27.3893 14.9484 27.6602 14.5953 28.3497C9.56513 38.1633 11.2095 50.5369 18.5959 58.4409C18.6033 58.4484 18.6108 58.4558 18.6164 58.4633L21.9051 61.8304L15.7803 62.8372V62.6773C15.7803 61.5952 14.8257 60.7149 13.6522 60.7149H2.12268C0.952215 60.7149 0 61.5952 0 62.6773V87.3357C0 88.4177 0.952215 89.298 2.12268 89.298H13.6524C14.8259 89.298 15.7805 88.4177 15.7805 87.3357V87.1658L28.3833 90.595L40.017 93.7566C42.6722 94.5806 44.8117 94.9207 46.7643 94.9207C49.8549 94.9207 52.4802 94.0724 55.9483 92.9512C56.2566 92.8522 56.5724 92.7494 56.8975 92.6448L79.8228 85.2939C82.4799 84.4418 84.3708 82.5284 84.8791 80.1759C85.2734 78.3522 84.724 76.5509 83.4085 75.3569C82.3435 74.3909 79.8396 73.0044 75.0131 74.531L66.6906 76.1585L83.9822 58.4633C83.9897 58.4558 83.9953 58.4484 84.0027 58.4409ZM2.80283 86.4952V63.5176H12.9775V64.4804C12.9775 64.4834 12.9771 64.4862 12.9771 64.4892V85.3311C12.9771 85.3328 12.9775 85.3343 12.9775 85.3359V86.4952H2.80283ZM75.7886 77.2255C78.3747 76.3958 80.4656 76.4706 81.5269 77.4329C82.0987 77.9523 82.3229 78.7371 82.1398 79.5817C81.8446 80.9439 80.658 82.0818 78.967 82.6237L56.0398 89.9765C55.7128 90.0811 55.3952 90.1839 55.085 90.2848C49.6008 92.0562 46.8484 92.9475 40.8242 91.0733C40.8092 91.0677 40.7924 91.064 40.7756 91.0584L15.7803 84.2608V65.6778L29.3942 63.4411C31.0647 63.1665 32.5577 62.8937 33.875 62.6545C38.6679 61.7837 41.5623 61.2587 45.2471 61.9351L52.8764 63.3346C55.8511 64.3119 56.8769 66.3467 56.5668 67.836C56.2099 69.5569 54.3114 70.5005 51.7328 70.2389C49.4868 70.0091 46.9344 69.6802 44.6827 69.3906C44.0811 69.3121 43.5037 69.2374 42.9674 69.1701C40.2879 68.774 38.3988 70.6482 37.9167 72.7092C37.8139 73.1483 37.7728 73.6154 37.8027 74.0863C37.9055 75.7904 38.9239 77.5581 41.2483 78.2999C41.3063 78.3186 42.0798 78.4625 42.0798 78.4625L53.5247 80.5552C53.536 80.5571 53.549 80.559 53.5621 80.5608C55.924 80.9289 56.9461 80.8972 58.3942 80.6412C58.7735 80.5739 60.3207 80.26 60.7187 80.1834L63.2412 79.6901C63.2412 79.6901 75.7363 77.2423 75.7886 77.2255Z" fill="white"/>
<rect x="4" y="65" width="8" height="20" fill="#5E39A2"/>
</g>
<defs>
<clipPath id="clip0_84_31942">
<rect width="95.67" height="95.67" fill="white"/>
</clipPath>
</defs>
</svg>
