<svg width="110" height="110" viewBox="0 0 110 110" fill="none" xmlns="http://www.w3.org/2000/svg">
<rect x="34" y="5" width="9" height="10" fill="#63F8F2"/>
<rect x="7" y="38" width="9" height="10" fill="#C58CFF"/>
<rect x="97" y="26" width="9" height="10" fill="#F03A9E"/>
<path d="M27.3333 44.31C28.2175 44.31 28.9349 43.5934 28.9349 42.7084C28.9349 41.8234 28.2175 41.1068 27.3333 41.1068H20.2865V34.1667C20.2865 33.2817 19.5691 32.5652 18.6849 32.5652H1.60156C0.717366 32.5652 0 33.2817 0 34.1667V51.2501C0 52.1351 0.717366 52.8516 1.60156 52.8516H18.6849C19.5691 52.8516 20.2865 52.1351 20.2865 51.2501V44.31H27.3333ZM3.20312 35.7683H17.0833V43.2423H3.20312V35.7683ZM17.0833 49.6485H3.20312V46.4454H17.0833V49.6485Z" fill="#F5F5F5"/>
<path d="M11.7451 37.9036H8.54199C7.6578 37.9036 6.94043 38.6201 6.94043 39.5051C6.94043 40.3902 7.6578 41.1067 8.54199 41.1067H11.7451C12.6293 41.1067 13.3467 40.3902 13.3467 39.5051C13.3467 38.6201 12.6293 37.9036 11.7451 37.9036Z" fill="black"/>
<path d="M38.9854 5.33862H35.7822C34.898 5.33862 34.1807 6.05516 34.1807 6.94019C34.1807 7.82521 34.898 8.54175 35.7822 8.54175H38.9854C39.8704 8.54175 40.5869 7.82521 40.5869 6.94019C40.5869 6.05516 39.8704 5.33862 38.9854 5.33862Z" fill="black"/>
<path d="M107.731 19.3255H90.6481C89.7639 19.3255 89.0465 20.042 89.0465 20.9271V27.8672H73.7783C72.8941 27.8672 72.1768 28.5837 72.1768 29.4687V53.87L62.8877 49.4432V10.1432C62.8877 9.2582 62.1703 8.54167 61.2861 8.54167H47.5269V1.60156C47.5269 0.716532 46.8103 0 45.9253 0H28.842C27.9578 0 27.2404 0.716532 27.2404 1.60156V18.6849C27.2404 19.5699 27.9578 20.2865 28.842 20.2865H45.9253C46.8103 20.2865 47.5269 19.5699 47.5269 18.6849V11.7448H59.6846V47.9167L55.3553 45.8539C54.9224 45.647 54.4094 45.647 53.9773 45.8539L43.5096 50.8421V42.7083C43.5096 41.8233 42.7923 41.1068 41.9081 41.1068H34.113C33.2288 41.1068 32.5114 41.8233 32.5114 42.7083C32.5114 43.5934 33.2288 44.3099 34.113 44.3099H40.3065V52.3686L26.644 58.8799C26.0935 59.1427 25.7314 59.7091 25.7314 60.3255V94.7057C25.7314 95.323 26.0868 95.886 26.644 96.1513L39.7718 102.407C40.5701 102.788 41.526 102.45 41.9064 101.651C42.2868 100.853 41.9481 99.8966 41.1498 99.5162L28.9346 93.6947V62.863L53.0648 74.3625V105.194L46.933 102.272C46.1338 101.892 45.1787 102.231 44.7984 103.029C44.418 103.828 44.7567 104.783 45.5549 105.164L53.9773 109.177C54.165 109.267 54.4311 109.333 54.6663 109.333C54.9091 109.333 55.1777 109.262 55.3553 109.177L82.6887 96.1513C83.2459 95.886 83.6004 95.323 83.6004 94.7057V75.14C83.6004 74.2549 82.8839 73.5384 81.9988 73.5384C81.1146 73.5384 80.3973 74.2549 80.3973 75.14V93.6947L56.2671 105.194V74.3625L80.3973 62.863V68.2799C80.3973 69.1641 81.1146 69.8815 81.9988 69.8815C82.8839 69.8815 83.6004 69.1641 83.6004 68.2799V60.3255C83.6004 59.7291 83.2584 59.1519 82.6887 58.8799L82.6753 58.8733C82.6745 58.8733 82.6745 58.8733 82.6745 58.8733L75.3799 55.3965V31.0703H89.0465V38.0104C89.0465 38.8954 89.7639 39.612 90.6481 39.612H107.731C108.616 39.612 109.333 38.8954 109.333 38.0104V20.9271C109.333 20.042 108.616 19.3255 107.731 19.3255ZM30.4435 3.20312H44.3237V10.6771H30.4435V3.20312ZM44.3237 17.0833H30.4435V13.8802H44.3237V17.0833ZM72.1768 57.4185V63.2325L62.8877 67.6593V52.9917L72.1768 57.4185ZM59.6846 69.1858L56.2679 70.8141V49.8369L59.6846 51.4652V69.1858ZM40.3065 55.917V64.734L31.0558 60.3255L40.3065 55.917ZM43.5096 66.2605V54.3906L53.0648 49.8369V70.8141L43.5096 66.2605ZM78.2769 60.3255L75.3799 61.706V58.945L78.2769 60.3255ZM92.2497 22.5286H106.13V30.0026H92.2497V22.5286ZM106.13 36.4088H92.2497V33.2057H106.13V36.4088Z" fill="white"/>
<path d="M97.5889 27.8672H100.792C101.676 27.8672 102.394 27.1507 102.394 26.2656C102.394 25.3806 101.676 24.6641 100.792 24.6641H97.5889C96.7047 24.6641 95.9873 25.3806 95.9873 26.2656C95.9873 27.1507 96.7047 27.8672 97.5889 27.8672Z" fill="black"/>
<path d="M65 96V74.3585L87 65V87.2264L65 96Z" fill="#7423C6"/>
<path d="M45.5 76.5L23 65V86.5L45.5 97.5V76.5Z" fill="#F03A9E"/>
</svg>
