<svg width="100" height="101" viewBox="0 0 100 101" fill="none" xmlns="http://www.w3.org/2000/svg">
<circle cx="50.001" cy="50.7622" r="50" fill="#F03A9E"/>
<g clip-path="url(#clip0_84_63057)">
<path d="M98.0531 50.4426C98.0531 58.7535 95.9572 66.5768 92.2531 73.404C91.3919 75.0226 90.4165 76.5893 89.3686 78.0938C86.3493 82.4412 82.614 86.2698 78.3496 89.3929C78.3289 89.424 78.2978 89.4344 78.277 89.4552C77.9969 89.6627 77.7167 89.8702 77.4262 90.057C72.1761 93.7507 66.1582 96.4173 59.663 97.7765C56.4466 98.4613 53.1056 98.814 49.6816 98.814C41.8272 98.814 34.419 96.9464 27.8616 93.6158C24.0744 91.7067 20.5778 89.3099 17.4444 86.5085C15.7635 84.9936 14.176 83.375 12.7131 81.6423C12.049 80.8641 11.4161 80.0652 10.8143 79.2455C9.20608 77.0874 7.77423 74.7943 6.53953 72.3768C3.18818 65.7882 1.2998 58.3385 1.2998 50.4426C1.2998 23.7252 22.9642 2.06079 49.6816 2.06079C76.3886 2.06079 98.0531 23.7252 98.0531 50.4426Z" fill="#110828"/>
<path d="M64.3321 38.967C63.5746 35.5845 61.0222 33.2811 58.6254 33.8103L57.3804 33.997C57.2247 34.0074 57.0795 34.0281 56.9238 34.0696C54.5271 34.6092 53.2093 37.7841 53.9668 41.1666C54.7242 44.5491 57.2766 46.8525 59.6734 46.3233L60.9185 46.1366C61.0741 46.1262 61.2194 46.1054 61.375 46.0639C63.7614 45.5244 65.0895 42.3494 64.3321 38.967Z" fill="#07CBF5"/>
<path d="M92.2532 73.4036C91.392 75.0222 90.4167 76.5889 89.3688 78.0934C86.3494 82.4408 82.6142 86.2694 78.3498 89.3925C78.329 89.4236 78.2979 89.434 78.2772 89.4548C77.997 89.6623 77.7169 89.8698 77.4263 90.0566C72.1763 93.7503 66.1584 96.4169 59.6632 97.7761C56.4467 98.4609 53.1057 98.8136 49.6818 98.8136C41.8274 98.8136 34.4191 96.946 27.8617 93.6154C24.0746 91.7063 20.578 89.3095 17.4445 86.5081C15.7637 84.9932 14.1762 83.3746 12.7132 81.6419C12.0492 80.8637 11.4162 80.0648 10.8145 79.2451C18.5028 69.99 25.2678 68.1224 25.2678 68.1224C25.0499 67.8837 22.6739 65.0823 25.2678 60.0397C28.6814 53.3785 39.2853 49.2594 39.2853 49.2594L58.0031 48.1492C58.0031 48.1492 65.8782 48.7198 71.7093 55.4225C76.534 60.9424 75.6729 64.4494 75.2163 65.5181C75.1333 65.7463 75.0503 65.8605 75.0503 65.8605C75.0503 65.8605 83.133 68.5166 92.2532 73.4036Z" fill="#9364ED"/>
<path d="M75.2164 65.5184C71.3359 67.9775 65.1105 71.0487 56.3327 72.9785C39.9183 76.5997 25.2575 68.1227 25.2575 68.1227C25.0396 67.8841 22.6636 65.0827 25.2575 60.0401C28.6711 53.3789 39.2751 49.2701 39.2751 49.2701L57.9928 48.1599C57.9928 48.1599 65.8576 48.7306 71.6991 55.4333C76.5341 60.9428 75.673 64.4497 75.2164 65.5184Z" fill="#9364ED"/>
<path d="M42.0035 61.5551C42.0035 61.5551 34.5849 57.685 35.0311 55.4231C35.4772 53.1612 42.6676 51.636 47.2847 52.5075C51.9019 53.3791 62.7964 53.514 62.7964 57.4775C62.7964 60.9845 57.7953 64.3566 57.7953 64.3566L47.2847 61.3269L42.0035 61.5551Z" fill="#FFB700"/>
<path d="M41.7441 49.9548L42.0035 61.5652C42.0035 61.5652 44.172 64.8543 50.9681 65.259C56.0315 65.5599 57.7849 64.377 57.7849 64.377L56.9445 58.5148L56.1248 52.7978L43.8089 50.3699L41.7441 49.9548Z" fill="#FD8753"/>
<path d="M43.8086 50.3596C43.8501 50.6709 43.9746 51.0444 44.1717 51.4698C46.9005 57.2076 54.0286 58.3074 56.9546 58.4942L56.1349 52.7772L43.8086 50.3596Z" fill="black"/>
<path d="M58.1374 26.2672C58.1374 26.2672 64.5496 40.6894 62.3292 48.8239C60.1088 56.9585 52.7005 55.7341 48.2598 54.1882C43.819 52.6526 41.7438 49.9445 41.7438 49.9445C41.7438 49.9445 37.6143 51.3763 34.8232 47.5477C32.0322 43.7191 33.7027 39.2887 36.0579 38.2615C38.4132 37.2343 41.2354 38.9152 41.2354 38.9152L39.0046 34.7234C39.0046 34.7441 48.1249 13.3287 58.1374 26.2672Z" fill="#FD8753"/>
<path d="M57.5881 44.7046C57.5363 44.7046 57.4844 44.6942 57.4325 44.6838C57.1627 44.6008 57.0071 44.3103 57.0901 44.0301C57.8994 41.4051 55.928 38.5414 55.9073 38.5103C55.7413 38.2716 55.8035 37.95 56.0318 37.784C56.2704 37.618 56.5921 37.6802 56.7581 37.9085C56.8515 38.0434 59.0511 41.208 58.0862 44.331C58.0135 44.5697 57.8164 44.7046 57.5881 44.7046Z" fill="black"/>
<path d="M40.6237 45.7526C40.4888 45.7526 40.3539 45.7007 40.2605 45.5969L36.3282 41.4363C36.1414 41.2392 36.1518 40.9175 36.3489 40.7307C36.546 40.544 36.8677 40.5544 37.0545 40.7515L40.9868 44.9121C41.1736 45.1093 41.1632 45.4309 40.9661 45.6177C40.8623 45.7007 40.7482 45.7526 40.6237 45.7526Z" fill="black"/>
<path d="M36.4628 44.6322C36.2241 44.6322 36.0063 44.4558 35.9648 44.2068C35.9233 43.937 36.11 43.6776 36.3798 43.6361L39.0982 43.2211C39.368 43.1796 39.6274 43.3664 39.6689 43.6361C39.7104 43.9059 39.5236 44.1653 39.2539 44.2068L36.5354 44.6218C36.5147 44.6322 36.4835 44.6322 36.4628 44.6322Z" fill="black"/>
<path d="M41.2357 38.9256C41.2357 38.9256 42.7298 39.901 43.8088 38.2097C44.8983 36.5081 42.5223 31.4967 42.5223 31.4967C42.5223 31.4967 46.9942 32.5135 49.7645 31.0297C52.5348 29.546 53.894 25.4788 53.894 25.4788C53.894 25.4788 55.9276 29.7224 62.0389 27.8548C68.1502 25.9872 69.3123 17.6659 62.7963 15.9746C56.27 14.273 52.7112 17.1678 52.7112 17.1678C52.7112 17.1678 51.8811 11.1292 43.8192 14.1174C36.4732 16.8358 35.2281 26.039 35.2281 26.039C35.2281 26.039 30.8185 26.2466 29.9677 31.0401C29.1169 35.8441 34.7301 39.3095 34.7301 39.3095C34.7301 39.3095 37.9155 37.4419 41.2357 38.9256Z" fill="#5E1DBB"/>
<path d="M51.0402 39.3096C50.7808 39.3096 50.5629 39.1229 50.5214 38.8531L50.179 36.1554C50.1479 35.8753 50.345 35.6159 50.6252 35.5744C50.9157 35.5329 51.1647 35.7404 51.2062 36.0205L51.5486 38.7182C51.5797 38.9984 51.3826 39.2578 51.1024 39.2993C51.0817 39.3096 51.0609 39.3096 51.0402 39.3096Z" fill="black"/>
<path d="M59.04 38.6765C58.791 38.6765 58.5628 38.4897 58.5316 38.2303L58.1374 35.543C58.0959 35.2629 58.293 34.9931 58.5731 34.9516C58.8533 34.9205 59.123 35.1073 59.1646 35.3874L59.5588 38.0747C59.6003 38.3548 59.4032 38.6246 59.123 38.6661C59.0815 38.6661 59.0608 38.6765 59.04 38.6765Z" fill="black"/>
<path d="M48.5294 34.1528C48.4464 34.1528 48.3737 34.132 48.2907 34.0905C48.0313 33.9556 47.9379 33.6444 48.0624 33.3954C49.0585 31.4551 51.5176 31.9531 51.6213 31.9843C51.9015 32.0465 52.0778 32.3163 52.0156 32.5964C51.9533 32.8766 51.6836 33.053 51.4034 33.0011C51.3308 32.9803 49.6188 32.6379 48.9859 33.8726C48.8925 34.049 48.7161 34.1528 48.5294 34.1528Z" fill="black"/>
<path d="M56.3321 32.4821C56.2283 32.4821 56.1246 32.451 56.0416 32.3887C55.8029 32.2227 55.7407 31.9011 55.9067 31.6624C56.3217 31.0606 56.8509 30.7182 57.4838 30.6352C58.76 30.4692 59.9532 31.5172 60.0051 31.5691C60.223 31.7558 60.2437 32.0878 60.0466 32.2953C59.8598 32.5132 59.5278 32.534 59.3099 32.3369C59.0609 32.119 58.2723 31.5794 57.5979 31.6624C57.2659 31.7039 56.9961 31.8907 56.7575 32.2435C56.6641 32.4095 56.4981 32.4821 56.3321 32.4821Z" fill="black"/>
<path d="M50.0243 74.7839C34.6372 73.9227 28.6608 70.395 28.4118 70.2498C28.1627 70.1045 28.0901 69.7828 28.2354 69.5338C28.3806 69.2848 28.7023 69.2122 28.9513 69.3574C29.0136 69.3886 35.0003 72.9059 50.0451 73.7464C50.3356 73.7671 50.5535 74.0058 50.5327 74.2963C50.5223 74.566 50.2941 74.7839 50.0243 74.7839Z" fill="#5E1DBB"/>
<path d="M50.439 92.2876C50.1382 92.2772 49.9099 92.0386 49.9203 91.7481L50.3457 79.2869C50.356 78.9963 50.6051 78.7992 50.8852 78.7888C51.1757 78.7992 51.3936 79.0378 51.3832 79.3284L50.9578 91.7896C50.9475 92.0593 50.7192 92.2876 50.439 92.2876Z" fill="#5E1DBB"/>
<path d="M70.7551 88.5106C70.5787 88.5106 70.4024 88.4172 70.309 88.2512L64.0939 77.751C63.9487 77.502 64.0317 77.1907 64.2807 77.0351C64.5297 76.8898 64.841 76.9728 64.9862 77.2219L71.2013 87.722C71.3465 87.9711 71.2635 88.2823 71.0145 88.438C70.9315 88.4899 70.8381 88.5106 70.7551 88.5106Z" fill="#5E1DBB"/>
<path d="M70.7544 68.6416C70.5676 68.6416 70.3912 68.5378 70.2978 68.3615C70.1629 68.1021 70.2563 67.7908 70.5157 67.6559L74.8112 65.394C75.0603 65.2591 75.3819 65.3525 75.5168 65.6119C75.6517 65.8713 75.5583 66.1826 75.2989 66.3174L71.0034 68.5793C70.9204 68.6208 70.8374 68.6416 70.7544 68.6416Z" fill="#5E1DBB"/>
<path d="M44.4206 43.2C44.8564 46.6344 43.2481 49.6745 40.8202 49.9857C38.3923 50.297 36.0578 47.7653 35.622 44.3206C35.1862 40.8863 36.7945 37.8462 39.2224 37.5349C41.6503 37.2236 43.9848 39.7553 44.4206 43.2Z" fill="#07CBF5"/>
<path d="M39.2219 37.5349L37.541 37.8773L39.1389 50.3281L40.8197 49.9857L42.6562 48.004L43.1854 41.1041L39.2219 37.5349Z" fill="#07CBF5"/>
<path d="M42.7399 43.5324C43.1757 46.9668 41.5675 50.0068 39.1396 50.3181C36.7117 50.6294 34.3771 48.0977 33.9414 44.653C33.5056 41.2186 35.1138 38.1786 37.5417 37.8673C39.9696 37.5664 42.3042 40.0981 42.7399 43.5324Z" fill="white"/>
<path d="M36.3174 22.1169C36.3174 22.1169 34.4602 24.3373 33.9414 26.2983C33.4226 28.2593 36.4627 40.6272 36.4627 40.6272L40.3017 39.7556L36.3174 22.1169Z" fill="white"/>
<path d="M54.1532 48.7826C52.3686 48.7826 51.0716 47.4649 50.5943 46.6556C50.4491 46.4066 50.5321 46.0953 50.7707 45.95C51.0197 45.8048 51.331 45.8878 51.4866 46.1264C51.5385 46.2094 52.7628 48.2016 54.8587 47.6517C55.1285 47.579 55.419 47.745 55.4917 48.0252C55.5643 48.3053 55.3983 48.5855 55.1181 48.6581C54.7861 48.7411 54.4541 48.7826 54.1532 48.7826Z" fill="black"/>
</g>
<defs>
<clipPath id="clip0_84_63057">
<rect width="96.7533" height="96.7533" fill="white" transform="translate(1.2998 2.06079)"/>
</clipPath>
</defs>
</svg>
