<svg width="583" height="490" viewBox="0 0 583 490" fill="none" xmlns="http://www.w3.org/2000/svg">
<path d="M26.5772 490H429.473C657.331 451.412 582.08 272.572 515.972 187.976C491.502 -48.0042 372.903 35.2319 316.662 106.347C146.426 20.8604 130.617 167.197 158.793 240.663C-67.4866 255.207 9.07953 490 26.5772 490Z" fill="url(#paint0_linear_84_37662)" fill-opacity="0.2"/>
<path d="M290.585 52.8293V153.645C290.585 156.811 288.014 159.367 284.864 159.367H105.3C104.586 159.367 103.903 159.233 103.279 158.981C102.981 158.877 102.699 158.743 102.431 158.579C100.722 157.584 99.5781 155.741 99.5781 153.631V52.8293C99.5781 49.6639 102.149 47.093 105.3 47.093H284.864C288.014 47.093 290.585 49.6639 290.585 52.8293Z" fill="#2E2865"/>
<path d="M290.585 150.421V153.646C290.585 156.811 288.014 159.367 284.864 159.367H105.716C104.869 159.367 104.022 159.233 103.279 158.981C102.982 158.891 102.684 158.787 102.417 158.654L102.432 158.579L103.858 151.045L142.066 96.7581L151.057 111.5L178.044 72.7578L205.076 109.197L210.173 100.607L233.208 125.469L237.71 120.907L261.057 140.642L265.976 130.849L282.917 149.083L284.805 142.99L290.585 150.421Z" fill="#352F75"/>
<path d="M277.953 159.368H105.3C104.244 159.368 103.249 159.085 102.417 158.58C100.708 157.599 99.5781 155.756 99.5781 153.646V146.766L131.143 89.3283L138.989 105.824L162.559 62.4747L186.172 103.238L190.631 93.6231L210.752 121.443L214.69 116.331L235.094 138.414L239.374 127.446L254.191 147.85L255.825 141.029L277.953 159.368Z" fill="#B10073"/>
<path d="M131.143 95.2274C133.802 95.2274 135.958 93.0717 135.958 90.4125C135.958 87.7533 133.802 85.5976 131.143 85.5976C128.484 85.5976 126.328 87.7533 126.328 90.4125C126.328 93.0717 128.484 95.2274 131.143 95.2274Z" fill="#5E1DBB"/>
<path d="M215.551 121.16C218.21 121.16 220.366 119.004 220.366 116.345C220.366 113.686 218.21 111.53 215.551 111.53C212.892 111.53 210.736 113.686 210.736 116.345C210.736 119.004 212.892 121.16 215.551 121.16Z" fill="#5E1DBB"/>
<path d="M195.431 91.4086C195.431 94.0687 193.276 96.2235 190.616 96.2235C187.956 96.2235 185.801 94.0687 185.801 91.4086C185.801 88.7485 187.956 86.5937 190.616 86.5937C193.276 86.6085 195.431 88.7634 195.431 91.4086Z" fill="#5E1DBB"/>
<path d="M167.374 62.4743C167.374 65.1343 165.219 67.2892 162.559 67.2892C159.899 67.2892 157.744 65.1343 157.744 62.4743C157.744 59.8142 159.899 57.6593 162.559 57.6593C165.219 57.6593 167.374 59.8142 167.374 62.4743Z" fill="#5E1DBB"/>
<path d="M244.694 127.446C244.694 130.106 242.539 132.261 239.879 132.261C237.219 132.261 235.064 130.106 235.064 127.446C235.064 124.786 237.219 122.631 239.879 122.631C242.539 122.631 244.694 124.786 244.694 127.446Z" fill="#5E1DBB"/>
<path d="M57.7015 63.2767C44.1781 49.5602 43.4796 27.9673 55.5615 13.4482C56.3194 12.512 57.1516 11.6055 58.0433 10.7138C65.013 3.84811 73.989 0.2815 83.0541 0.0288649C84.1984 -0.000856871 85.3279 0.0140029 86.4721 0.103168C86.6208 0.103168 86.799 0.103166 86.9477 0.118026C87.3935 0.147748 87.8393 0.192331 88.3 0.251775C89.0579 0.34094 89.8158 0.444968 90.5589 0.578716C91.3019 0.697603 92.0152 0.861074 92.7286 1.00968C92.8177 1.0394 92.892 1.05426 92.996 1.08399C93.5756 1.23259 94.1552 1.3812 94.7348 1.55953C94.7794 1.55953 94.8091 1.57439 94.8239 1.58926C95.1657 1.67842 95.4927 1.79731 95.8345 1.9162C95.9831 1.93106 96.1168 1.9905 96.2357 2.0648C97.0382 2.3323 97.8258 2.64438 98.6283 2.98618C99.1187 3.19423 99.6091 3.40228 100.1 3.62519C100.412 3.75894 100.724 3.90755 101.021 4.07102C101.318 4.21963 101.63 4.36824 101.913 4.53171C102.492 4.84379 103.072 5.18559 103.636 5.52739C104.305 5.94349 104.974 6.38932 105.628 6.85001C107.381 8.08346 109.046 9.48038 110.606 11.0556C121.9 22.4985 124.234 39.425 117.71 53.1268C115.926 56.946 113.43 60.4978 110.264 63.6185C95.6561 78.0336 72.1314 77.885 57.7015 63.2767Z" fill="#FFB700"/>
<path d="M117.722 53.1264L84.166 37.1658L91.002 8.43972L98.6554 2.95605C101.093 3.98145 103.441 5.25949 105.64 6.83474C107.394 8.0682 109.058 9.47998 110.618 11.0552C121.898 22.4981 124.246 39.4098 117.722 53.1264Z" fill="#E2209E"/>
<path d="M84.1526 37.1512L55.5752 13.4333C56.3331 12.497 57.1653 11.5905 58.0569 10.6989C65.0267 3.83316 74.0027 0.266545 83.0678 0.01391C84.2121 -0.0158117 85.3415 -0.000946314 86.4858 0.0882189L84.1526 37.1512Z" fill="#352F75"/>
<path d="M84.1522 37.151L83.0674 0.0285597C84.2117 -0.00116204 85.3411 0.0136977 86.4854 0.102863C86.634 0.102863 86.7975 0.10286 86.9609 0.117721C87.4068 0.147443 87.8526 0.192026 88.3133 0.251469C89.0712 0.340635 89.8291 0.444663 90.5721 0.57841C91.3152 0.697297 92.0285 0.860768 92.7418 1.00938C92.8309 1.0391 92.9053 1.05396 93.0093 1.08368C93.5889 1.23229 94.1684 1.3809 94.748 1.55923C94.7926 1.55923 94.8223 1.57409 94.8372 1.58895C95.179 1.67812 95.5059 1.797 95.8477 1.91589C95.9964 1.93075 96.1301 1.99019 96.249 2.0645C97.5716 2.49546 98.8496 3.03045 100.113 3.62489C100.425 3.75864 100.737 3.90724 101.034 4.07071C101.331 4.21932 101.643 4.36793 101.926 4.5314C102.505 4.84348 103.085 5.18528 103.65 5.52708C104.318 5.94319 104.987 6.38901 105.641 6.8497L84.1522 37.151Z" fill="#5E1DBB"/>
<path d="M418.093 420.437C418.093 420.437 353.701 404.461 346.196 353.013C336.967 289.706 353.329 258.691 353.329 258.691L395.4 311.774L408.032 375.914L424.661 388.635L433.92 409.38L418.093 420.437Z" fill="#F47745"/>
<path d="M275.668 141.409C275.668 141.409 271.953 124.825 267.391 124.498C262.828 124.156 266.41 137.843 266.41 137.843L254.06 133.117C254.06 133.117 240.017 129.194 237.223 130.427C234.429 131.646 239.036 136.208 239.036 136.208C239.036 136.208 229.035 133.206 230.432 138.08C231.829 142.955 238.679 145.764 238.679 145.764C238.679 145.764 228.901 142.301 231.115 148.007C232.304 151.099 253.808 164.117 268.297 163.656C282.787 163.195 277.006 152.02 277.006 152.02L275.668 141.409Z" fill="#FD8753"/>
<path d="M244.06 148.958C243.882 148.958 243.704 148.884 243.57 148.736C243.332 148.468 243.377 148.067 243.644 147.829L256.083 137.204C256.35 136.981 256.766 137.01 256.989 137.278C257.227 137.545 257.183 137.947 256.915 138.184L244.476 148.81C244.358 148.914 244.209 148.958 244.06 148.958Z" fill="black"/>
<path d="M458.842 397.001C459.259 394.579 457.579 392.231 455.008 391.666C444.903 389.407 422.508 383.121 422.092 384.964C421.571 387.312 422.76 412.382 422.76 412.382C422.76 412.382 408.598 409.93 408.94 420.244C409.207 428.15 416.192 438.805 419.417 443.338C420.442 444.779 421.007 446.443 421.051 448.152C421.244 455.509 422.701 475.957 432.925 478.513C445.423 481.649 445.111 476.284 445.631 473.936C446.092 471.915 456.034 413.497 458.842 397.001Z" fill="#9364ED"/>
<path d="M425.689 423.751C425.376 423.751 425.094 423.513 425.05 423.186L423.445 410.703C423.4 410.346 423.653 410.034 423.994 409.989C424.351 409.945 424.663 410.197 424.708 410.539L426.313 423.022C426.357 423.379 426.105 423.691 425.763 423.736C425.748 423.751 425.718 423.751 425.689 423.751Z" fill="white"/>
<path d="M270.214 155.022C269.977 155.007 265.756 154.635 263.78 151.158C262.145 148.275 262.606 144.233 265.132 139.106C265.295 138.794 265.682 138.66 265.994 138.808C266.306 138.972 266.44 139.343 266.291 139.67C263.958 144.381 263.497 148.022 264.894 150.504C266.514 153.387 270.229 153.729 270.259 153.729C270.616 153.758 270.868 154.071 270.853 154.427C270.824 154.769 270.541 155.022 270.214 155.022Z" fill="black"/>
<path d="M373.778 311.774C373.778 311.774 377.464 435.09 382.412 448.123C387.361 461.156 414.378 448.123 414.378 448.123L420.768 314.509L373.778 311.774Z" fill="#FD8753"/>
<path d="M343.776 222.103C343.776 222.103 338.946 249.418 338.946 269.792C338.946 290.166 336.554 312.517 338.946 314.508C341.339 316.5 365.012 323.172 393.649 321.671C422.286 320.185 430.861 313.498 430.385 311.12C429.91 308.757 426.566 306.751 426.566 306.751C426.566 306.751 428.468 247.872 420.844 232.105C413.206 216.337 380.661 212.905 380.661 212.905H345.663L343.776 222.103Z" fill="#E2209E"/>
<path d="M392.89 219.503C392.89 219.503 358.889 221.583 345.231 214.941L346.034 174.073C346.034 174.073 353.45 121.733 364.075 120.619C374.715 119.504 387.63 121.51 387.63 121.51L421.587 169.793L392.89 219.503Z" fill="#FFB700"/>
<path d="M411.883 479.271C414.335 479.241 416.356 477.176 416.46 474.56C416.891 464.202 419.105 441.049 417.218 440.975C414.811 440.871 390.35 446.488 390.35 446.488C390.35 446.488 390.246 432.117 380.155 434.287C372.413 435.952 363.169 444.705 359.29 448.687C358.057 449.951 356.526 450.812 354.847 451.154C347.64 452.64 324.338 457.663 323.624 468.185C322.748 481.039 327.979 479.776 330.386 479.88C332.467 479.97 395.15 479.435 411.883 479.271Z" fill="#9364ED"/>
<path d="M387.557 213.009C387.557 213.009 361.773 217.274 356.676 221.97C351.579 226.666 363.943 244.663 367.108 247.575C370.288 250.488 392.907 235.672 392.907 235.672L396.176 222.743L387.557 213.009Z" fill="#FD8753"/>
<path d="M356.676 221.955C356.676 221.955 345.902 237.351 347.686 243.712C349.469 250.072 362.442 230.411 362.442 230.411L356.676 221.955Z" fill="#FD8753"/>
<path d="M375.652 243.295C375.652 243.295 388.997 241.408 386.367 246.253C383.736 251.097 369.47 250.25 367.107 247.575C364.744 244.9 372.189 237.589 372.189 237.589L375.652 243.295Z" fill="#FD8753"/>
<path d="M377.389 244.871C377.136 244.871 376.884 244.707 376.795 244.454C376.676 244.128 376.839 243.756 377.166 243.622L379.901 242.582L377.79 241.022C377.508 240.814 377.448 240.412 377.657 240.13C377.865 239.848 378.266 239.788 378.548 239.996L381.61 242.255C381.803 242.389 381.892 242.627 381.862 242.864C381.832 243.102 381.669 243.295 381.461 243.37L377.627 244.826C377.538 244.856 377.463 244.871 377.389 244.871Z" fill="black"/>
<path d="M358.22 235.478C358.146 235.478 358.072 235.463 357.983 235.434C357.656 235.3 357.492 234.928 357.611 234.602C357.864 233.963 360.048 228.345 361.386 227.201C361.653 226.978 362.069 227.008 362.292 227.275C362.515 227.543 362.485 227.944 362.218 228.182C361.401 228.88 359.692 232.774 358.8 235.062C358.726 235.33 358.488 235.478 358.22 235.478Z" fill="black"/>
<path d="M362.307 241.987C362.203 241.987 362.114 241.958 362.01 241.913C361.698 241.75 361.564 241.363 361.727 241.051L366.364 231.897C366.527 231.585 366.914 231.451 367.226 231.615C367.538 231.778 367.672 232.164 367.508 232.477L362.872 241.631C362.768 241.869 362.53 241.987 362.307 241.987Z" fill="black"/>
<path d="M387.645 121.511C387.645 121.511 450.923 128.763 450.016 194.819C449.466 235.315 394.882 247.442 394.882 247.442L378.03 205.727L406.192 189.618L387.645 121.511Z" fill="#FFB700"/>
<path d="M378.952 451.333C378.685 451.333 378.432 451.154 378.343 450.887C378.239 450.545 378.417 450.188 378.759 450.084L390.767 446.295C391.108 446.191 391.465 446.369 391.569 446.711C391.673 447.053 391.495 447.409 391.153 447.513L379.145 451.303C379.086 451.332 379.012 451.333 378.952 451.333Z" fill="white"/>
<path d="M385.892 201.863C385.698 201.863 385.505 201.774 385.386 201.611C385.178 201.328 385.223 200.927 385.505 200.704C386.233 200.154 403.264 187.211 410.085 184.803C410.412 184.684 410.784 184.862 410.902 185.189C411.021 185.531 410.843 185.888 410.516 186.007C403.873 188.355 386.456 201.581 386.278 201.715C386.159 201.819 386.025 201.863 385.892 201.863Z" fill="white"/>
<path d="M401.613 190.509C401.479 190.509 401.345 190.465 401.227 190.376C401.019 190.212 400.914 189.945 400.989 189.677C401.108 189.291 403.857 180.032 407.795 178.279C408.731 177.863 409.668 177.878 410.559 178.309C411.644 178.829 411.912 179.601 411.956 180.166C412.179 183.703 402.995 189.737 401.955 190.405C401.851 190.465 401.732 190.509 401.613 190.509ZM409.177 179.26C408.895 179.26 408.612 179.319 408.33 179.453C406.027 180.478 403.916 185.219 402.802 188.28C406.398 185.769 410.797 182.068 410.678 180.24C410.663 180.032 410.589 179.735 410.009 179.453C409.742 179.334 409.459 179.26 409.177 179.26Z" fill="white"/>
<path d="M264.255 166.985C264.255 166.985 278.967 187.225 306.326 190.302C333.685 193.363 350.597 178.398 350.597 178.398L363.124 120.857C363.124 120.857 335.364 134.469 312.597 143.163C299.193 148.275 277.184 137.456 277.184 137.456L264.255 166.985Z" fill="#FFB700"/>
<path d="M314.127 158.989C313.384 158.989 312.73 158.722 312.225 158.187C309.357 155.185 311.705 144.247 311.987 143.014C312.046 142.747 312.254 142.553 312.522 142.524C312.804 142.494 313.042 142.613 313.176 142.851C313.755 143.921 318.778 153.431 316.921 157.325C316.49 158.202 315.747 158.767 314.736 158.945C314.528 158.975 314.32 158.989 314.127 158.989ZM312.879 145.095C312.18 148.973 311.422 155.512 313.146 157.31C313.488 157.667 313.919 157.786 314.498 157.682C315.108 157.578 315.509 157.28 315.762 156.76C316.891 154.397 314.528 148.527 312.879 145.095Z" fill="white"/>
<path d="M346.242 180.954C345.96 180.954 345.692 180.761 345.618 180.479C340.476 160.684 349.006 143.951 349.095 143.787C349.259 143.475 349.66 143.356 349.957 143.52C350.269 143.683 350.388 144.07 350.225 144.382C350.136 144.545 341.843 160.862 346.851 180.167C346.941 180.509 346.733 180.865 346.391 180.954C346.346 180.954 346.302 180.954 346.242 180.954Z" fill="white"/>
<path d="M361.935 72.3506C361.935 72.3506 355.961 81.5792 353.925 94.1069C352.305 104.123 351.518 114.585 351.518 114.585L370.54 115.12L368.206 82.1737L361.935 72.3506Z" fill="#5E1DBB"/>
<path d="M389.845 75.3376C389.845 75.3376 396.725 73.584 398.494 92.0412C400.262 110.498 400.292 112.505 400.292 112.505L383.157 114.006L383.544 80.9699L389.845 75.3376Z" fill="#5E1DBB"/>
<path d="M385.144 105.654L386.095 120.247C386.095 120.247 383.732 124.616 375.247 125.865C368.916 126.801 366.583 125.508 366.583 125.508L366.984 118.063L367.385 110.796L382.588 106.397L385.144 105.654Z" fill="#FD8753"/>
<path d="M382.607 106.397C382.592 106.798 382.473 107.274 382.28 107.838C379.486 115.343 370.659 117.498 367.003 118.063L367.404 110.796L382.607 106.397Z" fill="black"/>
<path d="M361.976 77.7297C361.976 77.7297 355.512 96.5287 359.197 106.5C362.883 116.472 372.052 114.109 377.446 111.687C382.856 109.264 385.159 105.638 385.159 105.638C385.159 105.638 390.494 106.976 393.585 101.864C396.676 96.7516 394.076 91.3719 391.014 90.3465C387.953 89.3211 384.594 91.7435 384.594 91.7435L386.928 86.245C386.913 86.2598 373.107 60.387 361.976 77.7297Z" fill="#FD8753"/>
<path d="M366.021 100.334C365.768 100.334 365.531 100.185 365.427 99.9324C363.881 96.128 366.274 91.9224 366.378 91.744C366.556 91.432 366.942 91.3279 367.254 91.5063C367.567 91.6846 367.671 92.071 367.492 92.3831C367.477 92.4276 365.308 96.232 366.615 99.442C366.749 99.7689 366.586 100.14 366.259 100.274C366.185 100.319 366.095 100.334 366.021 100.334Z" fill="black"/>
<path d="M386.053 100.304C385.905 100.304 385.756 100.259 385.637 100.155C385.34 99.9173 385.296 99.5012 385.533 99.204L390.006 93.542C390.244 93.2448 390.66 93.2002 390.958 93.438C391.255 93.6758 391.299 94.0919 391.062 94.3891L386.588 100.051C386.44 100.215 386.247 100.304 386.053 100.304Z" fill="black"/>
<path d="M391.151 98.4461C391.106 98.4461 387.659 98.2232 387.659 98.2232C387.287 98.1935 387.005 97.8814 387.034 97.5099C387.064 97.1383 387.332 96.856 387.748 96.8857L391.21 97.1086C391.582 97.1383 391.864 97.4504 391.834 97.822C391.79 98.1786 391.493 98.4461 391.151 98.4461Z" fill="black"/>
<path d="M375.384 86.5574C375.176 86.5574 374.968 86.4534 374.834 86.2602C373.898 84.7741 371.772 85.3982 371.683 85.428C371.341 85.532 370.985 85.3388 370.881 84.997C370.777 84.6552 370.97 84.2985 371.297 84.1945C371.431 84.1499 374.447 83.2434 375.904 85.5766C376.097 85.8738 376.008 86.275 375.711 86.4682C375.621 86.5277 375.503 86.5574 375.384 86.5574Z" fill="black"/>
<path d="M360.908 86.5722C360.789 86.5722 360.67 86.5425 360.566 86.4682C360.269 86.275 360.18 85.8886 360.358 85.5914C360.953 84.6106 362.78 83.1394 365.381 84.5214C365.693 84.6849 365.812 85.0713 365.649 85.3834C365.485 85.6954 365.084 85.8143 364.787 85.6509C362.647 84.5066 361.577 86.0818 361.458 86.2601C361.324 86.4682 361.116 86.5722 360.908 86.5722Z" fill="black"/>
<path d="M372.843 93.2451C372.472 93.2303 372.189 92.9331 372.204 92.5764L372.323 89.3813L371.283 88.029C371.075 87.7466 371.119 87.3454 371.402 87.1225C371.684 86.9144 372.085 86.959 372.308 87.2414L373.482 88.7869C373.571 88.9058 373.616 89.0544 373.616 89.203L373.482 92.621C373.467 92.9628 373.185 93.2451 372.843 93.2451Z" fill="black"/>
<path d="M362.264 93.3934C361.877 93.3786 361.595 93.0665 361.625 92.7098L361.803 89.5593L360.555 88.1772C360.317 87.9097 360.332 87.5085 360.599 87.2707C360.867 87.033 361.268 87.0478 361.506 87.3153L362.932 88.8906C363.051 89.0243 363.111 89.1878 363.096 89.3661L362.903 92.7841C362.888 93.1259 362.605 93.3934 362.264 93.3934Z" fill="black"/>
<path d="M358.682 82.233C358.682 82.233 364.523 81.4306 368.03 81.4157C371.537 81.4008 371.537 81.4008 371.537 81.4008L372.949 76.8385L373.395 81.9507C373.395 81.9507 377.095 83.0504 378.254 84.1055C379.398 85.1458 381.122 87.8653 381.122 87.8653L382.802 85.2349L382.594 95.8902C382.594 95.8902 383.946 90.8672 387.394 90.6294C390.841 90.3917 391.986 90.9564 391.986 90.9564C391.986 90.9564 394.022 80.5686 393.264 77.7748C392.521 74.9809 389.846 75.3525 389.846 75.3525C389.846 75.3525 386.175 65.9455 372.25 67.1641C358.341 68.3678 358.682 82.233 358.682 82.233Z" fill="#5E1DBB"/>
<path d="M369.468 105.936C368.027 105.936 366.734 104.762 366.57 104.613C366.407 104.465 366.332 104.242 366.377 104.019C366.422 103.796 366.57 103.618 366.763 103.543L371.593 101.626C371.816 101.537 372.054 101.582 372.232 101.73C372.411 101.879 372.5 102.117 372.455 102.339C372.113 104.271 371.355 105.445 370.241 105.817C369.988 105.906 369.721 105.936 369.468 105.936ZM368.339 104.301C368.814 104.554 369.379 104.747 369.84 104.583C370.33 104.42 370.657 103.885 370.88 103.276L368.339 104.301Z" fill="black"/>
<path d="M366.899 118.271C366.899 118.271 364.7 119.341 364.7 122.491C364.7 123.502 364.195 128.911 372.755 130.234C382.592 131.75 388.7 123.754 389.146 121.733C389.592 119.712 386.323 115.343 386.04 115.061C385.758 114.778 385.505 117.201 385.505 117.201C385.505 117.201 371.982 126.89 366.899 118.271Z" fill="#07CBF5"/>
<path d="M371.609 126.815C371.609 126.815 366.2 129.728 364.208 136.579C362.217 143.415 360.909 155.006 360.909 155.006C360.909 155.006 368.057 150.949 371.772 145.05C375.503 139.165 374.225 126.578 374.225 126.578L371.609 126.815Z" fill="#07CBF5"/>
<path d="M376.276 126.815C376.276 126.815 381.685 129.728 383.677 136.579C385.668 143.415 386.976 155.006 386.976 155.006C386.976 155.006 379.828 150.949 376.113 145.05C372.383 139.165 373.661 126.578 373.661 126.578L376.276 126.815Z" fill="#07CBF5"/>
<path d="M374.032 130.724C371.12 130.724 369.693 129.788 369.604 129.728C369.307 129.535 369.232 129.134 369.44 128.837C369.634 128.539 370.035 128.465 370.332 128.658C370.391 128.703 373.185 130.427 379.1 128.584C379.442 128.48 379.798 128.673 379.902 129C380.006 129.342 379.813 129.698 379.486 129.802C377.287 130.486 375.489 130.724 374.032 130.724Z" fill="white"/>
<path d="M379.026 140.057C378.416 140.057 377.866 139.834 377.391 139.418C375.102 137.367 375.162 130.813 375.191 130.07C375.191 129.803 375.37 129.565 375.622 129.476C375.875 129.387 376.157 129.476 376.336 129.684C377.257 130.813 381.79 136.609 380.853 138.987C380.69 139.403 380.304 139.923 379.382 140.042C379.263 140.042 379.145 140.057 379.026 140.057ZM376.514 132.032C376.648 134.306 377.079 137.412 378.253 138.452C378.55 138.705 378.847 138.809 379.204 138.749C379.575 138.704 379.62 138.556 379.65 138.496C380.051 137.486 378.297 134.499 376.514 132.032Z" fill="white"/>
<path d="M432.749 68.4568C452.504 68.4568 468.519 57.412 468.519 43.7877C468.519 30.1634 452.504 19.1187 432.749 19.1187C412.993 19.1187 396.979 30.1634 396.979 43.7877C396.979 57.412 412.993 68.4568 432.749 68.4568Z" fill="#E7E3FF"/>
<path d="M432.747 63.3001L403.501 82.961L415.583 59.9861L432.747 63.3001Z" fill="#E7E3FF"/>
<path d="M136.97 124.187C140.574 124.187 143.294 121.688 143.294 117.999C143.294 114.31 140.574 111.811 136.97 111.811C133.417 111.811 130.663 114.31 130.663 117.999C130.663 121.688 133.417 124.187 136.97 124.187ZM136.97 121.688C134.913 121.688 133.434 120.175 133.434 117.999C133.434 115.823 134.913 114.31 136.97 114.31C139.095 114.31 140.523 115.823 140.523 117.999C140.523 120.175 139.095 121.688 136.97 121.688ZM149.283 113.375C149.572 113.375 149.844 113.409 150.014 113.46L150.065 111.454C149.861 111.403 149.385 111.352 148.943 111.352C146.631 111.352 145.543 112.355 145.543 114.616V115.449H144.234V117.659H145.543V124H148.076V117.659H149.946V115.449H148.076V114.871C148.076 113.579 148.416 113.375 149.283 113.375ZM155.692 113.375C155.981 113.375 156.253 113.409 156.423 113.46L156.474 111.454C156.27 111.403 155.794 111.352 155.352 111.352C153.04 111.352 151.952 112.355 151.952 114.616V115.449H150.643V117.659H151.952V124H154.485V117.659H156.355V115.449H154.485V114.871C154.485 113.579 154.825 113.375 155.692 113.375ZM165.845 119.716C165.845 116.962 164.094 115.262 161.561 115.262C158.96 115.262 157.039 117.047 157.039 119.716C157.039 122.334 158.841 124.187 161.782 124.187C163.448 124.187 165.012 123.626 165.76 122.504L163.958 121.127C163.329 121.841 162.598 122.045 161.85 122.045C160.524 122.045 159.759 121.399 159.606 120.498H165.794C165.811 120.243 165.845 119.937 165.845 119.716ZM161.527 117.217C162.479 117.217 163.159 117.829 163.363 118.815H159.606C159.776 117.846 160.541 117.217 161.527 117.217ZM169.776 124V120.073C169.776 118.832 170.405 117.88 171.68 117.88C172.003 117.88 172.207 117.897 172.581 117.948L172.649 115.279C172.547 115.262 172.36 115.262 172.258 115.262C171.085 115.262 170.184 115.891 169.725 116.826V115.449H167.243V124H169.776ZM187.942 124L183.811 111.998H180.717L176.569 124H179.391L180.139 121.637H184.389L185.137 124H187.942ZM180.87 119.291L182.264 114.735L183.641 119.291H180.87ZM192.091 124.187C193.247 124.187 194.097 123.728 194.658 122.861V124H197.191V111.539H194.658V116.588C194.097 115.704 193.247 115.262 192.108 115.262C189.864 115.262 188.3 117.047 188.3 119.716C188.3 122.385 189.864 124.187 192.091 124.187ZM192.805 121.892C191.666 121.892 190.85 121.008 190.85 119.716C190.85 118.424 191.666 117.557 192.805 117.557C193.944 117.557 194.709 118.424 194.709 119.716C194.709 121.025 193.944 121.892 192.805 121.892ZM202.231 124.187C204.662 124.187 205.801 123.201 205.801 121.348C205.801 119.648 204.628 119.172 202.775 118.798C201.704 118.594 201.16 118.39 201.16 117.965C201.16 117.455 201.653 117.268 202.248 117.268C202.911 117.268 203.421 117.472 203.88 118.101L205.682 116.826C205.138 115.942 203.931 115.262 202.112 115.262C200.174 115.262 198.712 116.129 198.712 117.999C198.712 119.75 200.14 120.345 201.67 120.634C202.962 120.889 203.251 121.076 203.251 121.535C203.251 122.028 202.911 122.266 202.248 122.266C201.381 122.266 200.65 121.858 200.14 121.144L198.406 122.351C199.001 123.558 200.361 124.187 202.231 124.187Z" fill="white"/>
<path d="M130 118.883H206.209V119.733H130V118.883Z" fill="white"/>
<path d="M141.764 96.481L139.554 87.998H137.106L134.913 96.481L132.975 87.998H130.051L133.298 100H136.103L138.33 92.503L140.557 100H143.345L146.609 87.998H143.685L141.764 96.481ZM155.12 95.716C155.12 92.962 153.369 91.262 150.836 91.262C148.235 91.262 146.314 93.047 146.314 95.716C146.314 98.334 148.116 100.187 151.057 100.187C152.723 100.187 154.287 99.626 155.035 98.504L153.233 97.127C152.604 97.841 151.873 98.045 151.125 98.045C149.799 98.045 149.034 97.399 148.881 96.498H155.069C155.086 96.243 155.12 95.937 155.12 95.716ZM150.802 93.217C151.754 93.217 152.434 93.829 152.638 94.815H148.881C149.051 93.846 149.816 93.217 150.802 93.217ZM166.106 100.187C169.71 100.187 172.43 97.688 172.43 93.999C172.43 90.31 169.71 87.811 166.106 87.811C162.553 87.811 159.799 90.31 159.799 93.999C159.799 97.688 162.553 100.187 166.106 100.187ZM166.106 97.688C164.049 97.688 162.57 96.175 162.57 93.999C162.57 91.823 164.049 90.31 166.106 90.31C168.231 90.31 169.659 91.823 169.659 93.999C169.659 96.175 168.231 97.688 166.106 97.688ZM176.549 100V95.546C176.549 94.373 177.178 93.523 178.215 93.523C179.15 93.523 179.66 94.033 179.66 95.461V100H182.176V94.968C182.176 92.486 181.054 91.262 179.15 91.262C177.994 91.262 177.059 91.738 176.498 92.605V91.449H174.016V100H176.549ZM186.562 100V87.539H183.961V100H186.562ZM192.25 97.348L190.448 91.449H187.626L191.06 99.949L189.785 103.332H192.42L196.772 91.449H193.967L192.25 97.348Z" fill="white"/>
<path d="M130 94.883H196.874V95.733H130V94.883Z" fill="white"/>
<path d="M262.641 80.8948C262.388 86.6846 260.31 91.4118 255.479 94.6427C252.639 96.5416 249.426 97.1626 246.039 96.8992C243.11 96.6718 240.421 95.7454 238.066 93.9707C234.856 91.551 232.955 88.3 232.254 84.3691C231.559 80.4751 232.281 76.8376 234.509 73.5426C236.007 71.3252 237.984 69.6356 240.343 68.3807C241.744 67.6346 243.156 66.9285 244.722 66.5789C246.811 66.1142 248.894 66.2204 250.974 66.588C253.692 67.0677 256.175 68.0782 258.255 69.9441C260.44 71.9051 261.704 74.3848 262.217 77.2452C262.44 78.4831 262.513 79.747 262.641 80.8948ZM261.832 80.4801C261.692 79.3544 261.622 78.2147 261.398 77.106C260.636 73.3332 258.605 70.4799 255.128 68.7292C253.299 67.8078 251.337 67.3762 249.311 67.1498C245.335 66.7071 241.881 67.8389 239.039 70.6291C235.617 73.9882 233.968 78.0214 234.782 82.8738C236.073 90.5695 243.553 95.5882 251.167 93.8826C257.389 92.4884 261.887 86.7998 261.832 80.4801Z" fill="white"/>
<path d="M259.899 65.3412C259.839 65.5164 259.796 65.6196 259.768 65.7268C259.491 66.7583 259.207 67.7879 258.948 68.8245C258.881 69.0959 258.812 69.3262 258.488 69.2872C258.161 69.2481 258.127 69.0108 258.164 68.7283C258.32 67.5485 258.636 66.4128 259.086 65.3121C259.176 65.0908 259.335 64.9366 259.572 65.0257C259.708 65.0758 259.801 65.241 259.899 65.3412Z" fill="white"/>
<path d="M261.084 70.553C260.969 70.4518 260.785 70.3667 260.763 70.2505C260.736 70.1113 260.8 69.89 260.905 69.7998C261.37 69.4032 261.864 69.0417 262.346 68.6671C262.701 68.3917 263.058 68.1193 263.409 67.8398C263.631 67.6636 263.866 67.5874 264.061 67.8428C264.241 68.0782 264.127 68.2855 263.914 68.4508C263.085 69.0907 262.256 69.7327 261.425 70.3697C261.34 70.4348 261.234 70.4728 261.084 70.553Z" fill="white"/>
<path d="M263.313 73.3522C263.15 73.3522 262.989 73.3532 262.827 73.3522C262.578 73.3502 262.405 73.2271 262.403 72.9777C262.401 72.7113 262.581 72.5941 262.844 72.5741C263.389 72.534 263.936 72.4959 264.478 72.4258C264.784 72.3858 265.085 72.2956 265.382 72.2075C265.658 72.1254 265.931 72.0923 266.032 72.4208C266.142 72.7764 265.882 72.9096 265.588 72.9707C264.836 73.1259 264.082 73.2731 263.329 73.4244C263.323 73.4003 263.318 73.3763 263.313 73.3522Z" fill="white"/>
<path d="M246.044 82.7586C247.394 81.5006 248.691 80.2547 250.031 79.0559C251.353 77.8731 252.711 76.7304 254.068 75.5886C254.623 75.1209 255.337 75.1319 255.899 75.5546C256.43 75.9532 256.642 76.6603 256.373 77.2612C256.275 77.4815 256.117 77.6948 255.936 77.8571C252.729 80.7545 249.515 83.6429 246.3 86.5323C245.876 86.9139 245.787 86.9229 245.364 86.5183C244.165 85.3695 242.968 84.2188 241.79 83.048C241.329 82.5903 241.201 82.0054 241.415 81.3845C241.627 80.7705 242.068 80.3839 242.71 80.2658C243.327 80.1526 243.837 80.3769 244.257 80.8286C244.852 81.4686 245.445 82.1106 246.044 82.7586Z" fill="white"/>
<path d="M235 188.581V271.762C235 279.242 228.927 285.292 221.442 285.292H64.5578C57.0624 285.292 51 279.242 51 271.762V188.581C51 181.112 57.0624 175.051 64.5578 175.051H221.453C228.927 175.051 235 181.112 235 188.581Z" fill="#2E2865"/>
<path d="M234.207 190.12H51.793V190.913H234.207V190.12Z" fill="#3E3789"/>
<path d="M234.207 210.74V211.533H52.0989C51.9787 211.533 51.8804 211.495 51.793 211.428V210.845C51.8804 210.779 51.9787 210.74 52.0989 210.74H234.207Z" fill="#3E3789"/>
<path d="M234.207 229.798V230.539C234.163 230.558 234.108 230.568 234.054 230.568H51.793V229.779H234.054C234.108 229.769 234.163 229.779 234.207 229.798Z" fill="#3E3789"/>
<path d="M234.207 250.395V251.189H51.935C51.8804 251.189 51.8367 251.179 51.793 251.16V250.415C51.8367 250.395 51.8804 250.395 51.935 250.395H234.207Z" fill="#3E3789"/>
<path d="M234.207 270.242V270.988C234.163 271.007 234.108 271.016 234.054 271.016H51.793V270.223H234.054C234.108 270.223 234.163 270.223 234.207 270.242Z" fill="#3E3789"/>
<path d="M65.2116 175H64.2334V285.292H65.2116V175Z" fill="#3E3789"/>
<path d="M85.5417 175H84.5635V285.292H85.5417V175Z" fill="#3E3789"/>
<path d="M104.682 175H103.704V285.292H104.682V175Z" fill="#3E3789"/>
<path d="M125.004 175H124.025V285.292H125.004V175Z" fill="#3E3789"/>
<path d="M145.347 175H144.369V285.292H145.347V175Z" fill="#3E3789"/>
<path d="M165.134 175H164.155V285.292H165.134V175Z" fill="#3E3789"/>
<path d="M185.464 175H184.485V285.292H185.464V175Z" fill="#3E3789"/>
<path d="M204.593 175H203.615V285.292H204.593V175Z" fill="#3E3789"/>
<path d="M224.925 175H223.946V285.292H224.925V175Z" fill="#3E3789"/>
<path d="M115.247 228.985C115.247 238.617 107.429 246.436 97.796 246.436C88.1632 246.436 80.3447 238.617 80.3447 228.985C80.3447 219.352 88.1632 211.533 97.796 211.533C107.429 211.577 115.247 219.352 115.247 228.985Z" fill="#38317B"/>
<path d="M213.586 193.292C213.586 195.043 212.165 196.464 210.414 196.464C208.663 196.464 207.241 195.043 207.241 193.292C207.241 191.541 208.663 190.12 210.414 190.12C212.165 190.12 213.586 191.541 213.586 193.292Z" fill="#FFB700"/>
<path d="M136.462 222.775V216.991L140.21 222.775H142.314V213.256H140.21V219.04L136.462 213.256H134.359V222.775H136.462ZM147.218 222.923C149.294 222.923 150.858 221.494 150.858 219.377C150.858 217.26 149.294 215.845 147.218 215.845C145.168 215.845 143.577 217.26 143.577 219.377C143.577 221.494 145.168 222.923 147.218 222.923ZM147.218 221.103C146.274 221.103 145.6 220.402 145.6 219.377C145.6 218.353 146.274 217.665 147.218 217.665C148.188 217.665 148.849 218.353 148.849 219.377C148.849 220.402 148.188 221.103 147.218 221.103ZM159.603 222.923C162.462 222.923 164.619 220.941 164.619 218.015C164.619 215.09 162.462 213.108 159.603 213.108C156.785 213.108 154.601 215.09 154.601 218.015C154.601 220.941 156.785 222.923 159.603 222.923ZM159.603 220.941C157.972 220.941 156.799 219.741 156.799 218.015C156.799 216.29 157.972 215.09 159.603 215.09C161.289 215.09 162.421 216.29 162.421 218.015C162.421 219.741 161.289 220.941 159.603 220.941ZM170.03 221.022C169.787 221.13 169.504 221.184 169.221 221.184C168.668 221.184 168.425 220.887 168.425 220.105V217.746H170.043V215.993H168.425V214.348H166.416V215.993H165.365V217.746H166.416V220.469C166.416 221.966 166.969 222.91 168.735 222.91C169.221 222.91 169.733 222.829 170.097 222.681L170.03 221.022ZM173.192 222.775V219.242C173.192 218.312 173.745 217.638 174.554 217.638C175.309 217.638 175.713 218.042 175.713 219.175V222.775H177.722V218.784C177.722 216.816 176.832 215.845 175.309 215.845C174.392 215.845 173.623 216.222 173.192 216.869V212.892H171.183V222.775H173.192ZM185.73 219.377C185.73 217.193 184.341 215.845 182.332 215.845C180.269 215.845 178.746 217.26 178.746 219.377C178.746 221.454 180.175 222.923 182.507 222.923C183.829 222.923 185.069 222.478 185.662 221.588L184.233 220.496C183.734 221.063 183.155 221.224 182.561 221.224C181.51 221.224 180.903 220.712 180.782 219.997H185.689C185.703 219.795 185.73 219.553 185.73 219.377ZM182.305 217.395C183.06 217.395 183.6 217.881 183.761 218.663H180.782C180.916 217.894 181.523 217.395 182.305 217.395ZM188.847 222.775V219.66C188.847 218.676 189.346 217.921 190.357 217.921C190.614 217.921 190.775 217.935 191.072 217.975L191.126 215.858C191.045 215.845 190.897 215.845 190.816 215.845C189.885 215.845 189.171 216.344 188.807 217.085V215.993H186.838V222.775H188.847ZM137.446 243.91C139.577 243.91 140.871 242.872 140.871 240.97C140.871 239.164 139.617 238.49 138.013 238.166C136.718 237.91 136.233 237.721 136.233 236.966C136.233 236.319 136.691 235.968 137.379 235.968C137.945 235.968 138.565 236.211 138.97 237.02L140.642 235.914C140.237 234.903 139.01 234.121 137.285 234.121C135.424 234.121 134.062 235.186 134.062 237.02C134.062 238.948 135.41 239.609 137.096 239.986C138.255 240.242 138.7 240.472 138.7 241.092C138.7 241.766 138.147 242.063 137.352 242.063C136.543 242.063 135.815 241.752 135.37 240.944L133.766 242.17C134.305 243.249 135.64 243.91 137.446 243.91ZM148.626 240.377C148.626 238.193 147.237 236.845 145.228 236.845C143.165 236.845 141.642 238.26 141.642 240.377C141.642 242.454 143.071 243.923 145.403 243.923C146.725 243.923 147.965 243.478 148.558 242.588L147.129 241.496C146.63 242.063 146.051 242.224 145.457 242.224C144.406 242.224 143.799 241.712 143.678 240.997H148.585C148.599 240.795 148.626 240.553 148.626 240.377ZM145.201 238.395C145.956 238.395 146.496 238.881 146.657 239.663H143.678C143.813 238.894 144.419 238.395 145.201 238.395ZM151.743 243.775V240.66C151.743 239.676 152.242 238.921 153.253 238.921C153.51 238.921 153.671 238.935 153.968 238.975L154.022 236.858C153.941 236.845 153.793 236.845 153.712 236.845C152.782 236.845 152.067 237.344 151.703 238.085V236.993H149.734V243.775H151.743ZM158.007 241.685L156.578 236.993H154.354L156.915 243.775H159.1L161.621 236.993H159.396L158.007 241.685ZM163.532 236.13C164.207 236.13 164.719 235.618 164.719 234.984C164.719 234.35 164.207 233.879 163.532 233.879C162.858 233.879 162.359 234.35 162.359 234.984C162.359 235.618 162.858 236.13 163.532 236.13ZM164.557 243.775V236.993H162.508V243.775H164.557ZM169.444 243.923C170.873 243.923 172.006 243.343 172.545 242.036L170.833 241.105C170.536 241.82 170.064 242.117 169.431 242.117C168.46 242.117 167.786 241.415 167.786 240.377C167.786 239.339 168.446 238.651 169.39 238.651C169.956 238.651 170.455 238.948 170.738 239.514L172.437 238.544C171.965 237.532 170.819 236.845 169.363 236.845C167.287 236.845 165.763 238.26 165.763 240.377C165.763 242.494 167.273 243.923 169.444 243.923ZM180.015 240.377C180.015 238.193 178.627 236.845 176.618 236.845C174.555 236.845 173.031 238.26 173.031 240.377C173.031 242.454 174.461 243.923 176.793 243.923C178.114 243.923 179.355 243.478 179.948 242.588L178.519 241.496C178.02 242.063 177.44 242.224 176.847 242.224C175.795 242.224 175.189 241.712 175.067 240.997H179.975C179.988 240.795 180.015 240.553 180.015 240.377ZM176.591 238.395C177.346 238.395 177.885 238.881 178.047 239.663H175.067C175.202 238.894 175.809 238.395 176.591 238.395ZM183.686 243.923C185.614 243.923 186.517 243.141 186.517 241.672C186.517 240.323 185.587 239.946 184.117 239.649C183.268 239.487 182.836 239.326 182.836 238.989C182.836 238.584 183.227 238.436 183.699 238.436C184.225 238.436 184.629 238.598 184.994 239.096L186.423 238.085C185.991 237.384 185.034 236.845 183.591 236.845C182.054 236.845 180.895 237.532 180.895 239.015C180.895 240.404 182.027 240.876 183.241 241.105C184.265 241.308 184.495 241.456 184.495 241.82C184.495 242.211 184.225 242.4 183.699 242.4C183.012 242.4 182.432 242.076 182.027 241.51L180.652 242.467C181.124 243.424 182.203 243.923 183.686 243.923Z" fill="white"/>
<path d="M133.482 218.717H191.382V219.391H133.482V218.717ZM133.482 239.717H186.841V240.391H133.482V239.717Z" fill="white"/>
<path d="M114.531 229.038C114.523 238.255 107.032 245.738 97.8309 245.722C88.5902 245.705 81.1201 238.218 81.1377 228.992C81.1554 219.782 88.65 212.313 97.8593 212.327C107.074 212.339 114.539 219.821 114.531 229.038ZM111.329 229.028C111.328 221.591 105.303 215.56 97.8564 215.542C90.4039 215.525 84.3545 221.564 84.3535 229.023C84.3525 236.473 90.4342 242.554 97.8524 242.519C105.307 242.483 111.33 236.454 111.329 229.028Z" fill="#E5E4EC"/>
<path d="M97.858 233.785C96.74 234.904 95.6858 235.975 94.6099 237.025C94.4639 237.167 94.2151 237.268 94.0093 237.276C93.1911 237.306 92.372 237.3 91.5529 237.286C91.4138 237.284 91.2433 237.211 91.1443 237.113C90.2203 236.205 89.3081 235.285 88.393 234.368C88.0882 234.061 88.0873 233.985 88.393 233.679C89.8353 232.234 91.2776 230.79 92.7247 229.351C92.8276 229.249 92.9677 229.184 93.1177 229.085C92.033 228.006 91.0375 227.015 90.042 226.024C89.4796 225.464 88.9221 224.897 88.3538 224.342C88.1333 224.127 88.1186 223.945 88.344 223.723C89.2895 222.784 90.2262 221.837 91.1727 220.9C91.2491 220.824 91.3814 220.77 91.4892 220.769C92.3691 220.758 93.2499 220.751 94.1288 220.774C94.2866 220.777 94.4737 220.885 94.5923 221.002C95.5868 221.978 96.5686 222.966 97.5533 223.953C97.6395 224.039 97.711 224.139 97.8815 224.341C97.9952 224.165 98.0559 224.022 98.1578 223.92C99.121 222.947 100.084 221.974 101.067 221.021C101.213 220.879 101.463 220.781 101.669 220.774C102.449 220.746 103.233 220.748 104.014 220.774C104.209 220.78 104.446 220.871 104.584 221.005C105.489 221.88 106.373 222.777 107.262 223.668C107.577 223.982 107.577 224.074 107.264 224.387C105.822 225.831 104.379 227.276 102.933 228.717C102.838 228.812 102.726 228.888 102.605 228.986C102.728 229.116 102.808 229.205 102.893 229.289C104.344 230.742 105.797 232.194 107.248 233.646C107.576 233.975 107.579 234.074 107.257 234.396C106.368 235.287 105.482 236.181 104.58 237.059C104.455 237.181 104.246 237.274 104.074 237.28C103.231 237.304 102.388 237.306 101.544 237.285C101.385 237.281 101.198 237.173 101.079 237.055C100.093 236.088 99.119 235.107 98.1451 234.129C98.052 234.032 97.9736 233.922 97.858 233.785ZM91.5068 221.534C90.6358 222.399 89.7912 223.237 88.9064 224.116C88.976 224.17 89.0818 224.236 89.168 224.321C90.6132 225.763 92.0565 227.206 93.4988 228.65C93.8378 228.989 93.8378 229.061 93.5047 229.394C92.0624 230.838 90.6181 232.281 89.1749 233.725C89.0818 233.818 88.9936 233.915 88.9289 233.983C89.7784 234.838 90.6113 235.675 91.5245 236.594C91.5842 236.501 91.6391 236.369 91.7312 236.276C93.1617 234.838 94.5982 233.404 96.0326 231.97C96.403 231.6 96.4677 231.598 96.8312 231.961C98.2627 233.398 99.6942 234.836 101.122 236.278C101.215 236.372 101.272 236.502 101.3 236.547C102.21 235.636 103.052 234.797 103.903 233.946C102.409 232.455 100.879 230.926 99.3483 229.397C99.0132 229.062 99.0142 228.988 99.3493 228.652C100.766 227.234 102.183 225.816 103.604 224.402C103.723 224.283 103.875 224.196 103.997 224.107C103.086 223.197 102.25 222.36 101.349 221.459C101.282 221.553 101.219 221.676 101.126 221.77C99.6873 223.218 98.246 224.663 96.8037 226.109C96.4804 226.433 96.3834 226.432 96.0561 226.105C94.9401 224.991 93.8251 223.877 92.711 222.76C92.2907 222.337 91.8752 221.909 91.5068 221.534Z" fill="black"/>
<path d="M91.5077 221.534C91.8761 221.909 92.2915 222.337 92.7128 222.76C93.8259 223.876 94.9419 224.99 96.0579 226.105C96.3852 226.432 96.4822 226.433 96.8055 226.109C98.2478 224.663 99.6891 223.219 101.128 221.77C101.221 221.676 101.284 221.553 101.351 221.459C102.251 222.36 103.088 223.197 103.998 224.107C103.878 224.196 103.726 224.282 103.605 224.402C102.185 225.816 100.768 227.234 99.3511 228.652C99.015 228.988 99.015 229.063 99.3501 229.397C100.88 230.926 102.411 232.455 103.904 233.946C103.053 234.797 102.212 235.636 101.302 236.547C101.273 236.502 101.217 236.372 101.124 236.278C99.696 234.836 98.2645 233.398 96.833 231.961C96.4704 231.597 96.4058 231.599 96.0344 231.97C94.599 233.404 93.1636 234.838 91.733 236.276C91.6399 236.369 91.5851 236.501 91.5263 236.594C90.6131 235.676 89.7802 234.838 88.9307 233.983C88.9954 233.915 89.0846 233.818 89.1767 233.725C90.6199 232.28 92.0632 230.838 93.5065 229.394C93.8396 229.06 93.8396 228.989 93.5006 228.65C92.0583 227.206 90.615 225.763 89.1698 224.321C89.0836 224.235 88.9778 224.17 88.9082 224.116C89.792 223.237 90.6356 222.399 91.5077 221.534Z" fill="#E2209E"/>
<path d="M238.462 260.555C257.495 260.555 272.925 249.909 272.925 236.777C272.925 223.646 257.495 213 238.462 213C219.429 213 204 223.646 204 236.777C204 249.909 219.429 260.555 238.462 260.555Z" fill="#E7E3FF"/>
<path d="M238.463 255.576L210.271 274.524L221.908 252.381L238.463 255.576Z" fill="#E7E3FF"/>
<defs>
<linearGradient id="paint0_linear_84_37662" x1="291.5" y1="32" x2="291.5" y2="490" gradientUnits="userSpaceOnUse">
<stop stop-color="#E2209E"/>
<stop offset="1" stop-color="#02201E"/>
</linearGradient>
</defs>
</svg>
