<svg width="206" height="206" viewBox="0 0 206 206" fill="none" xmlns="http://www.w3.org/2000/svg">
<path d="M161.859 183.854C162.2 183.603 162.589 183.316 162.923 183.055C162.929 183.051 162.938 183.044 162.952 183.035L162.961 183.029C163.003 182.999 163.101 182.93 163.211 182.845C166.92 180.076 170.41 177.034 173.661 173.783C175.67 171.774 177.615 169.658 179.454 167.478C179.773 167.112 180.069 166.748 180.358 166.372C180.761 165.882 181.161 165.378 181.539 164.901L181.548 164.889C183.587 162.313 185.496 159.631 187.276 156.843C197.23 141.31 203 122.815 203 103C203 47.7667 158.239 3 103.01 3C47.783 3 3 47.7658 3 103C3 123.139 8.96365 141.869 19.1937 157.57C20.6367 159.787 22.1649 161.948 23.7983 164.051C23.8647 164.154 23.9482 164.271 24.0497 164.392C24.347 164.772 24.6396 165.128 24.9319 165.479C25.5643 166.279 26.2262 167.091 26.9157 167.888C27.7096 168.828 28.5549 169.805 29.457 170.753C30.1131 171.472 30.8012 172.203 31.5181 172.92C34.0006 175.445 36.6086 177.839 39.32 180.103L39.3313 180.112L39.3426 180.121C39.5637 180.302 39.8002 180.493 40.0675 180.69C41.9821 182.261 43.9616 183.75 45.9862 185.136C47.0845 185.903 48.2161 186.673 49.4038 187.409C49.7502 187.644 50.0981 187.844 50.3501 187.987C51.3081 188.59 52.2916 189.176 53.2817 189.726C53.7297 190.005 54.1828 190.255 54.5576 190.461L54.5884 190.478L54.64 190.506L54.6597 190.516C54.6599 190.516 54.6601 190.516 54.6602 190.516L54.6669 190.52C54.6961 190.537 54.7644 190.576 54.8503 190.621C58.4793 192.625 62.2213 194.4 66.0965 195.921C70.5644 197.725 75.1798 199.184 79.9407 200.299C81.5672 200.684 83.2139 201.027 84.8807 201.326C87.5201 201.837 90.1987 202.22 92.8963 202.478C93.2297 202.529 93.5234 202.554 93.7529 202.574L93.8773 202.584H93.8912C93.9164 202.586 93.9457 202.589 93.9764 202.592C94.0131 202.595 94.0547 202.598 94.101 202.6C95.6611 202.746 97.2221 202.851 98.8035 202.914C100.213 202.979 101.632 203 103.01 203C110.061 203 116.923 202.271 123.572 200.877C128.174 199.931 132.638 198.642 136.963 197.079L136.964 197.078C140.221 195.9 143.41 194.551 146.512 193.055C147.223 192.721 147.905 192.369 148.531 192.046L148.54 192.041C151.417 190.591 154.203 188.976 156.878 187.24C157.129 187.099 157.387 186.943 157.655 186.758C157.895 186.601 158.129 186.445 158.35 186.298C158.586 186.141 158.807 185.993 159.032 185.847L157.393 183.334L159.032 185.847C159.573 185.494 160.082 185.124 160.523 184.803C160.524 184.802 160.525 184.801 160.527 184.8L160.9 184.542L161.306 184.261L161.353 184.228L161.398 184.194C161.531 184.094 161.689 183.978 161.859 183.854Z" fill="#110828" stroke="#FF008A" stroke-width="6"/>
<path d="M145.139 129.236C145.139 129.236 143.412 36.3769 110.583 33.0271C77.7541 29.6772 73.8429 52.7517 73.8429 52.7517C73.8429 52.7517 65.6668 55.6646 64.0025 68.1485C62.3381 80.6324 61.5684 130.443 61.5684 130.443L135.715 134.688L145.139 129.236Z" fill="#5E1DBB"/>
<path d="M179.195 163.027C178.8 163.526 178.405 164.025 178.01 164.504C177.739 164.858 177.469 165.191 177.177 165.524C175.388 167.646 173.495 169.706 171.54 171.661C168.377 174.824 164.986 177.779 161.387 180.463C161.283 180.546 161.179 180.608 161.075 180.692C160.596 181.066 160.097 181.42 159.598 181.794C159.327 181.982 159.057 182.169 158.786 182.356C158.329 182.689 157.871 183.022 157.393 183.334C156.914 183.646 156.456 183.958 155.978 184.27C155.77 184.416 155.562 184.541 155.333 184.666C152.712 186.372 149.986 187.953 147.178 189.368C146.533 189.701 145.888 190.034 145.222 190.346C142.205 191.802 139.106 193.113 135.943 194.257C131.741 195.776 127.414 197.025 122.962 197.94C116.512 199.293 109.855 200 103.01 200C101.658 200 100.285 199.979 98.9325 199.917C97.3722 199.854 95.8327 199.75 94.2932 199.605C94.1892 199.605 94.106 199.584 94.0019 199.584C91.1101 199.313 88.2391 198.918 85.4306 198.377C83.8078 198.086 82.2059 197.753 80.6248 197.378C76.0062 196.296 71.5333 194.882 67.206 193.134C63.4404 191.657 59.7997 189.93 56.263 187.974C56.1797 187.932 56.1173 187.891 56.0341 187.849C55.618 187.62 55.2019 187.391 54.8067 187.142C53.8289 186.601 52.851 186.018 51.8941 185.415C46.2353 161.945 44.2797 141.076 51.686 132.358C52.0813 131.859 52.539 131.401 53.0175 130.964C54.8483 129.403 56.8039 127.968 58.8427 126.615C58.9259 126.574 58.9883 126.532 59.0507 126.491C62.4418 124.306 66.0826 122.412 69.9106 120.79C69.9522 120.769 70.0146 120.748 70.0354 120.748C94.6885 110.47 126.457 112.176 143.787 119.416C154.854 124.035 168.502 144.301 179.195 163.027Z" fill="#9364ED"/>
<path d="M87.8438 95.9679V118.772C87.8438 118.772 91.963 125.326 105.299 126.408C115.243 127.219 118.384 122.122 118.384 122.122L115.971 102.168L91.8798 96.8626L87.8438 95.9679Z" fill="#FD8753"/>
<path d="M87.8857 94.5729C87.9482 95.1971 88.177 95.9253 88.5515 96.7784C93.6485 108.18 111.603 112.903 117.345 113.424L115.972 102.167L87.8857 94.5729Z" fill="black"/>
<path d="M160.305 175.385L159.598 181.794C159.327 181.981 159.057 182.168 158.786 182.356C158.329 182.688 157.871 183.021 157.392 183.333L158.308 175.177C159.889 161.112 152.899 143.676 152.815 143.51C152.607 142.969 152.857 142.386 153.377 142.199C153.897 141.97 154.459 142.241 154.688 142.74C154.958 143.489 161.928 160.821 160.305 175.385Z" fill="white"/>
<path d="M121.069 50.1929C121.069 50.1929 133.031 78.7811 128.309 94.6773C123.586 110.573 109.086 107.827 100.452 104.602C91.7973 101.377 87.8445 95.9881 87.8445 95.9881C87.8445 95.9881 79.6684 98.6097 74.3633 90.9737C69.0374 83.3377 72.5325 74.703 77.1927 72.7888C81.8528 70.8746 87.3244 74.3077 87.3244 74.3077L83.1219 65.9851C83.1219 65.9851 101.971 24.3304 121.069 50.1929Z" fill="#FD8753"/>
<path d="M119.217 86.3963C119.113 86.3963 118.988 86.3755 118.884 86.3339C118.343 86.1466 118.052 85.564 118.218 85.023C119.924 79.9046 116.18 74.2036 116.138 74.162C115.826 73.6835 115.951 73.0385 116.429 72.7264C116.908 72.4143 117.553 72.5391 117.865 73.0177C118.052 73.2881 122.213 79.6133 120.195 85.7097C120.049 86.105 119.654 86.3963 119.217 86.3963Z" fill="black"/>
<path d="M85.8466 87.7279C85.5553 87.7279 85.2848 87.603 85.0768 87.3742L77.5456 79.0307C77.1504 78.5938 77.192 77.9488 77.6289 77.5535C78.0449 77.1582 78.7107 77.1998 79.106 77.6367L86.6371 85.9801C87.0324 86.4171 86.9908 87.0621 86.5539 87.4574C86.3459 87.6446 86.0962 87.7279 85.8466 87.7279Z" fill="black"/>
<path d="M77.7129 85.3568C77.1928 85.3568 76.7559 84.9822 76.6727 84.4413C76.5895 83.8795 77.0056 83.3593 77.5673 83.2761L82.914 82.5895C83.4757 82.5271 83.9958 82.9224 84.0791 83.4842C84.1623 84.0459 83.7462 84.5661 83.1845 84.6493L77.8378 85.3359C77.817 85.3567 77.7754 85.3568 77.7129 85.3568Z" fill="black"/>
<path d="M125.271 63.2595C125.209 63.2595 125.126 63.2595 125.063 63.2387L120.049 62.24C119.488 62.136 119.113 61.5742 119.238 61.0124C119.342 60.4506 119.904 60.0761 120.465 60.2009L125.479 61.1997C126.041 61.3037 126.415 61.8655 126.291 62.4272C126.187 62.9266 125.75 63.2595 125.271 63.2595Z" fill="black"/>
<path d="M104.217 66.0481C103.822 66.0481 103.447 65.8192 103.281 65.4447C103.031 64.9245 103.26 64.3003 103.78 64.0506L110.5 60.8464C111.02 60.5968 111.644 60.8256 111.894 61.3458C112.144 61.8659 111.915 62.4901 111.395 62.7398L104.675 65.944C104.529 66.0272 104.363 66.0481 104.217 66.0481Z" fill="black"/>
<path d="M122.961 74.9321C122.504 74.9321 122.088 74.6408 121.963 74.1622L120.527 69.0022C120.444 68.6693 120.507 68.3156 120.735 68.0451L122.358 66.1517C122.733 65.7148 123.398 65.6732 123.814 66.0477C124.251 66.4222 124.293 67.088 123.918 67.525L122.649 68.9814L123.939 73.6005C124.085 74.1622 123.773 74.724 123.211 74.8905C123.128 74.9113 123.045 74.9321 122.961 74.9321Z" fill="black"/>
<path d="M106.568 75.9517C106.111 75.9517 105.694 75.6604 105.57 75.1819L104.134 70.0218C104.03 69.6889 104.134 69.3144 104.363 69.0439L106.61 66.568C107.005 66.1519 107.65 66.1102 108.087 66.4847C108.524 66.8801 108.545 67.5251 108.17 67.962L106.319 70.0218L107.608 74.6409C107.754 75.2027 107.442 75.7645 106.88 75.9309C106.756 75.9309 106.651 75.9517 106.568 75.9517Z" fill="black"/>
<path d="M129.245 60.3465C129.245 60.3465 121.36 58.7652 115.847 58.9733C110.313 59.1813 110.313 59.1814 110.313 59.1814L108.066 50.297L108.087 59.9928C108.087 59.9928 104.176 60.6586 100.327 62.6768C96.4573 64.6951 93.8983 67.1919 93.8983 67.1919L90.2368 59.7223L91.7763 69.1269L87.3034 74.3077L80.542 67.9825L84.8693 54.8536C84.8693 54.8536 95.0634 40.6219 95.8539 40.4347C96.6445 40.2682 111.353 39.4568 111.353 39.4568C111.353 39.4568 124.002 44.4087 124.314 44.8248C124.626 45.241 129.245 60.3465 129.245 60.3465Z" fill="#5E1DBB"/>
<path d="M107.068 126.761C101.264 126.761 94.0449 125.2 86.3057 119.832C85.8272 119.499 85.7232 118.854 86.0352 118.376C86.3681 117.897 87.013 117.793 87.4915 118.105C104.905 130.152 118.927 122.183 119.509 121.85C120.009 121.559 120.633 121.725 120.924 122.225C121.215 122.724 121.049 123.348 120.55 123.64C120.466 123.702 115.161 126.761 107.068 126.761Z" fill="white"/>
<path d="M93.2745 199.5C90.6323 199.251 88.011 198.876 85.4313 198.377C83.8085 198.085 82.2066 197.752 80.6255 197.378C76.0069 196.296 71.534 194.881 67.2067 193.133C63.4411 191.656 59.8004 189.929 56.2636 187.973C56.1804 187.932 56.118 187.89 56.0348 187.849C55.6187 187.62 55.2026 187.391 54.8073 187.141C53.8295 186.6 52.8517 186.018 51.8947 185.414C51.6035 185.248 51.3122 185.081 51.0418 184.894C49.8975 184.187 48.7949 183.438 47.6923 182.668C45.7159 181.315 43.7811 179.859 41.9087 178.319C41.6798 178.153 41.4718 177.986 41.2429 177.799C38.6008 175.594 36.0627 173.263 33.6494 170.808C32.9628 170.121 32.2971 169.414 31.6522 168.707C30.7992 167.812 29.9878 166.876 29.1973 165.939C35.7298 149.814 44.218 139.203 51.6867 132.358C54.2248 130.027 56.6589 128.155 58.8434 126.615C58.9266 126.573 58.989 126.532 59.0514 126.49C64.7726 122.579 69.0167 121.06 69.9113 120.789C69.9529 120.768 70.0153 120.748 70.0361 120.748C70.0569 120.748 93.2745 199.5 93.2745 199.5Z" fill="#9364ED"/>
<path d="M116.221 95.0727C113.974 95.0727 111.186 92.8672 110.271 92.0766C109.938 91.7853 109.813 91.3276 109.98 90.9114C110.146 90.4953 110.583 90.2664 110.978 90.2456L120.278 90.4121C120.694 90.4121 121.068 90.6825 121.214 91.0571C121.38 91.4316 121.297 91.8893 121.006 92.1806C120.944 92.243 119.529 93.6995 117.532 94.7606C117.116 94.9895 116.679 95.0727 116.221 95.0727ZM114.411 92.4095C115.347 92.8881 116.159 93.1585 116.533 92.9505C116.824 92.784 117.095 92.6175 117.365 92.4511L114.411 92.4095Z" fill="black"/>
<path d="M87.8438 95.5308C87.8438 98.1524 85.701 100.296 83.0796 100.296C80.4583 100.296 78.3154 98.1524 78.3154 95.5308C78.3154 92.9092 80.4583 90.7661 83.0796 90.7661C85.701 90.7661 87.8438 92.8884 87.8438 95.5308Z" fill="#07CBF5"/>
</svg>
