<svg width="206" height="206" viewBox="0 0 206 206" fill="none" xmlns="http://www.w3.org/2000/svg">
<path d="M12.7391 146.095L12.7421 146.102C13.2957 147.251 13.8741 148.409 14.4772 149.551L12.7391 146.095ZM12.7391 146.095C6.49544 133.049 3.00002 118.417 3.00002 103C3.00002 47.7662 47.7826 3 102.99 3C158.217 3 203 47.7658 203 103C203 125.577 195.518 146.426 182.869 163.177C182.553 163.606 182.219 164.029 181.888 164.428C176.75 171.037 170.8 176.986 164.163 182.105C163.085 182.945 162.01 183.74 160.901 184.53L160.898 184.531C159.443 185.565 157.922 186.595 156.365 187.549C155.568 188.078 154.761 188.557 154.026 188.995L153.997 189.012L12.7391 146.095ZM63.6083 194.942L63.6361 194.953C63.7189 194.987 63.8278 195.033 63.953 195.086C64.2691 195.22 64.6891 195.398 65.0556 195.534C76.7567 200.349 89.567 203 102.99 203C113.836 203 124.3 201.264 134.081 198.068C135.672 197.552 137.242 196.993 138.791 196.391C144.11 194.353 149.172 191.886 153.996 189.013L63.6083 194.942ZM63.6083 194.942L63.5808 194.93M63.6083 194.942L63.5808 194.93M63.5808 194.93C58.34 192.662 53.3035 189.984 48.5588 186.893C47.6441 186.305 46.7584 185.7 45.8841 185.081M63.5808 194.93L45.8841 185.081M45.8841 185.081C32.7864 175.946 21.982 163.768 14.4776 149.551L45.8841 185.081Z" fill="#110828" stroke="#FF008A" stroke-width="6"/>
<path d="M133.154 195.214C134.694 194.715 136.213 194.174 137.71 193.591C145.387 190.657 152.565 186.766 159.16 182.085C160.241 181.315 161.282 180.545 162.322 179.734C168.771 174.761 174.555 168.977 179.548 162.548C167.814 142.303 149.444 118.792 127.537 118.854C102.426 119.02 118.82 164.108 133.154 195.214Z" fill="#FFB700"/>
<path d="M87.2204 57.9957C87.2204 57.9957 57.5535 50.006 35.5009 77.0336C13.4276 104.061 27.1376 137.331 62.1096 136.374C97.0608 135.417 105.195 99.6919 105.195 99.6919L87.2204 57.9957Z" fill="white"/>
<path d="M47.6074 182.626C48.4604 183.23 49.3134 183.812 50.1871 184.374C54.7849 187.37 59.6739 189.971 64.771 192.177C65.2287 192.364 65.6864 192.572 66.1441 192.738C77.5032 197.42 89.9441 200 102.988 200C113.515 200 123.668 198.314 133.155 195.214C134.694 194.715 136.213 194.174 137.711 193.591C145.388 190.658 152.565 186.767 159.16 182.085C160.242 181.316 161.282 180.546 162.322 179.734C160.325 157.284 157.496 138.35 153.564 133.377C146.241 124.118 137.648 120.727 127.537 118.854C122.17 117.876 116.449 117.335 110.27 116.566C101.22 115.463 90.2978 115.692 80.5406 116.69H80.4158C70.8458 117.648 62.3785 119.375 57.9055 121.31C53.9943 122.995 50.2288 150.938 47.6074 182.626Z" fill="#FFB700"/>
<path d="M125.397 97.799C126.645 103.458 130.036 107.537 132.99 106.892C135.945 106.247 137.338 101.128 136.09 95.4479C134.842 89.7886 131.451 85.7104 128.497 86.3554C125.542 87.0212 124.148 92.1396 125.397 97.799Z" fill="#07CBF5"/>
<path d="M17.1297 148.15C24.4112 161.945 34.8966 173.763 47.608 182.627C48.461 183.23 49.3139 183.813 50.1877 184.374C54.7855 187.371 59.6745 189.971 64.7715 192.177C65.2292 192.364 65.6869 192.572 66.1446 192.739L85.3262 116.691C85.3262 116.691 83.5786 116.545 80.5412 116.691H80.4164C69.4733 117.211 42.0116 121.351 17.1297 148.15Z" fill="#FFB700"/>
<path d="M131.762 80.2377C131.762 80.2377 140.188 71.2701 138.086 57.0801C136.651 47.4675 132.448 44.284 132.448 44.284C132.448 44.284 139.189 31.3216 119.841 31.7377C100.472 32.1538 84.6193 30.5101 75.9855 47.1553C70.9093 56.976 72.9273 78.2819 72.9273 78.2819L131.762 80.2377Z" fill="white"/>
<path d="M88.9855 95.344L89.1311 118.98C89.1311 118.98 93.4376 125.742 107.252 126.783C117.55 127.553 120.774 122.247 120.774 122.247L118.153 101.586L93.1671 96.2387L88.9855 95.344Z" fill="#FD8753"/>
<path d="M89.0096 93.9083C89.072 94.5533 89.3216 95.3232 89.7169 96.1762C95.0636 107.953 113.704 112.759 119.654 113.258L118.177 101.586L89.0096 93.9083Z" fill="black"/>
<path d="M123.107 47.7175C123.107 47.7175 135.673 77.2628 130.888 93.7624C126.103 110.241 111.061 107.495 102.074 104.228C93.0864 100.941 88.9672 95.3853 88.9672 95.3853C88.9672 95.3853 80.5206 98.1525 74.9659 90.2668C69.4112 82.3812 72.9687 73.4344 77.7953 71.4161C82.6219 69.3979 88.3014 72.935 88.3014 72.935L83.9117 64.3419C83.9117 64.3003 103.177 21.0228 123.107 47.7175Z" fill="#FD8753"/>
<path d="M88.3032 72.9124C88.3032 72.9124 100.911 75.7005 109.96 61.8018C119.01 47.8822 118.324 42.098 118.324 42.098L126.791 56.8082C126.791 56.8082 128.934 46.7586 125.044 40.267C121.132 33.7546 116.93 35.0238 116.93 35.0238L88.9065 41.453L81.1257 63.6743L88.3032 72.9124Z" fill="white"/>
<path d="M121.423 85.1892C121.859 85.1892 122.275 84.9187 122.421 84.4818C124.481 78.1774 120.133 71.665 119.945 71.3946C119.613 70.916 118.968 70.7912 118.51 71.1241C118.031 71.4362 117.907 72.102 118.239 72.5597C118.281 72.6221 122.213 78.5103 120.466 83.8368C120.278 84.3778 120.59 84.9604 121.131 85.1476C121.194 85.1684 121.298 85.1892 121.423 85.1892Z" fill="black"/>
<path d="M86.8456 86.7926C87.0952 86.7926 87.3449 86.7093 87.5529 86.5221C87.969 86.1268 88.0106 85.4818 87.6153 85.0448L79.7513 76.4517C79.356 76.0356 78.7111 75.994 78.2742 76.3893C77.8581 76.7846 77.8165 77.4296 78.2118 77.8666L86.0758 86.4597C86.2839 86.6677 86.5751 86.7926 86.8456 86.7926Z" fill="black"/>
<path d="M78.4221 84.3785C78.4637 84.3785 78.5053 84.3785 78.5677 84.3785L84.1016 83.6295C84.6634 83.5463 85.0794 83.0262 84.9962 82.4645C84.913 81.9028 84.3929 81.4867 83.8312 81.5699L78.2972 82.3189C77.7355 82.4021 77.3194 82.9222 77.4026 83.484C77.4651 84.0041 77.9228 84.3785 78.4221 84.3785Z" fill="black"/>
<path d="M127.539 61.1996C128.018 61.1996 128.455 60.8459 128.559 60.3674C128.663 59.8057 128.288 59.2648 127.727 59.14L123.649 58.3494C123.108 58.2454 122.546 58.599 122.422 59.1815C122.318 59.7433 122.692 60.2842 123.254 60.409L127.331 61.1996C127.415 61.1996 127.477 61.1996 127.539 61.1996Z" fill="black"/>
<path d="M108.15 62.3855C108.275 62.3855 108.4 62.3647 108.504 62.323L114.766 59.993C115.307 59.7849 115.577 59.2024 115.369 58.6615C115.161 58.1206 114.558 57.8501 114.038 58.0582L107.776 60.3883C107.235 60.5963 106.964 61.1788 107.172 61.7197C107.339 62.115 107.734 62.3855 108.15 62.3855Z" fill="black"/>
<path d="M127.311 73.289C127.394 73.289 127.498 73.2682 127.602 73.2474C128.164 73.081 128.476 72.5192 128.31 71.9574L126.937 67.1511L128.247 65.6114C128.622 65.1745 128.559 64.5087 128.122 64.155C127.686 63.7805 127.02 63.8429 126.645 64.2798L124.981 66.2356C124.752 66.5061 124.669 66.8598 124.773 67.1927L126.312 72.54C126.437 72.9769 126.853 73.289 127.311 73.289Z" fill="black"/>
<path d="M112.414 74.4112C112.498 74.4112 112.602 74.3904 112.706 74.3696C113.267 74.2032 113.579 73.6414 113.413 73.0796L112.04 68.2941L113.954 66.1302C114.328 65.6933 114.308 65.0483 113.871 64.653C113.434 64.2784 112.789 64.2993 112.394 64.7362L110.084 67.3162C109.855 67.5867 109.751 67.9612 109.855 68.2941L111.374 73.6414C111.541 74.1199 111.957 74.4112 112.414 74.4112Z" fill="black"/>
<path d="M117.135 92.8665C117.822 92.8665 118.508 92.7209 119.174 92.388C119.694 92.1175 119.882 91.4934 119.611 90.9941C119.341 90.4948 118.716 90.2868 118.217 90.5572C115.887 91.7847 111.643 88.1023 110.353 86.7292C109.958 86.3131 109.292 86.2923 108.876 86.6876C108.46 87.0829 108.439 87.7486 108.834 88.1647C109.334 88.6848 113.391 92.8665 117.135 92.8665Z" fill="black"/>
<path d="M120.217 117.752L133.386 119.395C133.386 119.395 131.742 135.604 109.586 137.601C87.4291 139.598 72.5332 117.502 72.5332 117.502L95.8132 114.672L120.217 117.752Z" fill="#FD8753"/>
<path d="M82.2679 109.988C79.2404 109.8 77.0777 104.952 77.4375 99.16C77.7973 93.368 80.5433 88.825 83.5708 89.0131C86.5984 89.2012 88.7611 94.049 88.4013 99.841C88.0415 105.633 85.2955 110.176 82.2679 109.988Z" fill="#07CBF5"/>
<path d="M141.498 146.423C141.644 146.652 155.146 166.834 152.462 186.434C153.232 185.976 154.002 185.519 154.751 185.019C156.665 165.315 143.849 146.194 143.225 145.258C142.892 144.779 142.247 144.655 141.769 144.987C141.29 145.3 141.165 145.945 141.498 146.423Z" fill="#E2209E"/>
</svg>
