<svg width="206" height="206" viewBox="0 0 206 206" fill="none" xmlns="http://www.w3.org/2000/svg">
<path d="M168.341 178.696C171.306 176.14 174.093 173.416 176.725 170.548C193.046 152.767 203 129.038 203 103C203 47.7658 158.217 3 102.99 3C47.7826 3 3 47.7662 3 103C3 122.751 8.72695 141.181 18.6371 156.713C25.7788 167.909 35.0859 177.582 45.9798 185.152L47.6918 182.689L45.9798 185.153C51.8121 189.206 58.095 192.658 64.7429 195.425L64.7491 195.428C76.526 200.298 89.4391 203 102.99 203H103.009C103.745 203 104.546 203 105.354 202.978M168.341 178.696C151.379 193.366 129.414 202.419 105.354 202.978M168.341 178.696C168.341 178.697 168.34 178.698 168.34 178.698L166.38 176.426M168.341 178.696C168.342 178.696 168.342 178.696 168.343 178.695L166.38 176.426M105.354 202.978C105.352 202.978 105.35 202.978 105.348 202.978L105.278 199.979M105.354 202.978C105.355 202.978 105.357 202.978 105.359 202.978L105.278 199.979M105.278 199.979C128.62 199.438 149.924 190.658 166.38 176.426M105.278 199.979C104.509 200 103.74 200 102.991 200H102.99C89.8413 200 77.3171 197.378 65.8955 192.655L166.38 176.426" fill="#110828" stroke="#FF008A" stroke-width="6"/>
<path d="M47.6922 182.688C53.351 186.621 59.4467 189.97 65.896 192.655C77.3176 197.378 89.8417 199.999 102.99 199.999C103.739 199.999 104.509 199.999 105.279 199.978C128.621 199.437 149.925 190.657 166.381 176.425C169.252 173.949 171.956 171.307 174.515 168.519C167.691 153.726 151.859 125.824 127.102 119.124C126.811 119.041 126.52 118.979 126.249 118.895C97.6017 111.655 58.7393 118.417 51.0001 124.222C47.8171 126.844 47.2554 152.872 47.6922 182.688Z" fill="#00918A"/>
<path d="M120.403 67.1923C120.403 67.1923 136.527 47.2596 129.765 39.3324C123.004 31.4259 112.539 39.3324 112.539 39.3324C112.539 39.3324 111.957 29.9694 101.534 30.9473C91.1108 31.9044 84.8279 43.0359 84.8279 43.0359C84.8279 43.0359 75.6532 33.8602 69.3703 43.0359C63.0874 52.2116 67.4355 67.1923 67.4355 67.1923C67.4355 67.1923 60.1956 66.1103 62.1304 74.6202C64.0652 83.1301 75.466 91.9104 75.466 91.9104L120.403 67.1923Z" fill="#BB1D1D"/>
<path d="M85.1382 98.5885L84.8262 121.08C84.8262 121.08 88.7998 127.593 101.927 128.841C111.705 129.777 115.18 127.593 115.18 127.593L113.973 116.191L112.787 105.059L89.1119 99.504L85.1382 98.5885Z" fill="#FD8753"/>
<path d="M89.0938 99.5256C89.1354 100.15 89.3642 100.878 89.7179 101.71C94.6069 113.008 108.317 115.609 113.976 116.192L112.79 105.06L89.0938 99.5256Z" fill="black"/>
<path d="M118.489 53.876C118.489 53.876 129.911 82.2353 125.043 97.8194C120.174 113.424 105.923 110.532 97.4352 107.245C88.9471 103.957 85.1191 98.5892 85.1191 98.5892C85.1191 98.5892 77.0262 101.065 71.8875 93.4708C66.7489 85.8764 70.2856 77.4082 74.925 75.5772C79.5643 73.7462 84.8902 77.2001 84.8902 77.2001L80.8542 68.9399C80.875 68.9607 100.015 28.1383 118.489 53.876Z" fill="#FD8753"/>
<path d="M83.9113 89.4953C83.7033 89.4953 83.4744 89.4329 83.2872 89.2872L74.8198 83.0252C74.3621 82.6923 74.2581 82.0266 74.6118 81.5689C74.9447 81.1112 75.6104 81.0071 76.0681 81.3608L84.5354 87.6229C84.9931 87.9558 85.0972 88.6215 84.7435 89.0792C84.5562 89.3497 84.2442 89.4953 83.9113 89.4953Z" fill="black"/>
<path d="M74.6968 89.2466C74.2183 89.2466 73.8022 88.9346 73.6774 88.4561C73.5317 87.8943 73.8854 87.3326 74.4471 87.2078L81.1461 85.5851C81.7078 85.4394 82.2695 85.7931 82.3943 86.3548C82.54 86.9165 82.1863 87.4783 81.6246 87.6031L74.9256 89.2258C74.8632 89.2258 74.78 89.2466 74.6968 89.2466Z" fill="black"/>
<path d="M100.244 67.0664C100.12 67.0664 100.016 67.0456 99.8908 67.004C99.3499 66.8167 99.0586 66.2134 99.2667 65.6725C100.973 60.8875 105.154 60.305 107.131 60.6587C107.692 60.7627 108.067 61.3036 107.963 61.8653C107.859 62.427 107.339 62.8015 106.756 62.6975C106.59 62.6767 102.762 62.0734 101.222 66.359C101.077 66.7959 100.681 67.0664 100.244 67.0664Z" fill="black"/>
<path d="M121.318 64.8613C121.089 64.8613 120.839 64.7781 120.652 64.6117C119.154 63.3426 118.447 63.0305 118.218 62.9681C117.885 63.0721 117.511 62.9889 117.24 62.7601C116.803 62.3856 116.762 61.7199 117.157 61.283C118.364 59.9307 121.006 62.1776 122.004 63.0305C122.441 63.405 122.504 64.0499 122.129 64.4868C121.921 64.7365 121.63 64.8613 121.318 64.8613Z" fill="black"/>
<path d="M117.263 86.2092C117.034 86.2092 116.826 86.1468 116.639 86.0012C116.181 85.6475 116.098 85.0025 116.451 84.5447C118.594 81.7358 114.642 76.3678 112.915 74.5576C112.519 74.1415 112.54 73.4757 112.956 73.0803C113.372 72.685 114.038 72.7058 114.433 73.1219C114.725 73.434 121.757 81.0076 118.095 85.7931C117.887 86.0636 117.575 86.2092 117.263 86.2092Z" fill="black"/>
<path d="M119.093 76.1794C118.573 76.1794 118.136 75.8049 118.074 75.2848L117.325 70.0005C117.241 69.4388 117.637 68.8979 118.198 68.8147C118.76 68.7314 119.301 69.1267 119.384 69.6884L120.133 74.9727C120.216 75.5344 119.821 76.0754 119.259 76.1586C119.197 76.1586 119.135 76.1794 119.093 76.1794Z" fill="black"/>
<path d="M103.594 76.2C103.053 76.2 102.595 75.7839 102.553 75.2222L102.221 69.8963C102.179 69.3137 102.616 68.8352 103.198 68.7936C103.739 68.752 104.259 69.1889 104.301 69.7714L104.634 75.0973C104.675 75.6799 104.239 76.1584 103.656 76.2C103.635 76.2 103.614 76.2 103.594 76.2Z" fill="black"/>
<path d="M120.777 60.2626C120.777 60.2626 118.405 55.706 112.788 55.6019C107.171 55.4979 103.842 59.3887 103.842 59.3887C103.842 59.3887 106.173 68.8765 98.475 73.7868C90.7774 78.6972 84.8898 77.2199 84.8898 77.2199L79.3766 75.1809L75.4238 67.0455L91.6512 50.005L112.518 39.3521L122.941 49.0687L120.777 60.2626Z" fill="#BB1D1D"/>
<path d="M111.208 95.093C109.773 95.093 105.321 94.7185 103.282 90.204C103.053 89.6839 103.282 89.0598 103.802 88.8309C104.322 88.6021 104.946 88.8309 105.175 89.351C106.964 93.3038 111.312 93.0334 111.5 93.0126C112.082 92.9502 112.561 93.4079 112.623 93.9696C112.665 94.5313 112.249 95.0306 111.666 95.093C111.604 95.093 111.458 95.093 111.208 95.093Z" fill="black"/>
<path d="M21.166 155.1C28.0938 165.961 37.1229 175.344 47.6915 182.689C53.3502 186.621 59.4459 189.971 65.8952 192.655L50.9994 124.223C49.98 124.93 34.0855 136.145 21.166 155.1Z" fill="#008B85"/>
<path d="M105.236 130.007C104.134 130.007 103.01 129.966 101.845 129.882C91.6929 129.133 82.4142 122.205 82.0189 121.914C81.5612 121.56 81.478 120.915 81.8109 120.457C82.1645 119.999 82.8095 119.895 83.2672 120.249C83.3504 120.311 92.4627 127.094 101.991 127.802C110.292 128.426 117.553 126.366 117.615 126.345C118.177 126.2 118.738 126.512 118.905 127.053C119.071 127.615 118.738 128.176 118.198 128.343C117.948 128.426 112.372 130.007 105.236 130.007Z" fill="white"/>
</svg>
