<svg width="92" height="92" viewBox="0 0 92 92" fill="none" xmlns="http://www.w3.org/2000/svg">
<g clip-path="url(#clip0_84_31965)">
<path d="M3.79721 37.8197C1.92347 38.1236 0.474006 39.6259 0.237356 41.5094C-0.0772728 44.3622 -0.0804402 47.2408 0.228155 50.0943C0.443237 52.007 1.9016 53.5445 3.80023 53.8603L8.66174 54.6563C9.59506 58.6317 11.1706 62.4283 13.3261 65.8965L10.4646 69.8933C9.32433 71.4393 9.35193 73.5551 10.5319 75.0711C11.4426 76.1852 12.4116 77.2507 13.4347 78.2628C14.3729 79.2024 15.4101 80.1466 16.6553 81.193C18.1593 82.3496 20.2461 82.3737 21.7766 81.2526L25.7931 78.3712C29.2578 80.5264 33.0507 82.1024 37.0226 83.0371L37.8202 87.9063C38.1234 89.7806 39.6259 91.2309 41.5099 91.4677C42.3808 91.5654 43.2654 91.6342 44.1561 91.6708H44.2859C45.0822 91.6702 45.8479 91.3639 46.4248 90.8152C47.0247 90.242 47.3631 89.4479 47.3613 88.6182V76.3742C47.3523 74.7382 46.0609 73.397 44.4264 73.3263C29.8031 72.5628 18.3377 60.4832 18.3377 45.84C18.3377 31.1968 29.8031 19.1173 44.4264 18.3538C46.0635 18.282 47.3556 16.9369 47.3613 15.2982V3.06037C47.3637 2.22976 47.0245 1.43489 46.4232 0.861895C45.8229 0.27291 45.0034 -0.0379482 44.1635 0.00473634C43.2743 0.0398794 42.3927 0.103982 41.4882 0.195685C39.6053 0.438369 38.1101 1.89748 37.8214 3.77379L37.0255 8.63832C33.0536 9.57375 29.2607 11.1502 25.796 13.3059L21.7794 10.4305C20.2348 9.30091 18.1277 9.33454 16.6201 10.513C15.5124 11.4197 14.4522 12.3829 13.4438 13.3991C12.4044 14.4151 11.426 15.4915 10.5135 16.6227C9.3477 18.1286 9.31784 20.2238 10.4402 21.7624L13.3201 25.7836C11.1664 29.2515 9.59295 33.0477 8.66174 37.0223L3.79721 37.8197ZM11.4257 38.6722C12.3139 34.357 14.018 30.2511 16.4461 26.575C16.7941 26.0463 16.7801 25.358 16.411 24.8439L12.9261 19.9779C12.6039 19.5527 12.5946 18.9678 12.9032 18.5325C13.7406 17.4947 14.6391 16.5075 15.5937 15.5761C16.521 14.6395 17.4949 13.75 18.5117 12.9116C18.9495 12.578 19.5561 12.578 19.9938 12.9116L24.8523 16.3981C25.3669 16.7663 26.0553 16.779 26.5833 16.4303C30.2563 14.0012 34.3599 12.2965 38.673 11.4083C39.2931 11.2805 39.7701 10.7834 39.8724 10.1585L40.8333 4.27484C40.9024 3.7471 41.3077 3.32628 41.8326 3.23745C42.6407 3.15343 43.4597 3.09386 44.3061 3.06022L44.2725 15.2995C28.0067 16.1303 15.2471 29.5656 15.2561 45.8527C15.265 62.1398 28.0394 75.5611 44.3061 76.3739L44.2847 88.6179C43.4642 88.5843 42.6516 88.5202 41.8495 88.43C41.3222 88.3529 40.9089 87.9372 40.835 87.4093L39.8724 81.5226C39.7701 80.8977 39.2932 80.4007 38.673 80.2728C34.3599 79.3839 30.2563 77.6789 26.5833 75.2493C26.055 74.9009 25.3668 74.9144 24.8523 75.283L19.9893 78.7726C19.5745 79.095 18.9983 79.1106 18.5668 78.8107C17.4439 77.865 16.4706 76.9774 15.5937 76.1018C14.6569 75.1762 13.768 74.2034 12.9306 73.1868C12.6011 72.7467 12.6011 72.142 12.9306 71.7017L16.4125 66.8402C16.7811 66.3259 16.7946 65.6375 16.4461 65.1091C14.0178 61.4337 12.3137 57.3282 11.4257 53.0134C11.2981 52.3938 10.8017 51.9169 10.1774 51.814L4.29525 50.85C3.74774 50.7595 3.32738 50.3154 3.26705 49.7637C2.98093 47.1358 2.98394 44.4844 3.27625 41.8573C3.35227 41.3295 3.76735 40.915 4.29525 40.8398L10.1758 39.8772C10.8024 39.7746 11.3 39.2948 11.4257 38.6722Z" fill="white"/>
<path d="M87.0848 41.2549C85.1494 41.2629 83.4277 42.4858 82.7824 44.3105H47.3616V39.727H71.8066C74.338 39.727 76.39 37.675 76.39 35.1436V27.2235C78.4947 26.4794 79.7571 24.3273 79.3796 22.1271C79.0021 19.927 77.0944 18.3187 74.8621 18.3187C72.6299 18.3187 70.7222 19.927 70.3447 22.1271C69.9671 24.3273 71.2296 26.4794 73.3342 27.2235V35.1436C73.3342 35.9874 72.6502 36.6715 71.8063 36.6715H47.3616V32.088H64.1675C65.0112 32.088 65.6952 31.404 65.6952 30.5601C65.6952 29.7162 65.0112 29.0322 64.1675 29.0322H47.3616V25.9766H56.5285C59.0598 25.9766 61.112 23.9246 61.112 21.393V11.9453C63.2167 11.2013 64.4791 9.04909 64.1016 6.84895C63.724 4.64881 61.8164 3.04053 59.5841 3.04053C57.3518 3.04053 55.4442 4.64881 55.0666 6.84895C54.6891 9.04909 55.9515 11.2013 58.0562 11.9453V21.3934C58.0562 22.2371 57.3722 22.9212 56.5283 22.9212H46.9581C46.4324 21.9443 45.3834 21.3657 44.2768 21.4424C31.4019 22.2579 21.377 32.9379 21.377 45.8386C21.377 58.7393 31.4019 69.4193 44.2768 70.2348H44.4555C45.4993 70.2436 46.4623 69.6743 46.9581 68.7559H56.5283C57.372 68.7559 58.0562 69.4399 58.0562 70.2838V79.7319C55.9515 80.4759 54.6891 82.6281 55.0666 84.8282C55.4442 87.0284 57.3518 88.6367 59.5841 88.6367C61.8164 88.6367 63.724 87.0284 64.1016 84.8282C64.4791 82.6281 63.2167 80.4759 61.112 79.7319V70.2838C61.112 67.7525 59.06 65.7003 56.5285 65.7003H47.3616V62.6447H64.1675C65.0112 62.6447 65.6952 61.9607 65.6952 61.1169C65.6952 60.2732 65.0112 59.589 64.1675 59.589H47.3616V55.0056H71.8066C72.6504 55.0056 73.3345 55.6897 73.3345 56.5334V64.4536C71.2299 65.1976 69.9674 67.3498 70.345 69.5499C70.7225 71.75 72.6302 73.3583 74.8624 73.3583C77.0947 73.3583 79.0024 71.75 79.3799 69.5499C79.7574 67.3498 78.495 65.1976 76.3903 64.4536V56.5334C76.3903 54.002 74.3383 51.95 71.8069 51.95H47.3616V47.3662H82.7824C83.5631 49.558 85.8643 50.8149 88.1305 50.2873C90.3966 49.7597 91.9061 47.6157 91.6385 45.3044C91.3708 42.9934 89.4114 41.2508 87.0848 41.2549ZM74.8623 21.3934C75.706 21.3934 76.39 22.0774 76.39 22.9212C76.39 23.7651 75.706 24.4491 74.8623 24.4491C74.0186 24.4491 73.3345 23.7651 73.3345 22.9212C73.3345 22.0774 74.0184 21.3934 74.8623 21.3934ZM59.5841 6.11517C60.4278 6.11517 61.112 6.79918 61.112 7.64306C61.112 8.48695 60.428 9.1708 59.5841 9.1708C58.7402 9.1708 58.0564 8.4868 58.0564 7.64306C58.0564 6.79933 58.7402 6.11517 59.5841 6.11517ZM59.5841 85.5617C58.7404 85.5617 58.0564 84.8777 58.0564 84.0338C58.0564 83.1899 58.7404 82.5059 59.5841 82.5059C60.4278 82.5059 61.112 83.1899 61.112 84.0338C61.112 84.8777 60.4278 85.5617 59.5841 85.5617ZM74.8623 70.2835C74.0186 70.2835 73.3345 69.5995 73.3345 68.7556C73.3345 67.9118 74.0186 67.2279 74.8623 67.2279C75.706 67.2279 76.39 67.9119 76.39 68.7556C76.39 69.5994 75.706 70.2835 74.8623 70.2835ZM24.4442 45.8384C24.457 34.6233 33.1203 25.3178 44.3059 24.504V67.173C33.1203 66.3591 24.457 57.0535 24.4442 45.8384ZM87.0848 47.3662C86.2411 47.3662 85.5569 46.6822 85.5569 45.8383C85.5569 44.9944 86.2409 44.3105 87.0848 44.3105C87.9287 44.3105 88.6127 44.9946 88.6127 45.8383C88.6127 46.682 87.9286 47.3662 87.0848 47.3662Z" fill="white"/>
<path d="M43 31C39.0218 31 35.2064 32.5804 32.3934 35.3934C29.5804 38.2064 28 42.0218 28 46C28 49.9782 29.5804 53.7936 32.3934 56.6066C35.2064 59.4196 39.0218 61 43 61L43 46V31Z" fill="#F03A9E"/>
</g>
<defs>
<clipPath id="clip0_84_31965">
<rect width="91.67" height="91.67" fill="white"/>
</clipPath>
</defs>
</svg>
